{
DisplayStrings = (
"/alef-hb/bet-hb/gimel-hb/dalet-hb/he-hb/vav-hb/zayin-hb/het-hb/tet-hb/yod-hb/kaf-hb/lamed-hb/mem-hb/nun-hb/samekh-hb/ayin-hb/pe-hb/tsadi-hb/qof-hb/resh-hb/shin-hb/tav-hb"
);
classes = (
{
code = "zero one two three four five six seven eight nine parenleft parenright";
name = standard;
},
{
code = "zerosuperior onesuperior twosuperior threesuperior foursuperior fivesuperior sixsuperior sevensuperior eightsuperior ninesuperior parenleftsuperior parenrightsuperior";
name = sups;
},
{
code = "zeroinferior oneinferior twoinferior threeinferior fourinferior fiveinferior sixinferior seveninferior eightinferior nineinferior parenleftinferior parenrightinferior";
name = subs;
},
{
code = "zero.numerator one.numerator two.numerator three.numerator four.numerator five.numerator six.numerator seven.numerator eight.numerator nine.numerator parenleft.numerator parenright.numerator";
name = numerator;
},
{
code = "zero.denominator one.denominator two.denominator three.denominator four.denominator five.denominator six.denominator seven.denominator eight.denominator nine.denominator parenleft.denominator parenright.denominator";
name = denominator;
},
{
code = "zero.otlf one.otlf two.otlf three.otlf four.otlf five.otlf six.otlf seven.otlf eight.otlf nine.otlf parenleft.otlf parenright.otlf";
name = tnum1;
}
);
copyright = "Copyright (c) 2015 by Hubert & Fischer. All rights reserved.";
customParameters = (
{
name = macintoshFONDFamilyID;
value = 128;
},
{
name = macintoshFONDName;
value = Rubik;
},
{
name = openTypeHeadFlags;
value = (
);
},
{
name = openTypeNameDescription;
value = "";
},
{
name = openTypeNameLicense;
value = "This Font Software is licensed under the SIL Open Font License, Version 1.1. This license is available with a FAQ at: http://scripts.sil.org/OFL";
},
{
name = openTypeNameLicenseURL;
value = "http://scripts.sil.org/OFL";
},
{
name = openTypeNameSampleText;
value = "";
},
{
name = openTypeNameUniqueID;

glyphs = (
{
glyphname = A;
lastChange = "2015-10-21 15:52:36 +0000";
layers = (
{
hints = (
{
horizontal = 1;
origin = "{0, 0}";
type = Tag;
name = hr00;
}
);
layerId = "E313AEA5-9794-4496-8824-D26DD01CDD19";
name = "Light Italic";
paths = (
{
closed = 1;
nodes = (
"458 680 LINE SMOOTH",
"456 693 OFFCURVE",
"449 700 OFFCURVE",
"433 700 CURVE SMOOTH",
"391 700 LINE SMOOTH",
"375 700 OFFCURVE",
"366 693 OFFCURVE",
"358 680 CURVE SMOOTH",
"-33 31 LINE",
"-41 17 OFFCURVE",
"-34 0 OFFCURVE",
"-17 0 CURVE SMOOTH",
"5 0 LINE SMOOTH",
"14 0 OFFCURVE",
"24 5 OFFCURVE",
"30 15 CURVE SMOOTH",
"128 175 LINE",
"481 175 LINE",
"511 21 LINE SMOOTH",
"514 6 OFFCURVE",
"522 0 OFFCURVE",
"534 0 CURVE SMOOTH",
"555 0 LINE SMOOTH",
"568 0 OFFCURVE",
"577 11 OFFCURVE",
"573 31 CURVE"
);
},
{
closed = 1;
nodes = (
"401 629 LINE",
"471 235 LINE",
"164 235 LINE"
);
}
);
width = 653;
},
{
hints = (
{
horizontal = 1;
place = "{9223372036854775808.000000, 0.000000}";
type = Tag;
name = hr00;
}
);
layerId = "8D1576CD-C92F-4A10-BFAA-527F596A391A";
name = "Bold Italic";
paths = (
{
closed = 1;
nodes = (
"355 700 LINE SMOOTH",
"328 700 OFFCURVE",
"311 681 OFFCURVE",
"303 667 CURVE",
"-55 29 LINE SMOOTH",
"-63 15 OFFCURVE",
"-55 0 OFFCURVE",
"-40 0 CURVE SMOOTH",
"155 0 LINE SMOOTH",
"181 0 OFFCURVE",
"192 14 OFFCURVE",
"199 25 CURVE SMOOTH",
"237 91 LINE",
"452 91 LINE",
"462 25 LINE SMOOTH",
"463 14 OFFCURVE",
"470 0 OFFCURVE",
"496 0 CURVE SMOOTH",
"676 0 LINE SMOOTH",
"691 0 OFFCURVE",
"705 11 OFFCURVE",
"703 29 CURVE",
"615 667 LINE",
"613 682 OFFCURVE",
"604 700 OFFCURVE",
"577 700 CURVE SMOOTH"
);
},
{
closed = 1;
nodes = (
"329 286 LINE",
"425 472 LINE",
"442 286 LINE"
);
}
);
width = 761;
}
);
leftKerningGroup = A;
rightKerningGroup = A;
unicode = 0041;
},
{
glyphname = Aogonek;
lastChange = "2015-10-21 15:52:36 +0000";
layers = (
{
hints = (
{
horizontal = 1;
origin = "{0, 0}";
type = Tag;
name = hr00;
}
);
layerId = "E313AEA5-9794-4496-8824-D26DD01CDD19";
name = "Light Italic";
paths = (
{
closed = 1;
nodes = (
"458 680 LINE",
"456 693 OFFCURVE",
"449 700 OFFCURVE",
"433 700 CURVE",
"391 700 LINE",
"375 700 OFFCURVE",
"366 693 OFFCURVE",
"358 680 CURVE",
"-33 31 LINE",
"-41 17 OFFCURVE",
"-34 0 OFFCURVE",
"-17 0 CURVE",
"5 0 LINE",
"14 0 OFFCURVE",
"24 5 OFFCURVE",
"30 15 CURVE",
"128 175 LINE",
"481 175 LINE",
"505 53 LINE",
"442 39 OFFCURVE",
"394 -10 OFFCURVE",
"382 -82 CURVE SMOOTH",
"367 -167 OFFCURVE",
"427 -220 OFFCURVE",
"498 -220 CURVE",
"504 -220 LINE",
"518 -220 OFFCURVE",
"524 -216 OFFCURVE",
"528 -203 CURVE",
"533 -185 LINE",
"536 -172 OFFCURVE",
"529 -163 OFFCURVE",
"516 -163 CURVE",
"498 -163 LINE",
"464 -163 OFFCURVE",
"431 -133 OFFCURVE",
"442 -82 CURVE SMOOTH",
"453 -31 OFFCURVE",
"499 0 OFFCURVE",
"543 0 CURVE",
"555 0 LINE",
"568 0 OFFCURVE",
"577 11 OFFCURVE",
"573 31 CURVE"
);
},
{
closed = 1;
nodes = (
"401 629 LINE",
"471 235 LINE",
"164 235 LINE"
);
}
);
width = 653;
},
{
guideLines = (
{
position = "{0, -220}";
}
);
hints = (
{
horizontal = 1;
place = "{9223372036854775808.000000, 0.000000}";
type = Tag;
name = hr00;
}
);
layerId = "8D1576CD-C92F-4A10-BFAA-527F596A391A";
name = "Bold Italic";
paths = (
{
closed = 1;
nodes = (
"355 700 LINE",
"328 700 OFFCURVE",
"311 681 OFFCURVE",
"303 667 CURVE",
"-55 29 LINE",
"-63 15 OFFCURVE",
"-55 0 OFFCURVE",
"-40 0 CURVE",
"155 0 LINE",
"181 0 OFFCURVE",
"192 14 OFFCURVE",
"199 25 CURVE",
"237 91 LINE",
"452 91 LINE",
"462 25 LINE",
"463 14 OFFCURVE",
"470 0 OFFCURVE",
"496 0 CURVE",
"500 0 LINE",
"495 -12 OFFCURVE",
"492 -25 OFFCURVE",
"489 -39 CURVE SMOOTH",
"469 -134 OFFCURVE",
"514 -220 OFFCURVE",
"635 -220 CURVE",
"639 -220 LINE",
"654 -220 OFFCURVE",
"668 -208 OFFCURVE",
"671 -193 CURVE",
"686 -125 LINE",
"689 -110 OFFCURVE",
"680 -98 OFFCURVE",
"665 -98 CURVE",
"655 -98 LINE",
"616 -98 OFFCURVE",
"611 -70 OFFCURVE",
"615 -49 CURVE SMOOTH",
"619 -29 OFFCURVE",
"635 -2 OFFCURVE",
"670 0 CURVE",
"676 0 LINE",
"691 0 OFFCURVE",
"705 11 OFFCURVE",
"703 29 CURVE",
"615 667 LINE",
"613 682 OFFCURVE",
"604 700 OFFCURVE",
"577 700 CURVE"
);
},
{
closed = 1;
nodes = (
"329 286 LINE",
"425 472 LINE",
"442 286 LINE"
);
}
);
width = 761;
}
);
leftKerningGroup = A;
rightKerningGroup = A;
unicode = 0104;
},
{
glyphname = AE;
lastChange = "2015-10-21 15:52:36 +0000";
layers = (
{
hints = (
{
horizontal = 1;
origin = "{0, 0}";
type = Tag;
name = hr00;
}
);
layerId = "E313AEA5-9794-4496-8824-D26DD01CDD19";
name = "Light Italic";
paths = (
{
closed = 1;
nodes = (
"11 0 LINE",
"20 0 OFFCURVE",
"30 5 OFFCURVE",
"36 15 CURVE SMOOTH",
"134 175 LINE",
"421 175 LINE",
"388 22 LINE",
"385 9 OFFCURVE",
"393 0 OFFCURVE",
"406 0 CURVE",
"804 0 LINE",
"818 0 OFFCURVE",
"828 9 OFFCURVE",
"831 22 CURVE",
"834 37 LINE",
"837 51 OFFCURVE",
"830 60 OFFCURVE",
"816 60 CURVE",
"459 60 LINE",
"516 325 LINE",
"843 325 LINE",
"857 325 OFFCURVE",
"867 334 OFFCURVE",
"870 347 CURVE",
"873 362 LINE",
"876 376 OFFCURVE",
"869 385 OFFCURVE",
"855 385 CURVE",
"528 385 LINE",
"583 640 LINE",
"932 640 LINE",
"946 640 OFFCURVE",
"956 649 OFFCURVE",
"959 662 CURVE",
"962 677 LINE",
"965 691 OFFCURVE",
"958 700 OFFCURVE",
"944 700 CURVE",
"394 700 LINE",
"385 700 OFFCURVE",
"374 697 OFFCURVE",
"364 681 CURVE",
"-24 36 LINE",
"-31 24 OFFCURVE",
"-35 0 OFFCURVE",
"-9 0 CURVE SMOOTH"
);
},
{
closed = 1;
nodes = (
"409 633 LINE",
"518 633 LINE",
"433 235 LINE",
"170 235 LINE"
);
}
);
width = 943;
},
{
guideLines = (
{
position = "{0, 505}";
}
);
hints = (
{
horizontal = 1;
place = "{9223372036854775808.000000, 0.000000}";
type = Tag;
name = hr01;
},
{
horizontal = 1;
place = "{9223372036854775808.000000, 0.000000}";
type = Tag;
name = hr02;
},
{
horizontal = 1;
place = "{9223372036854775808.000000, 0.000000}";
type = Tag;
name = hr03;
}
);
layerId = "8D1576CD-C92F-4A10-BFAA-527F596A391A";
name = "Bold Italic";
paths = (
{
closed = 1;
nodes = (
"360 700 LINE SMOOTH",
"333 700 OFFCURVE",
"315 682 OFFCURVE",
"308 667 CURVE",
"-50 29 LINE SMOOTH",
"-59 16 OFFCURVE",
"-50 0 OFFCURVE",
"-35 0 CURVE SMOOTH",
"160 0 LINE SMOOTH",
"186 0 OFFCURVE",
"197 14 OFFCURVE",
"204 25 CURVE SMOOTH",
"242 91 LINE",
"391 91 LINE",
"377 27 LINE SMOOTH",
"374 12 OFFCURVE",
"384 0 OFFCURVE",
"399 0 CURVE SMOOTH",
"890 0 LINE SMOOTH",
"905 0 OFFCURVE",
"919 12 OFFCURVE",
"922 27 CURVE SMOOTH",
"952 168 LINE SMOOTH",
"955 183 OFFCURVE",
"946 195 OFFCURVE",
"931 195 CURVE SMOOTH",
"653 195 LINE",
"666 258 LINE",
"914 258 LINE SMOOTH",
"929 258 OFFCURVE",
"944 270 OFFCURVE",
"947 285 CURVE SMOOTH",
"975 415 LINE SMOOTH",
"978 430 OFFCURVE",
"968 442 OFFCURVE",
"953 442 CURVE SMOOTH",
"705 442 LINE",
"719 505 LINE",
"989 505 LINE SMOOTH",
"1004 505 OFFCURVE",
"1018 517 OFFCURVE",
"1022 532 CURVE",
"1052 673 LINE SMOOTH",
"1055 688 OFFCURVE",
"1045 700 OFFCURVE",
"1030 700 CURVE SMOOTH"
);
},
{
closed = 1;
nodes = (
"334 286 LINE",
"447 505 LINE",
"479 505 LINE",
"432 286 LINE"
);
}
);
width = 1016;
}
);
leftKerningGroup = AE;
rightKerningGroup = E;
unicode = 00C6;
},
{
glyphname = B;
lastChange = "2015-10-21 15:52:36 +0000";
layers = (
{
hints = (
{
horizontal = 1;
origin = "{0, 0}";
type = Tag;
name = hr00;
}
);
layerId = "E313AEA5-9794-4496-8824-D26DD01CDD19";
name = "Light Italic";
paths = (
{
closed = 1;
nodes = (
"323 0 LINE SMOOTH",
"479 0 OFFCURVE",
"550 97 OFFCURVE",
"572 198 CURVE",
"589 282 OFFCURVE",
"553 337 OFFCURVE",
"506 369 CURVE",
"550 386 OFFCURVE",
"606 426 OFFCURVE",
"626 521 CURVE SMOOTH",
"646 616 OFFCURVE",
"588 700 OFFCURVE",
"463 700 CURVE SMOOTH",
"202 700 LINE SMOOTH",
"189 700 OFFCURVE",
"178 691 OFFCURVE",
"175 677 CURVE SMOOTH",
"36 22 LINE SMOOTH",
"33 9 OFFCURVE",
"41 0 OFFCURVE",
"54 0 CURVE SMOOTH"
);
},
{
closed = 1;
nodes = (
"448 640 LINE SMOOTH",
"544 640 OFFCURVE",
"580 600 OFFCURVE",
"563 521 CURVE SMOOTH",
"546 442 OFFCURVE",
"475 396 OFFCURVE",
"381 396 CURVE SMOOTH",
"179 396 LINE",
"231 640 LINE"
);
},
{
closed = 1;
nodes = (
"383 336 LINE SMOOTH",
"497 336 OFFCURVE",
"526 279 OFFCURVE",
"509 198 CURVE SMOOTH",
"492 118 OFFCURVE",
"417 60 OFFCURVE",
"323 60 CURVE SMOOTH",
"107 60 LINE",
"166 336 LINE"
);
}
);
width = 657;
},
{
guideLines = (
{
position = "{0, 221}";
},
{
position = "{0, 482}";
},
{
angle = 90;
position = "{667, 0}";
}
);
hints = (
{
horizontal = 1;
place = "{9223372036854775808.000000, 0.000000}";
type = Tag;
name = hr00;
}
);
layerId = "8D1576CD-C92F-4A10-BFAA-527F596A391A";
name = "Bold Italic";
paths = (
{
closed = 1;
nodes = (
"469 482 CURVE SMOOTH",
"464 461 OFFCURVE",
"447 437 OFFCURVE",
"418 437 CURVE SMOOTH",
"334 437 LINE",
"354 528 LINE",
"438 528 LINE SMOOTH",
"467 528 OFFCURVE",
"473 503 OFFCURVE"
);
},
{
closed = 1;
nodes = (
"299 270 LINE",
"392 270 LINE SMOOTH",
"422 270 OFFCURVE",
"433 245 OFFCURVE",
"427 221 CURVE SMOOTH",
"423 199 OFFCURVE",
"404 172 OFFCURVE",
"371 172 CURVE SMOOTH",
"278 172 LINE"
);
},
{
closed = 1;
nodes = (
"381 0 LINE SMOOTH",
"561 0 OFFCURVE",
"657 70 OFFCURVE",
"689 220 CURVE SMOOTH",
"703 286 OFFCURVE",
"672 344 OFFCURVE",
"625 365 CURVE",
"660 381 OFFCURVE",
"718 426 OFFCURVE",
"732 490 CURVE SMOOTH",
"761 630 OFFCURVE",
"660 700 OFFCURVE",
"479 700 CURVE SMOOTH",
"167 700 LINE SMOOTH",
"152 700 OFFCURVE",
"138 688 OFFCURVE",
"135 673 CURVE SMOOTH",
"-3 27 LINE SMOOTH",
"-6 12 OFFCURVE",
"4 0 OFFCURVE",
"19 0 CURVE SMOOTH"
);
}
);
width = 733;
}
);
leftKerningGroup = I;
unicode = 0042;
},
{
glyphname = C;
lastChange = "2015-10-21 15:52:36 +0000";
layers = (
{
hints = (
{
horizontal = 1;
origin = "{0, 0}";
type = Tag;
name = hr00;
}
);
layerId = "E313AEA5-9794-4496-8824-D26DD01CDD19";
name = "Light Italic";
paths = (
{
closed = 1;
nodes = (
"159 434 CURVE SMOOTH",
"196 585 OFFCURVE",
"291 650 OFFCURVE",
"413 650 CURVE SMOOTH",
"520 650 OFFCURVE",
"590 608 OFFCURVE",
"578 495 CURVE SMOOTH",
"576 479 OFFCURVE",
"588 474 OFFCURVE",
"599 474 CURVE SMOOTH",
"622 474 LINE SMOOTH",
"634 474 OFFCURVE",
"639 482 OFFCURVE",
"641 494 CURVE SMOOTH",
"658 595 OFFCURVE",
"603 710 OFFCURVE",
"413 710 CURVE SMOOTH",
"231 710 OFFCURVE",
"136 595 OFFCURVE",
"97 439 CURVE SMOOTH",
"83 382 OFFCURVE",
"68 315 OFFCURVE",
"59 261 CURVE SMOOTH",
"32 105 OFFCURVE",
"92 -10 OFFCURVE",
"274 -10 CURVE SMOOTH",
"474 -10 OFFCURVE",
"550 112 OFFCURVE",
"579 206 CURVE SMOOTH",
"583 218 OFFCURVE",
"575 226 OFFCURVE",
"563 226 CURVE SMOOTH",
"540 226 LINE SMOOTH",
"529 226 OFFCURVE",
"521 221 OFFCURVE",
"515 205 CURVE",
"464 86 OFFCURVE",
"381 50 OFFCURVE",
"274 50 CURVE SMOOTH",
"152 50 OFFCURVE",
"96 115 OFFCURVE",
"123 266 CURVE SMOOTH",
"133 323 OFFCURVE",
"145 379 OFFCURVE"
);
}
);
width = 650;
},
{
guideLines = (
{
position = "{0, 434}";
},
{
position = "{0, 266}";
},
{
position = "{0, 710}";
},
{
position = "{0, -10}";
},
{
angle = 90;
position = "{326, 0}";
}
);
hints = (
{
horizontal = 1;
place = "{9223372036854775808.000000, 0.000000}";
type = Tag;
name = hr00;
}
);
layerId = "8D1576CD-C92F-4A10-BFAA-527F596A391A";
name = "Bold Italic";
paths = (
{
closed = 1;
nodes = (
"327 434 CURVE SMOOTH",
"342 495 OFFCURVE",
"374 515 OFFCURVE",
"418 515 CURVE SMOOTH",
"452 515 OFFCURVE",
"476 504 OFFCURVE",
"481 461 CURVE",
"485 439 OFFCURVE",
"490 432 OFFCURVE",
"512 432 CURVE SMOOTH",
"716 432 LINE SMOOTH",
"728 432 OFFCURVE",
"740 442 OFFCURVE",
"743 454 CURVE SMOOTH",
"779 636 OFFCURVE",
"600 710 OFFCURVE",
"440 710 CURVE SMOOTH",
"243 710 OFFCURVE",
"115 625 OFFCURVE",
"68 439 CURVE SMOOTH",
"54 382 OFFCURVE",
"39 315 OFFCURVE",
"30 261 CURVE SMOOTH",
"-3 70 OFFCURVE",
"145 -10 OFFCURVE",
"327 -10 CURVE SMOOTH",
"507 -10 OFFCURVE",
"657 64 OFFCURVE",
"699 246 CURVE",
"701 258 OFFCURVE",
"693 268 OFFCURVE",
"681 268 CURVE SMOOTH",
"477 268 LINE SMOOTH",
"455 268 OFFCURVE",
"446 262 OFFCURVE",
"434 239 CURVE SMOOTH",
"413 199 OFFCURVE",
"382 185 OFFCURVE",
"348 185 CURVE SMOOTH",
"304 185 OFFCURVE",
"280 205 OFFCURVE",
"291 266 CURVE SMOOTH",
"301 323 OFFCURVE",
"313 379 OFFCURVE"
);
}
);
width = 731;
}
);
leftKerningGroup = O;
rightKerningGroup = C;
unicode = 0043;
},
{
glyphname = Ccedilla;
lastChange = "2015-10-21 15:52:36 +0000";
layers = (
{
hints = (
{
horizontal = 1;
origin = "{0, 0}";
type = Tag;
name = hr00;
}
);
layerId = "E313AEA5-9794-4496-8824-D26DD01CDD19";
name = "Light Italic";
paths = (
{
closed = 1;
nodes = (
"159 434 CURVE SMOOTH",
"196 585 OFFCURVE",
"291 650 OFFCURVE",
"413 650 CURVE SMOOTH",
"520 650 OFFCURVE",
"590 608 OFFCURVE",
"578 495 CURVE SMOOTH",
"576 479 OFFCURVE",
"588 474 OFFCURVE",
"599 474 CURVE",
"622 474 LINE",
"634 474 OFFCURVE",
"639 482 OFFCURVE",
"641 494 CURVE SMOOTH",
"658 595 OFFCURVE",
"603 710 OFFCURVE",
"413 710 CURVE SMOOTH",
"231 710 OFFCURVE",
"136 595 OFFCURVE",
"97 439 CURVE SMOOTH",
"83 382 OFFCURVE",
"68 315 OFFCURVE",
"59 261 CURVE SMOOTH",
"34 121 OFFCURVE",
"80 13 OFFCURVE",
"222 -6 CURVE",
"192 -53 LINE",
"186 -63 OFFCURVE",
"176 -75 OFFCURVE",
"181 -83 CURVE",
"193 -100 LINE",
"205 -116 OFFCURVE",
"222 -96 OFFCURVE",
"254 -96 CURVE SMOOTH",
"277 -96 OFFCURVE",
"294 -110 OFFCURVE",
"289 -134 CURVE SMOOTH",
"284 -159 OFFCURVE",
"261 -174 OFFCURVE",
"238 -174 CURVE SMOOTH",
"191 -174 OFFCURVE",
"190 -142 OFFCURVE",
"173 -156 CURVE",
"157 -169 LINE",
"137 -184 OFFCURVE",
"181 -220 OFFCURVE",
"238 -220 CURVE SMOOTH",
"296 -220 OFFCURVE",
"329 -183 OFFCURVE",
"339 -135 CURVE SMOOTH",
"350 -87 OFFCURVE",
"321 -50 OFFCURVE",
"282 -50 CURVE SMOOTH",
"267 -50 OFFCURVE",
"251 -52 OFFCURVE",
"242 -57 CURVE",
"276 -10 LINE",
"474 -9 OFFCURVE",
"550 112 OFFCURVE",
"579 206 CURVE SMOOTH",
"583 218 OFFCURVE",
"575 226 OFFCURVE",
"563 226 CURVE",
"540 226 LINE",
"529 226 OFFCURVE",
"521 221 OFFCURVE",
"515 205 CURVE",
"464 86 OFFCURVE",
"381 50 OFFCURVE",
"274 50 CURVE SMOOTH",
"152 50 OFFCURVE",
"96 115 OFFCURVE",
"123 266 CURVE SMOOTH",
"133 323 OFFCURVE",
"145 379 OFFCURVE"
);
}
);
width = 650;
},
{
guideLines = (
{
position = "{0, -220}";
}
);
hints = (
{
horizontal = 1;
place = "{9223372036854775808.000000, 0.000000}";
type = Tag;
name = hr00;
}
);
layerId = "8D1576CD-C92F-4A10-BFAA-527F596A391A";
name = "Bold Italic";
paths = (
{
closed = 1;
nodes = (
"327 434 CURVE SMOOTH",
"342 495 OFFCURVE",
"374 515 OFFCURVE",
"418 515 CURVE SMOOTH",
"452 515 OFFCURVE",
"476 504 OFFCURVE",
"481 461 CURVE",
"485 439 OFFCURVE",
"490 432 OFFCURVE",
"512 432 CURVE",
"716 432 LINE",
"728 432 OFFCURVE",
"740 442 OFFCURVE",
"743 454 CURVE SMOOTH",
"779 636 OFFCURVE",
"600 710 OFFCURVE",
"440 710 CURVE SMOOTH",
"243 710 OFFCURVE",
"115 625 OFFCURVE",
"68 439 CURVE SMOOTH",
"54 382 OFFCURVE",
"39 315 OFFCURVE",
"30 261 CURVE SMOOTH",
"2 101 OFFCURVE",
"102 19 OFFCURVE",
"242 -3 CURVE",
"217 -42 LINE",
"204 -61 OFFCURVE",
"204 -69 OFFCURVE",
"211 -78 CURVE",
"232 -106 LINE",
"242 -119 OFFCURVE",
"268 -106 OFFCURVE",
"286 -106 CURVE SMOOTH",
"306 -106 OFFCURVE",
"311 -118 OFFCURVE",
"309 -130 CURVE SMOOTH",
"306 -142 OFFCURVE",
"295 -154 OFFCURVE",
"276 -154 CURVE SMOOTH",
"242 -154 OFFCURVE",
"241 -136 OFFCURVE",
"220 -151 CURVE",
"196 -169 LINE",
"168 -189 OFFCURVE",
"219 -220 OFFCURVE",
"272 -220 CURVE SMOOTH",
"332 -220 OFFCURVE",
"368 -188 OFFCURVE",
"379 -135 CURVE SMOOTH",
"390 -82 OFFCURVE",
"369 -40 OFFCURVE",
"318 -40 CURVE SMOOTH",
"314 -40 OFFCURVE",
"296 -42 OFFCURVE",
"287 -45 CURVE",
"312 -10 LINE",
"327 -10 LINE",
"507 -10 OFFCURVE",
"657 64 OFFCURVE",
"699 246 CURVE",
"701 258 OFFCURVE",
"693 268 OFFCURVE",
"681 268 CURVE",
"477 268 LINE",
"455 268 OFFCURVE",
"446 262 OFFCURVE",
"434 239 CURVE SMOOTH",
"413 199 OFFCURVE",
"382 185 OFFCURVE",
"348 185 CURVE SMOOTH",
"304 185 OFFCURVE",
"280 205 OFFCURVE",
"291 266 CURVE SMOOTH",
"301 323 OFFCURVE",
"313 379 OFFCURVE"
);
}
);
width = 731;
}
);
leftKerningGroup = O;
rightKerningGroup = C;
unicode = 00C7;
},
{
glyphname = D;
lastChange = "2015-10-21 15:52:36 +0000";
layers = (
{
hints = (
{
horizontal = 1;
origin = "{0, 0}";
type = Tag;
name = hr00;
}
);
layerId = "E313AEA5-9794-4496-8824-D26DD01CDD19";
name = "Light Italic";
paths = (
{
closed = 1;
nodes = (
"202 700 LINE",
"189 700 OFFCURVE",
"178 691 OFFCURVE",
"175 677 CURVE SMOOTH",
"36 22 LINE SMOOTH",
"33 9 OFFCURVE",
"41 0 OFFCURVE",
"54 0 CURVE SMOOTH",
"282 0 LINE SMOOTH",
"481 0 OFFCURVE",
"559 87 OFFCURVE",
"602 271 CURVE SMOOTH",
"616 331 OFFCURVE",
"624 370 OFFCURVE",
"636 430 CURVE SMOOTH",
"670 604 OFFCURVE",
"587 700 OFFCURVE",
"405 700 CURVE"
);
},
{
closed = 1;
nodes = (
"572 425 CURVE SMOOTH",
"560 365 OFFCURVE",
"554 336 OFFCURVE",
"540 276 CURVE SMOOTH",
"504 120 OFFCURVE",
"438 60 OFFCURVE",
"279 60 CURVE SMOOTH",
"107 60 LINE",
"231 640 LINE",
"398 640 LINE SMOOTH",
"558 640 OFFCURVE",
"600 571 OFFCURVE"
);
}
);
width = 677;
},
{
guideLines = (
{
angle = 90;
position = "{331, 0}";
}
);
hints = (
{
horizontal = 1;
place = "{9223372036854775808.000000, 0.000000}";
type = Tag;
name = hr00;
}
);
layerId = "8D1576CD-C92F-4A10-BFAA-527F596A391A";
name = "Bold Italic";
paths = (
{
closed = 1;
nodes = (
"435 700 CURVE",
"167 700 LINE SMOOTH",
"152 700 OFFCURVE",
"138 688 OFFCURVE",
"135 673 CURVE SMOOTH",
"-3 27 LINE SMOOTH",
"-6 12 OFFCURVE",
"4 0 OFFCURVE",
"19 0 CURVE SMOOTH",
"332 0 LINE SMOOTH",
"543 0 OFFCURVE",
"651 87 OFFCURVE",
"699 276 CURVE SMOOTH",
"713 330 OFFCURVE",
"721 368 OFFCURVE",
"731 425 CURVE SMOOTH",
"762 604 OFFCURVE",
"602 700 OFFCURVE"
);
},
{
closed = 1;
nodes = (
"477 425 CURVE SMOOTH",
"468 370 OFFCURVE",
"460 333 OFFCURVE",
"445 276 CURVE SMOOTH",
"430 220 OFFCURVE",
"392 195 OFFCURVE",
"348 195 CURVE SMOOTH",
"283 195 LINE",
"349 505 LINE",
"409 505 LINE SMOOTH",
"454 505 OFFCURVE",
"486 481 OFFCURVE"
);
}
);
width = 739;
}
);
leftKerningGroup = I;
rightKerningGroup = D;
unicode = 0044;
},
{
glyphname = Eth;
lastChange = "2015-10-21 15:52:36 +0000";
layers = (
{
hints = (
{
horizontal = 1;
origin = "{0, 0}";
type = Tag;
name = hr00;
}
);
layerId = "E313AEA5-9794-4496-8824-D26DD01CDD19";
name = "Light Italic";
paths = (
{
closed = 1;
nodes = (
"182 677 CURVE",
"120 382 LINE",
"57 382 LINE",
"44 382 OFFCURVE",
"32 373 OFFCURVE",
"30 360 CURVE",
"27 344 LINE",
"25 331 OFFCURVE",
"31 322 OFFCURVE",
"44 322 CURVE",
"107 322 LINE",
"43 22 LINE",
"40 9 OFFCURVE",
"48 0 OFFCURVE",
"61 0 CURVE",
"289 0 LINE",
"488 0 OFFCURVE",
"566 87 OFFCURVE",
"609 271 CURVE SMOOTH",
"623 331 OFFCURVE",
"631 370 OFFCURVE",
"643 430 CURVE SMOOTH",
"677 604 OFFCURVE",
"594 700 OFFCURVE",
"412 700 CURVE",
"209 700 LINE",
"196 700 OFFCURVE",
"185 691 OFFCURVE"
);
},
{
closed = 1;
nodes = (
"579 425 CURVE SMOOTH",
"567 365 OFFCURVE",
"561 336 OFFCURVE",
"547 276 CURVE SMOOTH",
"511 120 OFFCURVE",
"445 60 OFFCURVE",
"286 60 CURVE",
"114 60 LINE",
"170 322 LINE",
"320 322 LINE SMOOTH",
"333 322 OFFCURVE",
"345 331 OFFCURVE",
"347 344 CURVE",
"350 360 LINE",
"352 373 OFFCURVE",
"346 382 OFFCURVE",
"333 382 CURVE",
"183 382 LINE",
"238 640 LINE",
"405 640 LINE",
"565 640 OFFCURVE",
"607 571 OFFCURVE"
);
}
);
width = 684;
},
{
guideLines = (
{
position = "{0, 350}";
}
);
hints = (
{
horizontal = 1;
place = "{9223372036854775808.000000, 0.000000}";
type = Tag;
name = hr00;
}
);
layerId = "8D1576CD-C92F-4A10-BFAA-527F596A391A";
name = "Bold Italic";
paths = (
{
closed = 1;
nodes = (
"34 275 CURVE",
"72 275 LINE",
"19 27 LINE SMOOTH",
"16 12 OFFCURVE",
"26 0 OFFCURVE",
"41 0 CURVE SMOOTH",
"354 0 LINE SMOOTH",
"565 0 OFFCURVE",
"673 87 OFFCURVE",
"721 276 CURVE SMOOTH",
"735 330 OFFCURVE",
"743 368 OFFCURVE",
"753 425 CURVE SMOOTH",
"784 604 OFFCURVE",
"624 700 OFFCURVE",
"457 700 CURVE SMOOTH",
"189 700 LINE SMOOTH",
"174 700 OFFCURVE",
"160 688 OFFCURVE",
"157 673 CURVE SMOOTH",
"105 430 LINE",
"67 430 LINE SMOOTH",
"52 430 OFFCURVE",
"37 418 OFFCURVE",
"34 403 CURVE SMOOTH",
"13 302 LINE SMOOTH",
"10 287 OFFCURVE",
"19 275 OFFCURVE"
);
},
{
closed = 1;
nodes = (
"499 425 CURVE SMOOTH",
"490 370 OFFCURVE",
"482 333 OFFCURVE",
"467 276 CURVE SMOOTH",
"452 220 OFFCURVE",
"414 195 OFFCURVE",
"370 195 CURVE SMOOTH",
"305 195 LINE",
"322 275 LINE",
"378 275 LINE SMOOTH",
"393 275 OFFCURVE",
"408 287 OFFCURVE",
"411 302 CURVE SMOOTH",
"432 403 LINE SMOOTH",
"435 418 OFFCURVE",
"426 430 OFFCURVE",
"411 430 CURVE SMOOTH",
"355 430 LINE",
"371 505 LINE",
"431 505 LINE SMOOTH",
"476 505 OFFCURVE",
"508 481 OFFCURVE"
);
}
);
width = 761;
}
);
leftKerningGroup = I;
rightKerningGroup = D;
unicode = 00D0;
},
{
glyphname = Dcroat;
lastChange = "2015-10-21 15:52:36 +0000";
layers = (
{
hints = (
{
horizontal = 1;
origin = "{0, 0}";
type = Tag;
name = hr00;
}
);
layerId = "E313AEA5-9794-4496-8824-D26DD01CDD19";
name = "Light Italic";
paths = (
{
closed = 1;
nodes = (
"182 677 CURVE",
"120 382 LINE",
"57 382 LINE SMOOTH",
"44 382 OFFCURVE",
"32 373 OFFCURVE",
"30 360 CURVE SMOOTH",
"27 344 LINE SMOOTH",
"25 331 OFFCURVE",
"31 322 OFFCURVE",
"44 322 CURVE SMOOTH",
"107 322 LINE",
"43 22 LINE SMOOTH",
"40 9 OFFCURVE",
"48 0 OFFCURVE",
"61 0 CURVE SMOOTH",
"289 0 LINE SMOOTH",
"488 0 OFFCURVE",
"566 87 OFFCURVE",
"609 271 CURVE SMOOTH",
"623 331 OFFCURVE",
"631 370 OFFCURVE",
"643 430 CURVE SMOOTH",
"677 604 OFFCURVE",
"594 700 OFFCURVE",
"412 700 CURVE SMOOTH",
"209 700 LINE SMOOTH",
"196 700 OFFCURVE",
"185 691 OFFCURVE"
);
},
{
closed = 1;
nodes = (
"579 425 CURVE SMOOTH",
"567 365 OFFCURVE",
"561 336 OFFCURVE",
"547 276 CURVE SMOOTH",
"511 120 OFFCURVE",
"445 60 OFFCURVE",
"286 60 CURVE SMOOTH",
"114 60 LINE",
"170 322 LINE",
"320 322 LINE SMOOTH",
"333 322 OFFCURVE",
"345 331 OFFCURVE",
"347 344 CURVE SMOOTH",
"350 360 LINE SMOOTH",
"352 373 OFFCURVE",
"346 382 OFFCURVE",
"333 382 CURVE SMOOTH",
"183 382 LINE",
"238 640 LINE",
"405 640 LINE SMOOTH",
"565 640 OFFCURVE",
"607 571 OFFCURVE"
);
}
);
width = 684;
},
{
guideLines = (
{
position = "{0, 352}";
}
);
hints = (
{
horizontal = 1;
place = "{9223372036854775808.000000, 0.000000}";
type = Tag;
name = hr00;
}
);
layerId = "8D1576CD-C92F-4A10-BFAA-527F596A391A";
name = "Bold Italic";
paths = (
{
closed = 1;
nodes = (
"34 275 CURVE",
"72 275 LINE",
"19 27 LINE",
"16 12 OFFCURVE",
"26 0 OFFCURVE",
"41 0 CURVE",
"354 0 LINE",
"565 0 OFFCURVE",
"673 87 OFFCURVE",
"721 276 CURVE SMOOTH",
"735 330 OFFCURVE",
"743 368 OFFCURVE",
"753 425 CURVE SMOOTH",
"784 604 OFFCURVE",
"624 700 OFFCURVE",
"457 700 CURVE",
"189 700 LINE",
"174 700 OFFCURVE",
"160 688 OFFCURVE",
"157 673 CURVE",
"105 430 LINE",
"67 430 LINE",
"52 430 OFFCURVE",
"37 418 OFFCURVE",
"34 403 CURVE",
"13 302 LINE",
"10 287 OFFCURVE",
"19 275 OFFCURVE"
);
},
{
closed = 1;
nodes = (
"499 425 CURVE SMOOTH",
"490 370 OFFCURVE",
"482 333 OFFCURVE",
"467 276 CURVE SMOOTH",
"452 220 OFFCURVE",
"414 195 OFFCURVE",
"370 195 CURVE",
"305 195 LINE",
"322 275 LINE",
"378 275 LINE",
"393 275 OFFCURVE",
"408 287 OFFCURVE",
"411 302 CURVE",
"432 403 LINE",
"435 418 OFFCURVE",
"426 430 OFFCURVE",
"411 430 CURVE",
"355 430 LINE",
"371 505 LINE",
"431 505 LINE",
"476 505 OFFCURVE",
"508 481 OFFCURVE"
);
}
);
width = 761;
}
);
leftKerningGroup = I;
rightKerningGroup = D;
unicode = 0110;
},
{
glyphname = E;
lastChange = "2015-10-21 15:52:36 +0000";
layers = (
{
hints = (
{
horizontal = 1;
origin = "{0, 0}";
type = Tag;
name = hr00;
}
);
layerId = "E313AEA5-9794-4496-8824-D26DD01CDD19";
name = "Light Italic";
paths = (
{
closed = 1;
nodes = (
"107 60 LINE",
"164 325 LINE",
"491 325 LINE SMOOTH",
"505 325 OFFCURVE",
"515 334 OFFCURVE",
"518 347 CURVE SMOOTH",
"521 362 LINE SMOOTH",
"524 376 OFFCURVE",
"517 385 OFFCURVE",
"503 385 CURVE SMOOTH",
"176 385 LINE",
"231 640 LINE",
"580 640 LINE SMOOTH",
"594 640 OFFCURVE",
"604 649 OFFCURVE",
"607 662 CURVE SMOOTH",
"610 677 LINE SMOOTH",
"613 691 OFFCURVE",
"606 700 OFFCURVE",
"592 700 CURVE SMOOTH",
"202 700 LINE SMOOTH",
"189 700 OFFCURVE",
"178 691 OFFCURVE",
"175 677 CURVE SMOOTH",
"36 22 LINE SMOOTH",
"33 9 OFFCURVE",
"41 0 OFFCURVE",
"54 0 CURVE SMOOTH",
"452 0 LINE SMOOTH",
"466 0 OFFCURVE",
"476 9 OFFCURVE",
"479 22 CURVE SMOOTH",
"482 37 LINE SMOOTH",
"485 51 OFFCURVE",
"478 60 OFFCURVE",
"464 60 CURVE SMOOTH"
);
}
);
width = 591;
},
{
guideLines = (
{
position = "{0, 350}";
}
);
hints = (
{
horizontal = 1;
place = "{9223372036854775808.000000, 0.000000}";
type = Tag;
name = hr00;
}
);
layerId = "8D1576CD-C92F-4A10-BFAA-527F596A391A";
name = "Bold Italic";
paths = (
{
closed = 1;
nodes = (
"581 195 LINE SMOOTH",
"596 195 OFFCURVE",
"605 183 OFFCURVE",
"602 168 CURVE SMOOTH",
"572 27 LINE SMOOTH",
"569 12 OFFCURVE",
"555 0 OFFCURVE",
"540 0 CURVE SMOOTH",
"19 0 LINE SMOOTH",
"4 0 OFFCURVE",
"-6 12 OFFCURVE",
"-3 27 CURVE SMOOTH",
"135 673 LINE SMOOTH",
"138 688 OFFCURVE",
"152 700 OFFCURVE",
"167 700 CURVE SMOOTH",
"680 700 LINE SMOOTH",
"695 700 OFFCURVE",
"705 688 OFFCURVE",
"702 673 CURVE SMOOTH",
"672 532 LINE SMOOTH",
"668 517 OFFCURVE",
"654 505 OFFCURVE",
"639 505 CURVE SMOOTH",
"339 505 LINE",
"325 442 LINE",
"603 442 LINE SMOOTH",
"618 442 OFFCURVE",
"628 430 OFFCURVE",
"625 415 CURVE SMOOTH",
"597 285 LINE SMOOTH",
"594 270 OFFCURVE",
"579 258 OFFCURVE",
"564 258 CURVE SMOOTH",
"286 258 LINE",
"273 195 LINE"
);
}
);
width = 666;
}
);
leftKerningGroup = I;
rightKerningGroup = E;
unicode = 0045;
},
{
glyphname = Eogonek;
lastChange = "2015-10-21 15:52:36 +0000";
layers = (
{
hints = (
{
horizontal = 1;
origin = "{0, 0}";
type = Tag;
name = hr00;
}
);
layerId = "E313AEA5-9794-4496-8824-D26DD01CDD19";
name = "Light Italic";
paths = (
{
closed = 1;
nodes = (
"107 60 LINE",
"164 325 LINE",
"491 325 LINE SMOOTH",
"505 325 OFFCURVE",
"515 334 OFFCURVE",
"518 347 CURVE SMOOTH",
"521 362 LINE SMOOTH",
"524 376 OFFCURVE",
"517 385 OFFCURVE",
"503 385 CURVE SMOOTH",
"176 385 LINE",
"231 640 LINE",
"580 640 LINE SMOOTH",
"594 640 OFFCURVE",
"604 649 OFFCURVE",
"607 662 CURVE SMOOTH",
"610 677 LINE SMOOTH",
"613 691 OFFCURVE",
"606 700 OFFCURVE",
"592 700 CURVE SMOOTH",
"202 700 LINE SMOOTH",
"189 700 OFFCURVE",
"178 691 OFFCURVE",
"175 677 CURVE SMOOTH",
"36 22 LINE SMOOTH",
"33 9 OFFCURVE",
"41 0 OFFCURVE",
"54 0 CURVE SMOOTH",
"323 0 LINE",
"304 -22 OFFCURVE",
"291 -50 OFFCURVE",
"284 -82 CURVE SMOOTH",
"266 -167 OFFCURVE",
"306 -220 OFFCURVE",
"387 -220 CURVE SMOOTH",
"406 -220 LINE SMOOTH",
"419 -220 OFFCURVE",
"430 -211 OFFCURVE",
"432 -198 CURVE SMOOTH",
"435 -185 LINE SMOOTH",
"438 -172 OFFCURVE",
"431 -163 OFFCURVE",
"418 -163 CURVE SMOOTH",
"403 -163 LINE SMOOTH",
"359 -163 OFFCURVE",
"333 -133 OFFCURVE",
"344 -82 CURVE SMOOTH",
"354 -33 OFFCURVE",
"390 -3 OFFCURVE",
"431 0 CURVE",
"452 0 LINE SMOOTH",
"466 0 OFFCURVE",
"476 9 OFFCURVE",
"479 22 CURVE SMOOTH",
"482 37 LINE SMOOTH",
"485 51 OFFCURVE",
"478 60 OFFCURVE",
"464 60 CURVE SMOOTH"
);
}
);
width = 591;
},
{
guideLines = (
{
position = "{0, -220}";
}
);
hints = (
{
horizontal = 1;
place = "{9223372036854775808.000000, 0.000000}";
type = Tag;
name = hr00;
}
);
layerId = "8D1576CD-C92F-4A10-BFAA-527F596A391A";
name = "Bold Italic";
paths = (
{
closed = 1;
nodes = (
"509 -98 LINE",
"470 -98 OFFCURVE",
"465 -70 OFFCURVE",
"469 -49 CURVE SMOOTH",
"473 -29 OFFCURVE",
"489 -2 OFFCURVE",
"524 0 CURVE",
"540 0 LINE",
"555 0 OFFCURVE",
"569 12 OFFCURVE",
"572 27 CURVE",
"602 168 LINE",
"605 183 OFFCURVE",
"596 195 OFFCURVE",
"581 195 CURVE",
"273 195 LINE",
"286 258 LINE",
"564 258 LINE",
"579 258 OFFCURVE",
"594 270 OFFCURVE",
"597 285 CURVE",
"625 415 LINE",
"628 430 OFFCURVE",
"618 442 OFFCURVE",
"603 442 CURVE",
"325 442 LINE",
"339 505 LINE",
"639 505 LINE",
"654 505 OFFCURVE",
"668 517 OFFCURVE",
"672 532 CURVE",
"702 673 LINE",
"705 688 OFFCURVE",
"695 700 OFFCURVE",
"680 700 CURVE",
"167 700 LINE",
"152 700 OFFCURVE",
"138 688 OFFCURVE",
"135 673 CURVE",
"-3 27 LINE",
"-6 12 OFFCURVE",
"4 0 OFFCURVE",
"19 0 CURVE",
"354 0 LINE",
"349 -12 OFFCURVE",
"346 -25 OFFCURVE",
"343 -39 CURVE SMOOTH",
"323 -134 OFFCURVE",
"368 -220 OFFCURVE",
"489 -220 CURVE",
"493 -220 LINE",
"508 -220 OFFCURVE",
"522 -208 OFFCURVE",
"525 -193 CURVE",
"540 -125 LINE",
"543 -110 OFFCURVE",
"534 -98 OFFCURVE",
"519 -98 CURVE"
);
}
);
width = 666;
}
);
leftKerningGroup = I;
rightKerningGroup = E;
unicode = 0118;
},
{
glyphname = F;
lastChange = "2015-10-21 15:52:36 +0000";
layers = (
{
hints = (
{
horizontal = 1;
origin = "{0, 0}";
type = Tag;
name = hr00;
}
);
layerId = "E313AEA5-9794-4496-8824-D26DD01CDD19";
name = "Light Italic";
paths = (
{
closed = 1;
nodes = (
"202 700 LINE",
"189 700 OFFCURVE",
"178 691 OFFCURVE",
"175 677 CURVE SMOOTH",
"36 22 LINE SMOOTH",
"33 9 OFFCURVE",
"41 0 OFFCURVE",
"54 0 CURVE SMOOTH",
"72 0 LINE SMOOTH",
"86 0 OFFCURVE",
"96 9 OFFCURVE",
"99 22 CURVE SMOOTH",
"161 311 LINE",
"486 311 LINE SMOOTH",
"500 311 OFFCURVE",
"511 320 OFFCURVE",
"513 333 CURVE SMOOTH",
"516 348 LINE SMOOTH",
"519 362 OFFCURVE",
"512 371 OFFCURVE",
"498 371 CURVE SMOOTH",
"173 371 LINE",
"231 640 LINE",
"576 640 LINE SMOOTH",
"590 640 OFFCURVE",
"600 649 OFFCURVE",
"603 662 CURVE SMOOTH",
"606 677 LINE SMOOTH",
"609 691 OFFCURVE",
"602 700 OFFCURVE",
"588 700 CURVE SMOOTH"
);
}
);
width = 573;
},
{
guideLines = (
{
position = "{0, 350}";
},
{
angle = 90;
position = "{591, 0}";
}
);
hints = (
{
horizontal = 1;
place = "{9223372036854775808.000000, 0.000000}";
type = Tag;
name = hr00;
}
);
layerId = "8D1576CD-C92F-4A10-BFAA-527F596A391A";
name = "Bold Italic";
paths = (
{
closed = 1;
nodes = (
"167 700 LINE SMOOTH",
"152 700 OFFCURVE",
"138 688 OFFCURVE",
"135 673 CURVE SMOOTH",
"-3 27 LINE SMOOTH",
"-6 12 OFFCURVE",
"4 0 OFFCURVE",
"19 0 CURVE SMOOTH",
"210 0 LINE SMOOTH",
"225 0 OFFCURVE",
"239 12 OFFCURVE",
"242 27 CURVE SMOOTH",
"282 215 LINE",
"548 215 LINE SMOOTH",
"563 215 OFFCURVE",
"578 227 OFFCURVE",
"581 242 CURVE SMOOTH",
"613 393 LINE SMOOTH",
"616 408 OFFCURVE",
"607 420 OFFCURVE",
"592 420 CURVE SMOOTH",
"326 420 LINE",
"342 494 LINE",
"628 494 LINE SMOOTH",
"643 494 OFFCURVE",
"657 506 OFFCURVE",
"660 521 CURVE SMOOTH",
"693 673 LINE SMOOTH",
"696 688 OFFCURVE",
"686 700 OFFCURVE",
"671 700 CURVE SMOOTH"
);
}
);
width = 646;
}
);
leftKerningGroup = I;
unicode = 0046;
},
{
glyphname = G;
lastChange = "2015-10-21 15:52:36 +0000";
layers = (
{
hints = (
{
horizontal = 1;
origin = "{0, 0}";
type = Tag;
name = hr00;
}
);
layerId = "E313AEA5-9794-4496-8824-D26DD01CDD19";
name = "Light Italic";
paths = (
{
closed = 1;
nodes = (
"416 650 CURVE SMOOTH",
"545 650 OFFCURVE",
"568 587 OFFCURVE",
"575 525 CURVE SMOOTH",
"577 510 OFFCURVE",
"583 505 OFFCURVE",
"595 505 CURVE SMOOTH",
"619 505 LINE SMOOTH",
"632 505 OFFCURVE",
"639 513 OFFCURVE",
"639 525 CURVE SMOOTH",
"641 589 OFFCURVE",
"606 710 OFFCURVE",
"416 710 CURVE SMOOTH",
"235 710 OFFCURVE",
"136 602 OFFCURVE",
"98 445 CURVE SMOOTH",
"83 385 OFFCURVE",
"68 315 OFFCURVE",
"58 255 CURVE SMOOTH",
"30 99 OFFCURVE",
"103 -10 OFFCURVE",
"275 -10 CURVE SMOOTH",
"457 -10 OFFCURVE",
"562 100 OFFCURVE",
"596 260 CURVE",
"614 348 LINE SMOOTH",
"617 362 OFFCURVE",
"610 371 OFFCURVE",
"596 371 CURVE SMOOTH",
"382 371 LINE SMOOTH",
"369 371 OFFCURVE",
"358 362 OFFCURVE",
"355 348 CURVE SMOOTH",
"352 334 LINE SMOOTH",
"350 320 OFFCURVE",
"357 311 OFFCURVE",
"370 311 CURVE SMOOTH",
"544 311 LINE",
"533 260 LINE SMOOTH",
"502 115 OFFCURVE",
"393 50 OFFCURVE",
"275 50 CURVE SMOOTH",
"156 50 OFFCURVE",
"95 110 OFFCURVE",
"122 260 CURVE SMOOTH",
"133 320 OFFCURVE",
"145 380 OFFCURVE",
"160 440 CURVE SMOOTH",
"197 590 OFFCURVE",
"302 650 OFFCURVE"
);
}
);
width = 662;
},
{
guideLines = (
{
position = "{0, 710}";
},
{
position = "{0, -10}";
},
{
position = "{0, 440}";
},
{
position = "{0, 270}";
},
{
angle = 90;
position = "{326, 0}";
},
{
angle = 90;
position = "{670, 0}";
}
);
hints = (
{
horizontal = 1;
place = "{9223372036854775808.000000, 0.000000}";
type = Tag;
name = hr01;
}
);
layerId = "8D1576CD-C92F-4A10-BFAA-527F596A391A";
name = "Bold Italic";
paths = (
{
closed = 1;
nodes = (
"421 515 CURVE SMOOTH",
"470 515 OFFCURVE",
"479 486 OFFCURVE",
"485 476 CURVE SMOOTH",
"489 469 OFFCURVE",
"496 465 OFFCURVE",
"511 465 CURVE SMOOTH",
"732 465 LINE SMOOTH",
"744 465 OFFCURVE",
"756 475 OFFCURVE",
"759 487 CURVE SMOOTH",
"782 608 OFFCURVE",
"633 710 OFFCURVE",
"442 710 CURVE SMOOTH",
"225 710 OFFCURVE",
"114 622 OFFCURVE",
"69 445 CURVE",
"55 388 OFFCURVE",
"40 319 OFFCURVE",
"31 265 CURVE SMOOTH",
"-1 79 OFFCURVE",
"147 -10 OFFCURVE",
"329 -10 CURVE SMOOTH",
"551 -10 OFFCURVE",
"674 85 OFFCURVE",
"712 265 CURVE SMOOTH",
"739 395 LINE SMOOTH",
"743 410 OFFCURVE",
"733 422 OFFCURVE",
"718 422 CURVE SMOOTH",
"443 422 LINE SMOOTH",
"428 422 OFFCURVE",
"414 410 OFFCURVE",
"410 395 CURVE SMOOTH",
"387 284 LINE SMOOTH",
"384 269 OFFCURVE",
"393 257 OFFCURVE",
"408 257 CURVE SMOOTH",
"455 257 LINE",
"444 205 OFFCURVE",
"405 185 OFFCURVE",
"355 185 CURVE SMOOTH",
"306 185 OFFCURVE",
"281 210 OFFCURVE",
"292 270 CURVE",
"302 327 OFFCURVE",
"314 385 OFFCURVE",
"328 440 CURVE",
"341 490 OFFCURVE",
"372 515 OFFCURVE"
);
}
);
width = 753;
}
);
leftKerningGroup = O;
rightKerningGroup = G;
unicode = 0047;
},
{
glyphname = H;
lastChange = "2015-10-21 15:52:36 +0000";
layers = (
{
hints = (
{
horizontal = 1;
origin = "{0, 0}";
type = Tag;
name = hr00;
}
);
layerId = "E313AEA5-9794-4496-8824-D26DD01CDD19";
name = "Light Italic";
paths = (
{
closed = 1;
nodes = (
"651 700 LINE",
"638 700 OFFCURVE",
"627 691 OFFCURVE",
"624 677 CURVE SMOOTH",
"562 385 LINE",
"176 385 LINE",
"238 677 LINE SMOOTH",
"241 691 OFFCURVE",
"234 700 OFFCURVE",
"220 700 CURVE SMOOTH",
"202 700 LINE SMOOTH",
"189 700 OFFCURVE",
"178 691 OFFCURVE",
"175 677 CURVE SMOOTH",
"36 22 LINE SMOOTH",
"33 9 OFFCURVE",
"41 0 OFFCURVE",
"54 0 CURVE SMOOTH",
"72 0 LINE SMOOTH",
"86 0 OFFCURVE",
"96 9 OFFCURVE",
"99 22 CURVE SMOOTH",
"164 325 LINE",
"550 325 LINE",
"485 22 LINE SMOOTH",
"482 9 OFFCURVE",
"490 0 OFFCURVE",
"503 0 CURVE SMOOTH",
"521 0 LINE SMOOTH",
"535 0 OFFCURVE",
"545 9 OFFCURVE",
"548 22 CURVE SMOOTH",
"687 677 LINE SMOOTH",
"690 691 OFFCURVE",
"683 700 OFFCURVE",
"669 700 CURVE SMOOTH"
);
}
);
width = 701;
},
{
guideLines = (
{
position = "{0, 351}";
}
);
hints = (
{
horizontal = 1;
place = "{9223372036854775808.000000, 0.000000}";
type = Tag;
name = hr00;
}
);
layerId = "8D1576CD-C92F-4A10-BFAA-527F596A391A";
name = "Bold Italic";
paths = (
{
closed = 1;
nodes = (
"579 700 LINE SMOOTH",
"564 700 OFFCURVE",
"550 688 OFFCURVE",
"547 673 CURVE SMOOTH",
"502 463 LINE",
"340 463 LINE",
"385 673 LINE SMOOTH",
"388 688 OFFCURVE",
"378 700 OFFCURVE",
"363 700 CURVE SMOOTH",
"167 700 LINE SMOOTH",
"152 700 OFFCURVE",
"138 688 OFFCURVE",
"135 673 CURVE SMOOTH",
"-3 27 LINE SMOOTH",
"-6 11 OFFCURVE",
"4 0 OFFCURVE",
"19 0 CURVE SMOOTH",
"215 0 LINE SMOOTH",
"230 0 OFFCURVE",
"244 12 OFFCURVE",
"247 27 CURVE SMOOTH",
"293 243 LINE",
"455 243 LINE",
"409 27 LINE SMOOTH",
"406 12 OFFCURVE",
"416 0 OFFCURVE",
"431 0 CURVE SMOOTH",
"627 0 LINE SMOOTH",
"642 0 OFFCURVE",
"656 12 OFFCURVE",
"659 27 CURVE SMOOTH",
"797 673 LINE SMOOTH",
"800 688 OFFCURVE",
"790 700 OFFCURVE",
"775 700 CURVE SMOOTH"
);
}
);
width = 771;
}
);
leftKerningGroup = I;
rightKerningGroup = I;
unicode = 0048;
},
{
glyphname = Hbar;
lastChange = "2015-10-21 15:52:36 +0000";
layers = (
{
hints = (
{
horizontal = 1;
origin = "{0, 40}";
type = Tag;
name = hr01;
},
{
horizontal = 1;
origin = "{0, 45}";
type = Tag;
name = hr02;
},
{
horizontal = 1;
origin = "{0, 50}";
type = Tag;
name = hr03;
},
{
horizontal = 1;
origin = "{0, 55}";
type = Tag;
name = hr04;
}
);
layerId = "E313AEA5-9794-4496-8824-D26DD01CDD19";
name = "Light Italic";
paths = (
{
closed = 1;
nodes = (
"100 571 LINE SMOOTH",
"87 571 OFFCURVE",
"76 562 OFFCURVE",
"73 548 CURVE SMOOTH",
"70 533 LINE SMOOTH",
"67 520 OFFCURVE",
"74 511 OFFCURVE",
"87 511 CURVE SMOOTH",
"145 511 LINE",
"41 22 LINE SMOOTH",
"38 9 OFFCURVE",
"46 0 OFFCURVE",
"59 0 CURVE SMOOTH",
"77 0 LINE SMOOTH",
"91 0 OFFCURVE",
"101 9 OFFCURVE",
"104 22 CURVE SMOOTH",
"169 325 LINE",
"555 325 LINE",
"490 22 LINE SMOOTH",
"487 9 OFFCURVE",
"495 0 OFFCURVE",
"508 0 CURVE SMOOTH",
"526 0 LINE SMOOTH",
"540 0 OFFCURVE",
"550 9 OFFCURVE",
"553 22 CURVE SMOOTH",
"657 511 LINE",
"714 511 LINE SMOOTH",
"728 511 OFFCURVE",
"739 520 OFFCURVE",
"742 533 CURVE SMOOTH",
"745 548 LINE SMOOTH",
"748 562 OFFCURVE",
"741 571 OFFCURVE",
"727 571 CURVE SMOOTH",
"670 571 LINE",
"692 677 LINE SMOOTH",
"695 691 OFFCURVE",
"688 700 OFFCURVE",
"674 700 CURVE SMOOTH",
"656 700 LINE SMOOTH",
"643 700 OFFCURVE",
"632 691 OFFCURVE",
"629 677 CURVE SMOOTH",
"607 571 LINE",
"221 571 LINE",
"243 677 LINE SMOOTH",
"246 691 OFFCURVE",
"239 700 OFFCURVE",
"225 700 CURVE SMOOTH",
"207 700 LINE SMOOTH",
"194 700 OFFCURVE",
"183 691 OFFCURVE",
"180 677 CURVE SMOOTH",
"158 571 LINE"
);
},
{
closed = 1;
nodes = (
"181 385 LINE",
"208 511 LINE",
"594 511 LINE",
"567 385 LINE"
);
}
);
width = 710;
},
{
guideLines = (
{
position = "{0, 581}";
}
);
hints = (
{
horizontal = 1;
place = "{9223372036854775808.000000, 0.000000}";
type = Tag;
name = hr01;
},
{
horizontal = 1;
place = "{9223372036854775808.000000, 0.000000}";
type = Tag;
name = hr02;
}
);
layerId = "8D1576CD-C92F-4A10-BFAA-527F596A391A";
name = "Bold Italic";
paths = (
{
closed = 1;
nodes = (
"579 700 LINE",
"564 700 OFFCURVE",
"550 688 OFFCURVE",
"547 673 CURVE SMOOTH",
"540 644 LINE",
"378 644 LINE",
"385 673 LINE SMOOTH",
"388 688 OFFCURVE",
"378 700 OFFCURVE",
"363 700 CURVE SMOOTH",
"167 700 LINE SMOOTH",
"152 700 OFFCURVE",
"138 688 OFFCURVE",
"135 673 CURVE SMOOTH",
"-3 27 LINE SMOOTH",
"-6 11 OFFCURVE",
"4 0 OFFCURVE",
"19 0 CURVE SMOOTH",
"215 0 LINE SMOOTH",
"230 0 OFFCURVE",
"244 12 OFFCURVE",
"247 27 CURVE SMOOTH",
"293 243 LINE",
"455 243 LINE",
"409 27 LINE SMOOTH",
"406 12 OFFCURVE",
"416 0 OFFCURVE",
"431 0 CURVE SMOOTH",
"627 0 LINE SMOOTH",
"642 0 OFFCURVE",
"656 12 OFFCURVE",
"659 27 CURVE SMOOTH",
"797 673 LINE SMOOTH",
"800 688 OFFCURVE",
"790 700 OFFCURVE",
"775 700 CURVE SMOOTH"
);
},
{
closed = 1;
nodes = (
"340 463 LINE",
"352 519 LINE",
"514 519 LINE",
"502 463 LINE"
);
}
);
width = 771;
}
);
leftKerningGroup = I;
rightKerningGroup = I;
unicode = 0126;
},
{
glyphname = I;
lastChange = "2015-10-21 15:52:36 +0000";
layers = (
{
hints = (
{
horizontal = 1;
origin = "{0, 0}";
type = Tag;
name = hr00;
}
);
layerId = "E313AEA5-9794-4496-8824-D26DD01CDD19";
name = "Light Italic";
paths = (
{
closed = 1;
nodes = (
"239 678 LINE",
"241 691 OFFCURVE",
"234 700 OFFCURVE",
"221 700 CURVE SMOOTH",
"202 700 LINE SMOOTH",
"189 700 OFFCURVE",
"178 691 OFFCURVE",
"176 678 CURVE",
"35 22 LINE SMOOTH",
"32 9 OFFCURVE",
"40 0 OFFCURVE",
"53 0 CURVE SMOOTH",
"73 0 LINE SMOOTH",
"86 0 OFFCURVE",
"96 9 OFFCURVE",
"99 22 CURVE SMOOTH"
);
}
);
width = 252;
},
{
guideLines = (
{
angle = 90;
position = "{274, 0}";
},
{
angle = 90;
position = "{26, 0}";
}
);
hints = (
{
horizontal = 1;
place = "{9223372036854775808.000000, 0.000000}";
type = Tag;
name = hr00;
}
);
layerId = "8D1576CD-C92F-4A10-BFAA-527F596A391A";
name = "Bold Italic";
paths = (
{
closed = 1;
nodes = (
"223 0 LINE SMOOTH",
"238 0 OFFCURVE",
"252 12 OFFCURVE",
"255 27 CURVE SMOOTH",
"393 673 LINE SMOOTH",
"396 688 OFFCURVE",
"386 700 OFFCURVE",
"371 700 CURVE SMOOTH",
"167 700 LINE SMOOTH",
"152 700 OFFCURVE",
"138 688 OFFCURVE",
"135 673 CURVE SMOOTH",
"-3 27 LINE SMOOTH",
"-6 12 OFFCURVE",
"4 0 OFFCURVE",
"19 0 CURVE SMOOTH"
);
}
);
width = 367;
}
);
leftKerningGroup = I;
rightKerningGroup = I;
unicode = 0049;
},
{
color = (255,153,153,1);
glyphname = IJ;
lastChange = "2015-10-21 15:52:36 +0000";
layers = (
{
hints = (
{
horizontal = 1;
origin = "{1, 11}";
type = Tag;
name = hr01;
}
);
layerId = "E313AEA5-9794-4496-8824-D26DD01CDD19";
name = "Light Italic";
paths = (
{
closed = 1;
nodes = (
"207 50 CURVE SMOOTH",
"194 50 OFFCURVE",
"183 41 OFFCURVE",
"180 27 CURVE SMOOTH",
"177 12 LINE SMOOTH",
"174 -1 OFFCURVE",
"181 -10 OFFCURVE",
"194 -10 CURVE SMOOTH",
"381 -10 OFFCURVE",
"460 99 OFFCURVE",
"493 255 CURVE SMOOTH",
"582 677 LINE SMOOTH",
"585 691 OFFCURVE",
"578 700 OFFCURVE",
"564 700 CURVE SMOOTH",
"546 700 LINE SMOOTH",
"533 700 OFFCURVE",
"522 691 OFFCURVE",
"520 678 CURVE SMOOTH",
"430 256 LINE SMOOTH",
"404 135 OFFCURVE",
"324 50 OFFCURVE"
);
},
{
closed = 1;
nodes = (
"239 678 LINE SMOOTH",
"241 691 OFFCURVE",
"234 700 OFFCURVE",
"221 700 CURVE SMOOTH",
"202 700 LINE SMOOTH",
"189 700 OFFCURVE",
"178 691 OFFCURVE",
"176 678 CURVE SMOOTH",
"36 22 LINE SMOOTH",
"33 9 OFFCURVE",
"41 0 OFFCURVE",
"54 0 CURVE SMOOTH",
"73 0 LINE SMOOTH",
"86 0 OFFCURVE",
"96 9 OFFCURVE",
"99 22 CURVE SMOOTH"
);
}
);
width = 590;
},
{
hints = (
{
horizontal = 1;
place = "{9223372036854775808.000000, 0.000000}";
type = Tag;
name = hr01;
}
);
layerId = "8D1576CD-C92F-4A10-BFAA-527F596A391A";
name = "Bold Italic";
paths = (
{
closed = 1;
nodes = (
"579 673 CURVE",
"499 298 LINE SMOOTH",
"484 227 OFFCURVE",
"456 205 OFFCURVE",
"400 205 CURVE SMOOTH",
"385 205 OFFCURVE",
"371 193 OFFCURVE",
"367 178 CURVE SMOOTH",
"333 17 LINE SMOOTH",
"330 2 OFFCURVE",
"339 -10 OFFCURVE",
"354 -10 CURVE SMOOTH",
"592 -10 OFFCURVE",
"704 45 OFFCURVE",
"749 258 CURVE SMOOTH",
"838 673 LINE SMOOTH",
"841 688 OFFCURVE",
"831 700 OFFCURVE",
"816 700 CURVE SMOOTH",
"611 700 LINE SMOOTH",
"596 700 OFFCURVE",
"582 688 OFFCURVE"
);
},
{
closed = 1;
nodes = (
"223 0 LINE SMOOTH",
"238 0 OFFCURVE",
"252 12 OFFCURVE",
"255 27 CURVE SMOOTH",
"393 673 LINE SMOOTH",
"396 688 OFFCURVE",
"386 700 OFFCURVE",
"371 700 CURVE SMOOTH",
"167 700 LINE SMOOTH",
"152 700 OFFCURVE",
"138 688 OFFCURVE",
"135 673 CURVE SMOOTH",
"-3 27 LINE SMOOTH",
"-6 12 OFFCURVE",
"4 0 OFFCURVE",
"19 0 CURVE SMOOTH"
);
}
);
width = 807;
}
);
leftKerningGroup = I;
unicode = 0132;
userData = {
com.typemytype.robofont.mark = (
1,
0.6,
0.6,
1
);
};
},
{
glyphname = Iogonek;
lastChange = "2015-10-21 15:52:36 +0000";
layers = (
{
hints = (
{
horizontal = 1;
origin = "{0, 29}";
type = Tag;
name = hr01;
}
);
layerId = "E313AEA5-9794-4496-8824-D26DD01CDD19";
name = "Light Italic";
paths = (
{
closed = 1;
nodes = (
"260 678 LINE",
"262 691 OFFCURVE",
"255 700 OFFCURVE",
"242 700 CURVE",
"223 700 LINE",
"210 700 OFFCURVE",
"199 691 OFFCURVE",
"197 678 CURVE",
"63 55 LINE",
"-7 46 OFFCURVE",
"-62 -5 OFFCURVE",
"-75 -82 CURVE SMOOTH",
"-90 -167 OFFCURVE",
"-30 -220 OFFCURVE",
"41 -220 CURVE",
"47 -220 LINE",
"61 -220 OFFCURVE",
"67 -216 OFFCURVE",
"71 -203 CURVE",
"76 -185 LINE",
"79 -172 OFFCURVE",
"72 -163 OFFCURVE",
"59 -163 CURVE",
"41 -163 LINE",
"7 -163 OFFCURVE",
"-26 -133 OFFCURVE",
"-15 -82 CURVE SMOOTH",
"-5 -33 OFFCURVE",
"37 -3 OFFCURVE",
"79 0 CURVE",
"94 0 LINE",
"107 0 OFFCURVE",
"117 9 OFFCURVE",
"120 22 CURVE"
);
}
);
width = 273;
},
{
hints = (
{
horizontal = 1;
place = "{9223372036854775808.000000, 0.000000}";
type = Tag;
name = hr00;
}
);
layerId = "8D1576CD-C92F-4A10-BFAA-527F596A391A";
name = "Bold Italic";
paths = (
{
closed = 1;
nodes = (
"223 0 LINE",
"238 0 OFFCURVE",
"252 12 OFFCURVE",
"255 27 CURVE",
"393 673 LINE",
"396 688 OFFCURVE",
"386 700 OFFCURVE",
"371 700 CURVE",
"167 700 LINE",
"152 700 OFFCURVE",
"138 688 OFFCURVE",
"135 673 CURVE",
"-3 27 LINE",
"-6 12 OFFCURVE",
"4 0 OFFCURVE",
"19 0 CURVE",
"37 0 LINE",
"32 -12 OFFCURVE",
"29 -25 OFFCURVE",
"26 -39 CURVE SMOOTH",
"6 -134 OFFCURVE",
"51 -220 OFFCURVE",
"172 -220 CURVE",
"176 -220 LINE",
"191 -220 OFFCURVE",
"205 -208 OFFCURVE",
"208 -193 CURVE",
"223 -125 LINE",
"226 -110 OFFCURVE",
"217 -98 OFFCURVE",
"202 -98 CURVE",
"192 -98 LINE",
"153 -98 OFFCURVE",
"148 -70 OFFCURVE",
"152 -49 CURVE SMOOTH",
"156 -29 OFFCURVE",
"172 -2 OFFCURVE",
"207 0 CURVE"
);
}
);
width = 367;
}
);
leftKerningGroup = I;
rightKerningGroup = I;
unicode = 012E;
},
{
glyphname = J;
lastChange = "2015-10-21 15:52:36 +0000";
layers = (
{
hints = (
{
horizontal = 1;
origin = "{0, 0}";
type = Tag;
name = hr00;
}
);
layerId = "E313AEA5-9794-4496-8824-D26DD01CDD19";
name = "Light Italic";
paths = (
{
closed = 1;
nodes = (
"517 255 CURVE",
"606 677 LINE SMOOTH",
"609 691 OFFCURVE",
"602 700 OFFCURVE",
"588 700 CURVE SMOOTH",
"179 700 LINE SMOOTH",
"166 700 OFFCURVE",
"155 691 OFFCURVE",
"153 678 CURVE",
"149 662 LINE SMOOTH",
"146 649 OFFCURVE",
"154 640 OFFCURVE",
"167 640 CURVE SMOOTH",
"535 640 LINE",
"453 256 LINE SMOOTH",
"427 135 OFFCURVE",
"358 50 OFFCURVE",
"226 50 CURVE SMOOTH",
"129 50 OFFCURVE",
"68 91 OFFCURVE",
"82 195 CURVE SMOOTH",
"84 207 OFFCURVE",
"77 216 OFFCURVE",
"64 216 CURVE SMOOTH",
"42 216 LINE SMOOTH",
"28 216 OFFCURVE",
"21 206 OFFCURVE",
"19 194 CURVE SMOOTH",
"0 52 OFFCURVE",
"106 -10 OFFCURVE",
"226 -10 CURVE SMOOTH",
"403 -10 OFFCURVE",
"484 99 OFFCURVE"
);
}
);
width = 614;
},
{
guideLines = (
{
position = "{0, -10}";
},
{
angle = 90;
position = "{349, 0}";
},
{
angle = 90;
position = "{232, 0}";
},
{
angle = 90;
position = "{95, 0}";
}
);
hints = (
{
horizontal = 1;
place = "{9223372036854775808.000000, 0.000000}";
type = Tag;
name = hr00;
}
);
layerId = "8D1576CD-C92F-4A10-BFAA-527F596A391A";
name = "Bold Italic";
paths = (
{
closed = 1;
nodes = (
"730 673 LINE SMOOTH",
"733 688 OFFCURVE",
"723 700 OFFCURVE",
"708 700 CURVE SMOOTH",
"179 700 LINE SMOOTH",
"164 700 OFFCURVE",
"150 688 OFFCURVE",
"147 673 CURVE SMOOTH",
"115 524 LINE SMOOTH",
"112 509 OFFCURVE",
"121 497 OFFCURVE",
"136 497 CURVE SMOOTH",
"433 497 LINE",
"384 266 LINE SMOOTH",
"371 205 OFFCURVE",
"344 185 OFFCURVE",
"308 185 CURVE SMOOTH",
"275 185 OFFCURVE",
"266 198 OFFCURVE",
"258 225 CURVE SMOOTH",
"253 247 OFFCURVE",
"246 257 OFFCURVE",
"224 257 CURVE SMOOTH",
"20 257 LINE SMOOTH",
"8 257 OFFCURVE",
"-4 247 OFFCURVE",
"-7 235 CURVE SMOOTH",
"-37 78 OFFCURVE",
"143 -10 OFFCURVE",
"288 -10 CURVE SMOOTH",
"490 -10 OFFCURVE",
"602 73 OFFCURVE",
"641 258 CURVE SMOOTH"
);
}
);
width = 698;
}
);
leftKerningGroup = J;
rightKerningGroup = U;
unicode = 004A;
},
{
glyphname = K;
lastChange = "2015-10-21 15:52:36 +0000";
layers = (
{
hints = (
{
horizontal = 1;
origin = "{0, 0}";
type = Tag;
name = hr00;
}
);
layerId = "E313AEA5-9794-4496-8824-D26DD01CDD19";
name = "Light Italic";
paths = (
{
closed = 1;
nodes = (
"422 15 LINE SMOOTH",
"426 10 OFFCURVE",
"434 0 OFFCURVE",
"455 0 CURVE",
"473 0 LINE",
"488 0 OFFCURVE",
"501 17 OFFCURVE",
"487 34 CURVE SMOOTH",
"203 365 LINE",
"588 666 LINE SMOOTH",
"600 675 OFFCURVE",
"594 700 OFFCURVE",
"574 700 CURVE",
"556 700 LINE",
"533 700 OFFCURVE",
"521 689 OFFCURVE",
"516 685 CURVE",
"186 427 LINE",
"238 677 LINE",
"241 691 OFFCURVE",
"234 700 OFFCURVE",
"220 700 CURVE",
"200 700 LINE SMOOTH",
"187 700 OFFCURVE",
"178 691 OFFCURVE",
"175 677 CURVE SMOOTH",
"36 22 LINE",
"33 9 OFFCURVE",
"41 0 OFFCURVE",
"54 0 CURVE",
"74 0 LINE",
"88 0 OFFCURVE",
"96 9 OFFCURVE",
"99 22 CURVE",
"162 318 LINE"
);
}
);
width = 562;
},
{
hints = (
{
horizontal = 1;
place = "{9223372036854775808.000000, 0.000000}";
type = Tag;
name = hr00;
}
);
layerId = "8D1576CD-C92F-4A10-BFAA-527F596A391A";
name = "Bold Italic";
paths = (
{
closed = 1;
nodes = (
"517 344 LINE",
"776 667 LINE SMOOTH",
"787 680 OFFCURVE",
"782 700 OFFCURVE",
"764 700 CURVE SMOOTH",
"538 700 LINE SMOOTH",
"516 700 OFFCURVE",
"502 689 OFFCURVE",
"494 678 CURVE",
"337 475 LINE",
"380 673 LINE SMOOTH",
"383 688 OFFCURVE",
"373 700 OFFCURVE",
"358 700 CURVE SMOOTH",
"167 700 LINE SMOOTH",
"152 700 OFFCURVE",
"138 688 OFFCURVE",
"135 673 CURVE SMOOTH",
"-3 27 LINE SMOOTH",
"-6 12 OFFCURVE",
"4 0 OFFCURVE",
"19 0 CURVE SMOOTH",
"210 0 LINE SMOOTH",
"225 0 OFFCURVE",
"239 12 OFFCURVE",
"242 27 CURVE SMOOTH",
"288 241 LINE",
"373 23 LINE",
"378 10 OFFCURVE",
"389 0 OFFCURVE",
"410 0 CURVE SMOOTH",
"623 0 LINE SMOOTH",
"638 0 OFFCURVE",
"657 15 OFFCURVE",
"649 33 CURVE SMOOTH"
);
}
);
width = 712;
}
);
leftKerningGroup = I;
rightKerningGroup = K;
unicode = 004B;
},
{
glyphname = L;
lastChange = "2015-10-21 15:52:36 +0000";
layers = (
{
hints = (
{
horizontal = 1;
origin = "{0, 0}";
type = Tag;
name = hr00;
}
);
layerId = "E313AEA5-9794-4496-8824-D26DD01CDD19";
name = "Light Italic";
paths = (
{
closed = 1;
nodes = (
"239 678 LINE",
"241 691 OFFCURVE",
"234 700 OFFCURVE",
"221 700 CURVE SMOOTH",
"202 700 LINE SMOOTH",
"189 700 OFFCURVE",
"178 691 OFFCURVE",
"176 678 CURVE",
"36 22 LINE SMOOTH",
"33 9 OFFCURVE",
"41 0 OFFCURVE",
"54 0 CURVE SMOOTH",
"440 0 LINE SMOOTH",
"454 0 OFFCURVE",
"464 9 OFFCURVE",
"467 22 CURVE SMOOTH",
"470 37 LINE SMOOTH",
"473 51 OFFCURVE",
"466 60 OFFCURVE",
"452 60 CURVE SMOOTH",
"107 60 LINE"
);
}
);
width = 540;
},
{
hints = (
{
horizontal = 1;
place = "{9223372036854775808.000000, 0.000000}";
type = Tag;
name = hr00;
}
);
layerId = "8D1576CD-C92F-4A10-BFAA-527F596A391A";
name = "Bold Italic";
paths = (
{
closed = 1;
nodes = (
"289 205 LINE",
"389 673 LINE SMOOTH",
"392 688 OFFCURVE",
"382 700 OFFCURVE",
"367 700 CURVE SMOOTH",
"167 700 LINE SMOOTH",
"152 700 OFFCURVE",
"138 688 OFFCURVE",
"135 673 CURVE SMOOTH",
"-3 27 LINE SMOOTH",
"-6 12 OFFCURVE",
"4 0 OFFCURVE",
"19 0 CURVE SMOOTH",
"523 0 LINE SMOOTH",
"538 0 OFFCURVE",
"552 12 OFFCURVE",
"555 27 CURVE SMOOTH",
"587 178 LINE SMOOTH",
"591 193 OFFCURVE",
"581 205 OFFCURVE",
"566 205 CURVE SMOOTH"
);
}
);
width = 623;
}
);
leftKerningGroup = I;
rightKerningGroup = L;
unicode = 004C;
},
{
glyphname = Lcaron;
lastChange = "2015-10-21 15:52:36 +0000";
layers = (
{
components = (
{
name = L;
},
{
name = commaaccent.cap;
transform = "{1, 0, 0, 1, 284, 760}";
}
);
layerId = "E313AEA5-9794-4496-8824-D26DD01CDD19";
name = "Light Italic";
width = 540;
},
{
components = (
{
name = commaaccent.cap;
transform = "{1, 0, 0, 1, 389, 760}";
}
);
hints = (
{
horizontal = 1;
place = "{9223372036854775808.000000, 0.000000}";
type = Tag;
name = hr00;
}
);
layerId = "8D1576CD-C92F-4A10-BFAA-527F596A391A";
name = "Bold Italic";
paths = (
{
closed = 1;
nodes = (
"289 205 LINE",
"389 673 LINE SMOOTH",
"392 688 OFFCURVE",
"382 700 OFFCURVE",
"367 700 CURVE SMOOTH",
"167 700 LINE SMOOTH",
"152 700 OFFCURVE",
"138 688 OFFCURVE",
"135 673 CURVE SMOOTH",
"-3 27 LINE SMOOTH",
"-6 12 OFFCURVE",
"4 0 OFFCURVE",
"19 0 CURVE SMOOTH",
"523 0 LINE SMOOTH",
"538 0 OFFCURVE",
"552 12 OFFCURVE",
"555 27 CURVE SMOOTH",
"587 178 LINE SMOOTH",
"591 193 OFFCURVE",
"581 205 OFFCURVE",
"566 205 CURVE SMOOTH"
);
}
);
width = 630;
}
);
leftKerningGroup = I;
rightKerningGroup = L;
unicode = 013D;
},
{
glyphname = Ldot;
lastChange = "2015-10-21 15:52:36 +0000";
layers = (
{
components = (
{
name = L;
},
{
name = dotaccent;
transform = "{1, 0, 0, 1, 272, -304}";
}
);
guideLines = (
{
angle = 78;
position = "{447, 0}";
}
);
layerId = "E313AEA5-9794-4496-8824-D26DD01CDD19";
name = "Light Italic";
width = 540;
},
{
components = (
{
name = L;
}
);
guideLines = (
{
position = "{0, 400}";
}
);
hints = (
{
horizontal = 1;
place = "{9223372036854775808.000000, 0.000000}";
type = Tag;
name = hr00;
}
);
layerId = "8D1576CD-C92F-4A10-BFAA-527F596A391A";
name = "Bold Italic";
paths = (
{
closed = 1;
nodes = (
"429 491 LINE SMOOTH",
"416 491 OFFCURVE",
"404 481 OFFCURVE",
"401 468 CURVE SMOOTH",
"372 332 LINE SMOOTH",
"369 319 OFFCURVE",
"377 309 OFFCURVE",
"390 309 CURVE SMOOTH",
"526 309 LINE SMOOTH",
"539 309 OFFCURVE",
"551 319 OFFCURVE",
"554 332 CURVE SMOOTH",
"583 468 LINE SMOOTH",
"586 481 OFFCURVE",
"578 491 OFFCURVE",
"565 491 CURVE SMOOTH"
);
}
);
width = 623;
}
);
leftKerningGroup = I;
rightKerningGroup = L;
unicode = 013F;
userData = {
com.typemytype.robofont.guides = (
{
angle = 78;
isGlobal = 0;
magnetic = 5;
x = 447;
y = 0;
}
);
};
},
{
glyphname = Lslash;
lastChange = "2015-10-21 15:52:36 +0000";
layers = (
{
hints = (
{
horizontal = 1;
origin = "{0, 0}";
type = Tag;
name = hr00;
}
);
layerId = "E313AEA5-9794-4496-8824-D26DD01CDD19";
name = "Light Italic";
paths = (
{
closed = 1;
nodes = (
"449 0 LINE SMOOTH",
"462 0 OFFCURVE",
"472 9 OFFCURVE",
"475 22 CURVE SMOOTH",
"479 38 LINE SMOOTH",
"481 51 OFFCURVE",
"474 60 OFFCURVE",
"461 60 CURVE SMOOTH",
"115 60 LINE",
"170 317 LINE",
"338 377 LINE SMOOTH",
"355 383 OFFCURVE",
"362 387 OFFCURVE",
"365 402 CURVE SMOOTH",
"369 421 LINE SMOOTH",
"372 433 OFFCURVE",
"365 439 OFFCURVE",
"354 439 CURVE SMOOTH",
"350 439 OFFCURVE",
"346 438 OFFCURVE",
"340 436 CURVE SMOOTH",
"183 380 LINE",
"247 678 LINE SMOOTH",
"249 691 OFFCURVE",
"242 700 OFFCURVE",
"229 700 CURVE SMOOTH",
"210 700 LINE SMOOTH",
"197 700 OFFCURVE",
"186 691 OFFCURVE",
"184 678 CURVE SMOOTH",
"115 355 LINE",
"41 329 LINE SMOOTH",
"24 323 OFFCURVE",
"17 319 OFFCURVE",
"14 304 CURVE SMOOTH",
"10 285 LINE SMOOTH",
"8 273 OFFCURVE",
"14 267 OFFCURVE",
"25 267 CURVE SMOOTH",
"29 267 OFFCURVE",
"33 268 OFFCURVE",
"39 270 CURVE SMOOTH",
"102 292 LINE",
"44 22 LINE SMOOTH",
"41 9 OFFCURVE",
"49 0 OFFCURVE",
"62 0 CURVE SMOOTH"
);
}
);
width = 548;
},
{
hints = (
{
horizontal = 1;
place = "{9223372036854775808.000000, 0.000000}";
type = Tag;
name = hr00;
}
);
layerId = "8D1576CD-C92F-4A10-BFAA-527F596A391A";
name = "Bold Italic";
paths = (
{
closed = 1;
nodes = (
"52 377 LINE SMOOTH",
"34 371 OFFCURVE",
"26 362 OFFCURVE",
"23 344 CURVE SMOOTH",
"0 236 LINE SMOOTH",
"-3 224 OFFCURVE",
"4 215 OFFCURVE",
"16 215 CURVE SMOOTH",
"18 215 OFFCURVE",
"22 216 OFFCURVE",
"28 218 CURVE SMOOTH",
"47 225 LINE",
"5 27 LINE SMOOTH",
"2 12 OFFCURVE",
"12 0 OFFCURVE",
"27 0 CURVE SMOOTH",
"531 0 LINE SMOOTH",
"546 0 OFFCURVE",
"560 12 OFFCURVE",
"563 27 CURVE SMOOTH",
"595 178 LINE SMOOTH",
"599 193 OFFCURVE",
"589 205 OFFCURVE",
"574 205 CURVE SMOOTH",
"297 205 LINE",
"323 325 LINE",
"491 386 LINE SMOOTH",
"508 392 OFFCURVE",
"516 401 OFFCURVE",
"520 419 CURVE SMOOTH",
"543 527 LINE SMOOTH",
"545 539 OFFCURVE",
"538 548 OFFCURVE",
"526 548 CURVE SMOOTH",
"524 548 OFFCURVE",
"520 547 OFFCURVE",
"514 545 CURVE SMOOTH",
"357 488 LINE",
"397 673 LINE SMOOTH",
"400 688 OFFCURVE",
"390 700 OFFCURVE",
"375 700 CURVE SMOOTH",
"175 700 LINE SMOOTH",
"160 700 OFFCURVE",
"146 688 OFFCURVE",
"143 673 CURVE SMOOTH",
"82 388 LINE"
);
}
);
width = 631;
}
);
leftKerningGroup = I;
rightKerningGroup = L;
unicode = 0141;
},
{
glyphname = M;
lastChange = "2015-10-21 15:52:36 +0000";
layers = (
{
hints = (
{
horizontal = 1;
origin = "{0, 0}";
type = Tag;
name = hr00;
}
);
layerId = "E313AEA5-9794-4496-8824-D26DD01CDD19";
name = "Light Italic";
paths = (
{
closed = 1;
nodes = (
"360 168 LINE",
"344 168 OFFCURVE",
"337 175 OFFCURVE",
"333 188 CURVE",
"217 574 LINE",
"100 22 LINE SMOOTH",
"97 8 OFFCURVE",
"87 0 OFFCURVE",
"74 0 CURVE SMOOTH",
"55 0 LINE SMOOTH",
"41 0 OFFCURVE",
"33 9 OFFCURVE",
"36 22 CURVE SMOOTH",
"175 677 LINE SMOOTH",
"178 691 OFFCURVE",
"189 700 OFFCURVE",
"203 700 CURVE SMOOTH",
"229 700 LINE SMOOTH",
"242 700 OFFCURVE",
"247 691 OFFCURVE",
"248 687 CURVE SMOOTH",
"381 245 LINE",
"703 687 LINE",
"706 691 OFFCURVE",
"713 700 OFFCURVE",
"726 700 CURVE SMOOTH",
"751 700 LINE SMOOTH",
"765 700 OFFCURVE",
"772 691 OFFCURVE",
"769 677 CURVE SMOOTH",
"630 22 LINE SMOOTH",
"627 9 OFFCURVE",
"617 0 OFFCURVE",
"603 0 CURVE SMOOTH",
"584 0 LINE SMOOTH",
"571 0 OFFCURVE",
"563 9 OFFCURVE",
"566 22 CURVE",
"678 548 LINE",
"416 188 LINE SMOOTH",
"407 176 OFFCURVE",
"397 168 OFFCURVE",
"381 168 CURVE"
);
}
);
width = 783;
},
{
hints = (
{
horizontal = 1;
place = "{9223372036854775808.000000, 0.000000}";
type = Tag;
name = hr00;
}
);
layerId = "8D1576CD-C92F-4A10-BFAA-527F596A391A";
name = "Bold Italic";
paths = (
{
closed = 1;
nodes = (
"457 433 LINE",
"653 673 LINE SMOOTH",
"658 680 OFFCURVE",
"674 700 OFFCURVE",
"701 700 CURVE SMOOTH",
"859 700 LINE SMOOTH",
"874 700 OFFCURVE",
"884 688 OFFCURVE",
"881 673 CURVE SMOOTH",
"743 27 LINE SMOOTH",
"740 12 OFFCURVE",
"726 0 OFFCURVE",
"711 0 CURVE SMOOTH",
"530 0 LINE SMOOTH",
"515 0 OFFCURVE",
"505 12 OFFCURVE",
"508 27 CURVE SMOOTH",
"566 301 LINE",
"478 193 LINE SMOOTH",
"468 182 OFFCURVE",
"455 168 OFFCURVE",
"435 168 CURVE SMOOTH",
"365 168 LINE SMOOTH",
"345 168 OFFCURVE",
"338 182 OFFCURVE",
"334 193 CURVE SMOOTH",
"290 301 LINE",
"232 27 LINE SMOOTH",
"229 12 OFFCURVE",
"215 0 OFFCURVE",
"200 0 CURVE SMOOTH",
"19 0 LINE SMOOTH",
"4 0 OFFCURVE",
"-6 12 OFFCURVE",
"-3 27 CURVE SMOOTH",
"135 673 LINE SMOOTH",
"138 688 OFFCURVE",
"152 700 OFFCURVE",
"167 700 CURVE SMOOTH",
"325 700 LINE SMOOTH",
"352 700 OFFCURVE",
"360 680 OFFCURVE",
"363 673 CURVE SMOOTH"
);
}
);
width = 855;
}
);
leftKerningGroup = I;
rightKerningGroup = I;
unicode = 004D;
},
{
glyphname = N;
lastChange = "2015-10-21 15:52:36 +0000";
layers = (
{
hints = (
{
horizontal = 1;
origin = "{0, 0}";
type = Tag;
name = hr00;
}
);
layerId = "E313AEA5-9794-4496-8824-D26DD01CDD19";
name = "Light Italic";
paths = (
{
closed = 1;
nodes = (
"469 12 LINE SMOOTH",
"471 7 OFFCURVE",
"475 0 OFFCURVE",
"488 0 CURVE",
"508 0 LINE",
"521 0 OFFCURVE",
"531 9 OFFCURVE",
"534 23 CURVE",
"673 677 LINE",
"676 691 OFFCURVE",
"669 700 OFFCURVE",
"655 700 CURVE",
"637 700 LINE",
"624 700 OFFCURVE",
"613 691 OFFCURVE",
"610 677 CURVE",
"491 117 LINE",
"240 688 LINE SMOOTH",
"238 693 OFFCURVE",
"234 700 OFFCURVE",
"221 700 CURVE SMOOTH",
"201 700 LINE SMOOTH",
"188 700 OFFCURVE",
"178 691 OFFCURVE",
"175 677 CURVE",
"36 22 LINE SMOOTH",
"33 9 OFFCURVE",
"41 0 OFFCURVE",
"54 0 CURVE SMOOTH",
"73 0 LINE SMOOTH",
"87 0 OFFCURVE",
"97 9 OFFCURVE",
"100 22 CURVE SMOOTH",
"219 581 LINE"
);
}
);
width = 687;
},
{
guideLines = (
{
angle = 90;
position = "{411, 0}";
},
{
angle = 90;
position = "{251, 0}";
}
);
hints = (
{
horizontal = 1;
place = "{9223372036854775808.000000, 0.000000}";
type = Tag;
name = hr00;
}
);
layerId = "8D1576CD-C92F-4A10-BFAA-527F596A391A";
name = "Bold Italic";
paths = (
{
closed = 1;
nodes = (
"562 700 LINE SMOOTH",
"547 700 OFFCURVE",
"533 688 OFFCURVE",
"530 673 CURVE SMOOTH",
"472 400 LINE",
"361 677 LINE SMOOTH",
"359 684 OFFCURVE",
"352 700 OFFCURVE",
"325 700 CURVE SMOOTH",
"167 700 LINE SMOOTH",
"152 700 OFFCURVE",
"138 688 OFFCURVE",
"135 673 CURVE SMOOTH",
"-3 27 LINE SMOOTH",
"-6 12 OFFCURVE",
"4 0 OFFCURVE",
"19 0 CURVE SMOOTH",
"200 0 LINE SMOOTH",
"215 0 OFFCURVE",
"229 12 OFFCURVE",
"232 27 CURVE SMOOTH",
"286 278 LINE",
"400 23 LINE SMOOTH",
"403 17 OFFCURVE",
"410 0 OFFCURVE",
"437 0 CURVE SMOOTH",
"595 0 LINE SMOOTH",
"610 0 OFFCURVE",
"624 12 OFFCURVE",
"627 27 CURVE SMOOTH",
"765 673 LINE SMOOTH",
"768 688 OFFCURVE",
"758 700 OFFCURVE",
"743 700 CURVE SMOOTH"
);
}
);
width = 739;
}
);
leftKerningGroup = I;
rightKerningGroup = I;
unicode = 004E;
},
{
glyphname = Eng;
lastChange = "2015-10-21 15:52:36 +0000";
layers = (
{
hints = (
{
horizontal = 1;
origin = "{0, 0}";
type = Tag;
name = hr00;
}
);
layerId = "E313AEA5-9794-4496-8824-D26DD01CDD19";
name = "Light Italic";
paths = (
{
closed = 1;
nodes = (
"454 -57 LINE SMOOTH",
"443 -118 OFFCURVE",
"418 -165 OFFCURVE",
"345 -165 CURVE",
"337 -165 LINE",
"324 -165 OFFCURVE",
"314 -174 OFFCURVE",
"311 -187 CURVE SMOOTH",
"307 -203 LINE",
"304 -216 OFFCURVE",
"312 -225 OFFCURVE",
"325 -225 CURVE SMOOTH",
"329 -225 LINE SMOOTH",
"464 -225 OFFCURVE",
"496 -151 OFFCURVE",
"516 -57 CURVE SMOOTH",
"672 677 LINE",
"675 691 OFFCURVE",
"668 700 OFFCURVE",
"654 700 CURVE SMOOTH",
"637 700 LINE",
"624 700 OFFCURVE",
"613 691 OFFCURVE",
"610 677 CURVE SMOOTH",
"491 118 LINE",
"240 688 LINE",
"239 691 OFFCURVE",
"234 700 OFFCURVE",
"221 700 CURVE SMOOTH",
"202 700 LINE SMOOTH",
"189 700 OFFCURVE",
"178 691 OFFCURVE",
"175 677 CURVE SMOOTH",
"36 22 LINE SMOOTH",
"33 9 OFFCURVE",
"41 0 OFFCURVE",
"54 0 CURVE SMOOTH",
"72 0 LINE SMOOTH",
"86 0 OFFCURVE",
"96 9 OFFCURVE",
"99 22 CURVE",
"219 581 LINE",
"468 11 LINE"
);
}
);
width = 686;
},
{
guideLines = (
{
position = "{0, 26}";
}
);
hints = (
{
horizontal = 1;
place = "{9223372036854775808.000000, 0.000000}";
type = Tag;
name = hr00;
}
);
layerId = "8D1576CD-C92F-4A10-BFAA-527F596A391A";
name = "Bold Italic";
paths = (
{
closed = 1;
nodes = (
"242 -49 CURVE",
"210 -198 LINE SMOOTH",
"207 -213 OFFCURVE",
"217 -225 OFFCURVE",
"232 -225 CURVE SMOOTH",
"278 -225 LINE SMOOTH",
"480 -225 OFFCURVE",
"591 -145 OFFCURVE",
"627 26 CURVE SMOOTH",
"765 673 LINE SMOOTH",
"768 688 OFFCURVE",
"758 700 OFFCURVE",
"743 700 CURVE SMOOTH",
"562 700 LINE SMOOTH",
"547 700 OFFCURVE",
"533 688 OFFCURVE",
"530 673 CURVE SMOOTH",
"472 400 LINE",
"361 677 LINE",
"359 684 OFFCURVE",
"352 700 OFFCURVE",
"325 700 CURVE SMOOTH",
"167 700 LINE SMOOTH",
"152 700 OFFCURVE",
"138 688 OFFCURVE",
"135 673 CURVE SMOOTH",
"-3 27 LINE SMOOTH",
"-6 12 OFFCURVE",
"4 0 OFFCURVE",
"19 0 CURVE SMOOTH",
"200 0 LINE SMOOTH",
"215 0 OFFCURVE",
"229 12 OFFCURVE",
"232 27 CURVE SMOOTH",
"286 278 LINE",
"394 36 LINE",
"387 2 OFFCURVE",
"358 -22 OFFCURVE",
"315 -22 CURVE SMOOTH",
"275 -22 LINE SMOOTH",
"260 -22 OFFCURVE",
"245 -34 OFFCURVE"
);
}
);
width = 739;
}
);
leftKerningGroup = I;
rightKerningGroup = I;
unicode = 014A;
},
{
glyphname = O;
lastChange = "2015-10-21 15:52:36 +0000";
layers = (
{
hints = (
{
horizontal = 1;
origin = "{0, 0}";
type = Tag;
name = hr00;
}
);
layerId = "E313AEA5-9794-4496-8824-D26DD01CDD19";
name = "Light Italic";
paths = (
{
closed = 1;
nodes = (
"412 710 CURVE SMOOTH",
"254 710 OFFCURVE",
"140 620 OFFCURVE",
"96 434 CURVE SMOOTH",
"81 374 OFFCURVE",
"71 326 OFFCURVE",
"60 266 CURVE SMOOTH",
"25 77 OFFCURVE",
"116 -10 OFFCURVE",
"272 -10 CURVE SMOOTH",
"428 -10 OFFCURVE",
"543 77 OFFCURVE",
"588 266 CURVE SMOOTH",
"603 326 OFFCURVE",
"613 374 OFFCURVE",
"624 434 CURVE SMOOTH",
"658 620 OFFCURVE",
"568 710 OFFCURVE"
);
},
{
closed = 1;
nodes = (
"412 650 CURVE SMOOTH",
"535 650 OFFCURVE",
"588 585 OFFCURVE",
"560 429 CURVE SMOOTH",
"549 369 OFFCURVE",
"541 331 OFFCURVE",
"526 271 CURVE SMOOTH",
"488 115 OFFCURVE",
"391 50 OFFCURVE",
"272 50 CURVE SMOOTH",
"148 50 OFFCURVE",
"96 115 OFFCURVE",
"124 271 CURVE SMOOTH",
"135 331 OFFCURVE",
"143 369 OFFCURVE",
"158 429 CURVE SMOOTH",
"196 585 OFFCURVE",
"291 650 OFFCURVE"
);
}
);
width = 662;
},
{
guideLines = (
{
position = "{0, -10}";
},
{
position = "{0, 710}";
},
{
position = "{0, 515}";
}
);
hints = (
{
horizontal = 1;
place = "{9223372036854775808.000000, 0.000000}";
type = Tag;
name = hr00;
}
);
layerId = "8D1576CD-C92F-4A10-BFAA-527F596A391A";
name = "Bold Italic";
paths = (
{
closed = 1;
nodes = (
"735 436 CURVE SMOOTH",
"765 611 OFFCURVE",
"615 710 OFFCURVE",
"439 710 CURVE SMOOTH",
"223 710 OFFCURVE",
"111 611 OFFCURVE",
"67 436 CURVE SMOOTH",
"53 379 OFFCURVE",
"39 314 OFFCURVE",
"30 260 CURVE SMOOTH",
"0 81 OFFCURVE",
"150 -10 OFFCURVE",
"326 -10 CURVE SMOOTH",
"542 -10 OFFCURVE",
"652 81 OFFCURVE",
"698 260 CURVE SMOOTH",
"711 314 OFFCURVE",
"725 379 OFFCURVE"
);
},
{
closed = 1;
nodes = (
"291 266 CURVE SMOOTH",
"301 323 OFFCURVE",
"313 379 OFFCURVE",
"327 434 CURVE SMOOTH",
"341 490 OFFCURVE",
"375 515 OFFCURVE",
"418 515 CURVE SMOOTH",
"461 515 OFFCURVE",
"485 490 OFFCURVE",
"475 434 CURVE SMOOTH",
"465 379 OFFCURVE",
"453 323 OFFCURVE",
"439 266 CURVE SMOOTH",
"425 210 OFFCURVE",
"392 185 OFFCURVE",
"348 185 CURVE SMOOTH",
"304 185 OFFCURVE",
"281 210 OFFCURVE"
);
}
);
width = 742;
}
);
leftKerningGroup = O;
rightKerningGroup = O;
unicode = 004F;
},
{
glyphname = Oslash;
lastChange = "2015-10-21 15:52:36 +0000";
layers = (
{
hints = (
{
horizontal = 1;
origin = "{0, 0}";
type = Tag;
name = hr00;
}
);
layerId = "E313AEA5-9794-4496-8824-D26DD01CDD19";
name = "Light Italic";
paths = (
{
closed = 1;
nodes = (
"25 267 LINE",
"8 261 OFFCURVE",
"1 257 OFFCURVE",
"-2 242 CURVE",
"-6 223 LINE",
"-10 203 OFFCURVE",
"8 202 OFFCURVE",
"23 208 CURVE",
"64 222 LINE",
"50 63 OFFCURVE",
"138 -10 OFFCURVE",
"282 -10 CURVE SMOOTH",
"438 -10 OFFCURVE",
"553 77 OFFCURVE",
"598 266 CURVE SMOOTH",
"612 323 OFFCURVE",
"622 370 OFFCURVE",
"633 427 CURVE",
"678 443 LINE SMOOTH",
"695 449 OFFCURVE",
"702 453 OFFCURVE",
"705 468 CURVE",
"709 487 LINE SMOOTH",
"713 507 OFFCURVE",
"693 507 OFFCURVE",
"680 502 CURVE",
"640 488 LINE",
"649 637 OFFCURVE",
"562 710 OFFCURVE",
"422 710 CURVE SMOOTH",
"264 710 OFFCURVE",
"150 620 OFFCURVE",
"106 434 CURVE",
"92 380 OFFCURVE",
"83 336 OFFCURVE",
"73 284 CURVE"
);
},
{
closed = 1;
nodes = (
"536 271 CURVE SMOOTH",
"498 115 OFFCURVE",
"401 50 OFFCURVE",
"282 50 CURVE SMOOTH",
"165 50 OFFCURVE",
"112 108 OFFCURVE",
"130 246 CURVE",
"565 402 LINE",
"556 357 OFFCURVE",
"548 321 OFFCURVE"
);
},
{
closed = 1;
nodes = (
"422 650 CURVE SMOOTH",
"535 650 OFFCURVE",
"589 595 OFFCURVE",
"575 464 CURVE",
"141 308 LINE",
"149 349 OFFCURVE",
"156 382 OFFCURVE",
"168 429 CURVE SMOOTH",
"206 585 OFFCURVE",
"301 650 OFFCURVE"
);
}
);
width = 680;
},
{
guideLines = (
{
angle = 78;
position = "{13, 0}";
}
);
hints = (
{
horizontal = 1;
place = "{9223372036854775808.000000, 0.000000}";
type = Tag;
name = hr00;
}
);
layerId = "8D1576CD-C92F-4A10-BFAA-527F596A391A";
name = "Bold Italic";
paths = (
{
closed = 1;
nodes = (
"33 300 LINE",
"16 294 OFFCURVE",
"8 285 OFFCURVE",
"4 267 CURVE",
"-19 159 LINE",
"-21 147 OFFCURVE",
"-14 138 OFFCURVE",
"-2 138 CURVE SMOOTH",
"0 138 OFFCURVE",
"4 139 OFFCURVE",
"9 141 CURVE",
"54 157 LINE",
"85 46 OFFCURVE",
"207 -10 OFFCURVE",
"346 -10 CURVE SMOOTH",
"562 -10 OFFCURVE",
"672 81 OFFCURVE",
"718 260 CURVE SMOOTH",
"729 305 OFFCURVE",
"740 359 OFFCURVE",
"750 409 CURVE",
"772 417 LINE",
"789 423 OFFCURVE",
"797 432 OFFCURVE",
"801 450 CURVE",
"824 558 LINE",
"827 570 OFFCURVE",
"820 579 OFFCURVE",
"808 579 CURVE SMOOTH",
"806 579 OFFCURVE",
"801 578 OFFCURVE",
"796 576 CURVE",
"744 557 LINE",
"704 655 OFFCURVE",
"589 710 OFFCURVE",
"459 710 CURVE SMOOTH",
"243 710 OFFCURVE",
"131 611 OFFCURVE",
"87 436 CURVE SMOOTH",
"77 395 OFFCURVE",
"67 351 OFFCURVE",
"59 309 CURVE"
);
},
{
closed = 1;
nodes = (
"459 266 LINE",
"445 210 OFFCURVE",
"412 185 OFFCURVE",
"368 185 CURVE SMOOTH",
"328 185 OFFCURVE",
"306 205 OFFCURVE",
"309 249 CURVE",
"468 307 LINE"
);
},
{
closed = 1;
nodes = (
"342 412 LINE",
"355 482 OFFCURVE",
"390 515 OFFCURVE",
"438 515 CURVE SMOOTH",
"471 515 OFFCURVE",
"493 500 OFFCURVE",
"497 467 CURVE"
);
}
);
width = 778;
}
);
leftKerningGroup = O;
rightKerningGroup = O;
unicode = 00D8;
},
{
glyphname = OE;
lastChange = "2015-10-21 15:52:36 +0000";
layers = (
{
hints = (
{
horizontal = 1;
origin = "{0, 0}";
type = Tag;
name = hr00;
}
);
layerId = "E313AEA5-9794-4496-8824-D26DD01CDD19";
name = "Light Italic";
paths = (
{
closed = 1;
nodes = (
"454 60 LINE",
"511 325 LINE",
"798 325 LINE",
"812 325 OFFCURVE",
"822 334 OFFCURVE",
"825 347 CURVE",
"828 362 LINE",
"831 376 OFFCURVE",
"824 385 OFFCURVE",
"810 385 CURVE",
"523 385 LINE",
"578 640 LINE",
"887 640 LINE",
"901 640 OFFCURVE",
"911 649 OFFCURVE",
"914 662 CURVE",
"917 677 LINE",
"920 691 OFFCURVE",
"913 700 OFFCURVE",
"899 700 CURVE",
"417 700 LINE",
"218 700 OFFCURVE",
"140 613 OFFCURVE",
"97 429 CURVE SMOOTH",
"83 369 OFFCURVE",
"75 330 OFFCURVE",
"63 270 CURVE SMOOTH",
"29 96 OFFCURVE",
"112 0 OFFCURVE",
"294 0 CURVE",
"759 0 LINE",
"773 0 OFFCURVE",
"783 9 OFFCURVE",
"786 22 CURVE",
"789 37 LINE",
"792 51 OFFCURVE",
"785 60 OFFCURVE",
"771 60 CURVE"
);
},
{
closed = 1;
nodes = (
"127 275 CURVE SMOOTH",
"139 335 OFFCURVE",
"145 364 OFFCURVE",
"159 424 CURVE SMOOTH",
"195 580 OFFCURVE",
"261 640 OFFCURVE",
"420 640 CURVE",
"515 640 LINE",
"391 60 LINE",
"301 60 LINE",
"141 60 OFFCURVE",
"99 129 OFFCURVE"
);
}
);
width = 897;
},
{
guideLines = (
{
angle = 90;
position = "{362, 0}";
},
{
angle = 90;
position = "{-12, 0}";
}
);
hints = (
{
horizontal = 1;
place = "{9223372036854775808.000000, 0.000000}";
type = Tag;
name = hr00;
}
);
layerId = "8D1576CD-C92F-4A10-BFAA-527F596A391A";
name = "Bold Italic";
paths = (
{
closed = 1;
nodes = (
"875 0 LINE",
"890 0 OFFCURVE",
"904 12 OFFCURVE",
"907 27 CURVE",
"937 168 LINE",
"940 183 OFFCURVE",
"931 195 OFFCURVE",
"916 195 CURVE",
"628 195 LINE",
"641 258 LINE",
"899 258 LINE",
"914 258 OFFCURVE",
"929 270 OFFCURVE",
"932 285 CURVE",
"960 415 LINE",
"963 430 OFFCURVE",
"953 442 OFFCURVE",
"938 442 CURVE",
"680 442 LINE",
"694 505 LINE",
"974 505 LINE",
"989 505 OFFCURVE",
"1003 517 OFFCURVE",
"1007 532 CURVE",
"1037 673 LINE",
"1040 688 OFFCURVE",
"1030 700 OFFCURVE",
"1015 700 CURVE",
"435 700 LINE",
"228 700 OFFCURVE",
"108 604 OFFCURVE",
"63 425 CURVE SMOOTH",
"49 368 OFFCURVE",
"41 330 OFFCURVE",
"31 276 CURVE SMOOTH",
"-1 87 OFFCURVE",
"151 0 OFFCURVE",
"322 0 CURVE"
);
},
{
closed = 1;
nodes = (
"317 425 CURVE SMOOTH",
"332 481 OFFCURVE",
"374 505 OFFCURVE",
"419 505 CURVE",
"455 505 LINE",
"389 195 LINE",
"348 195 LINE",
"304 195 OFFCURVE",
"276 220 OFFCURVE",
"285 276 CURVE SMOOTH",
"294 333 OFFCURVE",
"302 370 OFFCURVE"
);
}
);
width = 1001;
}
);
leftKerningGroup = O;
rightKerningGroup = E;
unicode = 0152;
},
{
glyphname = P;
lastChange = "2015-10-21 15:52:36 +0000";
layers = (
{
hints = (
{
horizontal = 1;
origin = "{0, 0}";
type = Tag;
name = hr00;
}
);
layerId = "E313AEA5-9794-4496-8824-D26DD01CDD19";
name = "Light Italic";
paths = (
{
closed = 1;
nodes = (
"202 700 LINE SMOOTH",
"189 700 OFFCURVE",
"178 691 OFFCURVE",
"175 677 CURVE SMOOTH",
"36 22 LINE SMOOTH",
"33 9 OFFCURVE",
"41 0 OFFCURVE",
"54 0 CURVE SMOOTH",
"72 0 LINE SMOOTH",
"86 0 OFFCURVE",
"96 9 OFFCURVE",
"99 22 CURVE SMOOTH",
"155 286 LINE",
"363 286 LINE SMOOTH",
"506 286 OFFCURVE",
"602 357 OFFCURVE",
"631 493 CURVE SMOOTH",
"660 629 OFFCURVE",
"587 700 OFFCURVE",
"440 700 CURVE SMOOTH"
);
},
{
closed = 1;
nodes = (
"231 640 LINE",
"433 640 LINE SMOOTH",
"569 640 OFFCURVE",
"588 588 OFFCURVE",
"568 493 CURVE SMOOTH",
"548 398 OFFCURVE",
"467 346 OFFCURVE",
"358 346 CURVE SMOOTH",
"168 346 LINE"
);
}
);
width = 629;
},
{
guideLines = (
{
position = "{0, 459}";
},
{
angle = 90;
position = "{341, 0}";
}
);
hints = (
{
horizontal = 1;
place = "{9223372036854775808.000000, 0.000000}";
type = Tag;
name = hr00;
}
);
layerId = "8D1576CD-C92F-4A10-BFAA-527F596A391A";
name = "Bold Italic";
paths = (
{
closed = 1;
nodes = (
"167 700 LINE SMOOTH",
"152 700 OFFCURVE",
"138 688 OFFCURVE",
"135 673 CURVE SMOOTH",
"-3 27 LINE SMOOTH",
"-6 12 OFFCURVE",
"4 0 OFFCURVE",
"19 0 CURVE SMOOTH",
"225 0 LINE SMOOTH",
"240 0 OFFCURVE",
"254 12 OFFCURVE",
"257 27 CURVE SMOOTH",
"298 218 LINE",
"388 218 LINE SMOOTH",
"579 218 OFFCURVE",
"684 289 OFFCURVE",
"719 455 CURVE SMOOTH",
"754 621 OFFCURVE",
"621 700 OFFCURVE",
"450 700 CURVE SMOOTH"
);
},
{
closed = 1;
nodes = (
"356 514 LINE",
"426 514 LINE SMOOTH",
"462 514 OFFCURVE",
"465 482 OFFCURVE",
"460 457 CURVE SMOOTH",
"451 418 OFFCURVE",
"423 403 OFFCURVE",
"402 403 CURVE SMOOTH",
"332 403 LINE"
);
}
);
width = 705;
}
);
leftKerningGroup = I;
unicode = 0050;
},
{
glyphname = Thorn;
lastChange = "2015-10-21 15:52:36 +0000";
layers = (
{
hints = (
{
horizontal = 1;
origin = "{0, 0}";
type = Tag;
name = hr00;
}
);
layerId = "E313AEA5-9794-4496-8824-D26DD01CDD19";
name = "Light Italic";
paths = (
{
closed = 1;
nodes = (
"333 143 LINE",
"476 143 OFFCURVE",
"572 214 OFFCURVE",
"601 350 CURVE SMOOTH",
"630 486 OFFCURVE",
"557 557 OFFCURVE",
"410 557 CURVE",
"213 557 LINE",
"239 678 LINE",
"241 691 OFFCURVE",
"234 700 OFFCURVE",
"221 700 CURVE",
"202 700 LINE",
"189 700 OFFCURVE",
"178 691 OFFCURVE",
"176 678 CURVE",
"36 22 LINE",
"33 9 OFFCURVE",
"41 0 OFFCURVE",
"54 0 CURVE",
"72 0 LINE",
"86 0 OFFCURVE",
"96 9 OFFCURVE",
"99 22 CURVE",
"125 143 LINE"
);
},
{
closed = 1;
nodes = (
"200 497 LINE",
"403 497 LINE",
"539 497 OFFCURVE",
"558 445 OFFCURVE",
"538 350 CURVE SMOOTH",
"518 255 OFFCURVE",
"437 203 OFFCURVE",
"328 203 CURVE",
"138 203 LINE"
);
}
);
width = 633;
},
{
guideLines = (
{
position = "{0, 119}";
},
{
position = "{0, 601}";
},
{
position = "{0, 350}";
}
);
hints = (
{
horizontal = 1;
place = "{9223372036854775808.000000, 0.000000}";
type = Tag;
name = hr00;
}
);
layerId = "8D1576CD-C92F-4A10-BFAA-527F596A391A";
name = "Bold Italic";
paths = (
{
closed = 1;
nodes = (
"277 119 LINE",
"367 119 LINE",
"558 119 OFFCURVE",
"663 190 OFFCURVE",
"698 356 CURVE SMOOTH",
"733 522 OFFCURVE",
"600 601 OFFCURVE",
"429 601 CURVE",
"379 601 LINE",
"395 673 LINE",
"398 688 OFFCURVE",
"388 700 OFFCURVE",
"373 700 CURVE",
"167 700 LINE",
"152 700 OFFCURVE",
"138 688 OFFCURVE",
"135 673 CURVE",
"-3 27 LINE",
"-6 12 OFFCURVE",
"4 0 OFFCURVE",
"19 0 CURVE",
"225 0 LINE",
"240 0 OFFCURVE",
"254 12 OFFCURVE",
"257 27 CURVE",
"276 118 LINE"
);
},
{
closed = 1;
nodes = (
"335 415 LINE",
"405 415 LINE",
"441 415 OFFCURVE",
"444 383 OFFCURVE",
"439 358 CURVE SMOOTH",
"430 319 OFFCURVE",
"402 304 OFFCURVE",
"381 304 CURVE",
"311 304 LINE"
);
}
);
width = 704;
}
);
leftKerningGroup = I;
unicode = 00DE;
},
{
glyphname = Q;
lastChange = "2015-10-21 15:52:36 +0000";
layers = (
{
hints = (
{
horizontal = 1;
origin = "{0, 26}";
type = Tag;
name = hr01;
}
);
layerId = "E313AEA5-9794-4496-8824-D26DD01CDD19";
name = "Light Italic";
paths = (
{
closed = 1;
nodes = (
"446 -42 LINE",
"452 -54 OFFCURVE",
"461 -65 OFFCURVE",
"476 -65 CURVE",
"500 -65 LINE",
"516 -65 OFFCURVE",
"525 -47 OFFCURVE",
"517 -33 CURVE",
"471 57 LINE",
"525 102 OFFCURVE",
"565 171 OFFCURVE",
"588 266 CURVE SMOOTH",
"603 326 OFFCURVE",
"613 374 OFFCURVE",
"624 434 CURVE SMOOTH",
"658 620 OFFCURVE",
"568 710 OFFCURVE",
"412 710 CURVE SMOOTH",
"254 710 OFFCURVE",
"140 620 OFFCURVE",
"96 434 CURVE SMOOTH",
"81 374 OFFCURVE",
"71 326 OFFCURVE",
"60 266 CURVE SMOOTH",
"25 77 OFFCURVE",
"116 -10 OFFCURVE",
"272 -10 CURVE SMOOTH",
"324 -10 OFFCURVE",
"372 0 OFFCURVE",
"414 20 CURVE"
);
},
{
closed = 1;
nodes = (
"412 650 CURVE SMOOTH",
"535 650 OFFCURVE",
"588 585 OFFCURVE",
"560 429 CURVE SMOOTH",
"549 369 OFFCURVE",
"541 331 OFFCURVE",
"526 271 CURVE SMOOTH",
"488 115 OFFCURVE",
"391 50 OFFCURVE",
"272 50 CURVE SMOOTH",
"148 50 OFFCURVE",
"96 115 OFFCURVE",
"124 271 CURVE SMOOTH",
"135 331 OFFCURVE",
"143 369 OFFCURVE",
"158 429 CURVE SMOOTH",
"196 585 OFFCURVE",
"291 650 OFFCURVE"
);
}
);
width = 662;
},
{
guideLines = (
{
position = "{0, 710}";
},
{
position = "{0, -10}";
},
{
position = "{0, -42}";
},
{
angle = 90;
position = "{-11, 0}";
},
{
angle = 90;
position = "{657, 0}";
}
);
hints = (
{
horizontal = 1;
place = "{9223372036854775808.000000, 0.000000}";
type = Tag;
name = hr01;
},
{
horizontal = 1;
place = "{9223372036854775808.000000, 0.000000}";
type = Tag;
name = hr02;
}
);
layerId = "8D1576CD-C92F-4A10-BFAA-527F596A391A";
name = "Bold Italic";
paths = (
{
closed = 1;
nodes = (
"735 436 CURVE SMOOTH",
"765 611 OFFCURVE",
"615 710 OFFCURVE",
"439 710 CURVE SMOOTH",
"223 710 OFFCURVE",
"111 611 OFFCURVE",
"67 436 CURVE SMOOTH",
"53 379 OFFCURVE",
"39 314 OFFCURVE",
"30 260 CURVE SMOOTH",
"0 81 OFFCURVE",
"150 -10 OFFCURVE",
"326 -10 CURVE SMOOTH",
"340 -10 OFFCURVE",
"353 -9 OFFCURVE",
"366 -9 CURVE",
"386 -42 LINE",
"390 -50 OFFCURVE",
"398 -65 OFFCURVE",
"423 -65 CURVE",
"619 -65 LINE",
"631 -65 OFFCURVE",
"643 -55 OFFCURVE",
"643 -43 CURVE",
"644 -40 OFFCURVE",
"643 -36 OFFCURVE",
"642 -34 CURVE",
"591 70 LINE",
"642 115 OFFCURVE",
"677 178 OFFCURVE",
"698 260 CURVE SMOOTH",
"711 314 OFFCURVE",
"725 379 OFFCURVE"
);
},
{
closed = 1;
nodes = (
"291 266 CURVE SMOOTH",
"301 323 OFFCURVE",
"313 379 OFFCURVE",
"327 434 CURVE SMOOTH",
"341 490 OFFCURVE",
"375 515 OFFCURVE",
"418 515 CURVE SMOOTH",
"461 515 OFFCURVE",
"485 490 OFFCURVE",
"475 434 CURVE SMOOTH",
"465 379 OFFCURVE",
"453 323 OFFCURVE",
"439 266 CURVE SMOOTH",
"425 210 OFFCURVE",
"392 185 OFFCURVE",
"348 185 CURVE SMOOTH",
"304 185 OFFCURVE",
"281 210 OFFCURVE"
);
}
);
width = 742;
}
);
leftKerningGroup = O;
rightKerningGroup = O;
unicode = 0051;
},
{
glyphname = R;
lastChange = "2015-10-21 15:52:36 +0000";
layers = (
{
hints = (
{
horizontal = 1;
origin = "{0, 0}";
type = Tag;
name = hr00;
}
);
layerId = "E313AEA5-9794-4496-8824-D26DD01CDD19";
name = "Light Italic";
paths = (
{
closed = 1;
nodes = (
"471 15 LINE SMOOTH",
"475 4 OFFCURVE",
"485 0 OFFCURVE",
"494 0 CURVE SMOOTH",
"516 0 LINE SMOOTH",
"531 0 OFFCURVE",
"541 13 OFFCURVE",
"533 33 CURVE SMOOTH",
"431 305 LINE",
"536 330 OFFCURVE",
"600 391 OFFCURVE",
"622 498 CURVE SMOOTH",
"651 634 OFFCURVE",
"571 700 OFFCURVE",
"435 700 CURVE SMOOTH",
"202 700 LINE SMOOTH",
"189 700 OFFCURVE",
"178 691 OFFCURVE",
"175 677 CURVE SMOOTH",
"36 22 LINE",
"33 9 OFFCURVE",
"41 0 OFFCURVE",
"54 0 CURVE SMOOTH",
"72 0 LINE SMOOTH",
"86 0 OFFCURVE",
"96 9 OFFCURVE",
"99 22 CURVE SMOOTH",
"157 296 LINE",
"364 296 LINE"
);
},
{
closed = 1;
nodes = (
"231 640 LINE",
"423 640 LINE SMOOTH",
"544 640 OFFCURVE",
"580 593 OFFCURVE",
"559 498 CURVE SMOOTH",
"539 403 OFFCURVE",
"450 356 OFFCURVE",
"344 356 CURVE SMOOTH",
"170 356 LINE"
);
}
);
width = 641;
},
{
guideLines = (
{
angle = 90;
position = "{339, 0}";
},
{
angle = 90;
position = "{645, 0}";
}
);
hints = (
{
horizontal = 1;
place = "{9223372036854775808.000000, 0.000000}";
type = Tag;
name = hr00;
}
);
layerId = "8D1576CD-C92F-4A10-BFAA-527F596A391A";
name = "Bold Italic";
paths = (
{
closed = 1;
nodes = (
"568 261 LINE",
"639 301 OFFCURVE",
"699 367 OFFCURVE",
"718 457 CURVE SMOOTH",
"750 608 OFFCURVE",
"645 700 OFFCURVE",
"453 700 CURVE SMOOTH",
"167 700 LINE SMOOTH",
"152 700 OFFCURVE",
"138 688 OFFCURVE",
"135 673 CURVE SMOOTH",
"-3 27 LINE SMOOTH",
"-6 12 OFFCURVE",
"4 0 OFFCURVE",
"19 0 CURVE SMOOTH",
"215 0 LINE SMOOTH",
"230 0 OFFCURVE",
"244 12 OFFCURVE",
"247 27 CURVE SMOOTH",
"288 218 LINE",
"329 218 LINE",
"374 27 LINE SMOOTH",
"376 18 OFFCURVE",
"385 0 OFFCURVE",
"412 0 CURVE SMOOTH",
"617 0 LINE SMOOTH",
"629 0 OFFCURVE",
"641 10 OFFCURVE",
"643 22 CURVE SMOOTH",
"644 27 OFFCURVE",
"644 29 OFFCURVE",
"643 33 CURVE SMOOTH"
);
},
{
closed = 1;
nodes = (
"351 514 LINE",
"424 514 LINE SMOOTH",
"457 514 OFFCURVE",
"464 485 OFFCURVE",
"458 459 CURVE SMOOTH",
"452 432 OFFCURVE",
"432 408 OFFCURVE",
"401 408 CURVE SMOOTH",
"328 408 LINE"
);
}
);
width = 720;
}
);
leftKerningGroup = I;
rightKerningGroup = R;
unicode = 0052;
},
{
glyphname = S;
lastChange = "2015-10-21 15:52:36 +0000";
layers = (
{
guideLines = (
{
angle = 90;
position = "{288, 0}";
}
);
hints = (
{
horizontal = 1;
origin = "{0, 0}";
type = Tag;
name = hr00;
}
);
layerId = "E313AEA5-9794-4496-8824-D26DD01CDD19";
name = "Light Italic";
paths = (
{
closed = 1;
nodes = (
"379 710 CURVE SMOOTH",
"231 710 OFFCURVE",
"141 639 OFFCURVE",
"119 538 CURVE SMOOTH",
"96 428 OFFCURVE",
"147 379 OFFCURVE",
"280 333 CURVE SMOOTH",
"419 285 OFFCURVE",
"483 260 OFFCURVE",
"466 181 CURVE SMOOTH",
"449 101 OFFCURVE",
"374 50 OFFCURVE",
"244 50 CURVE SMOOTH",
"124 50 OFFCURVE",
"79 114 OFFCURVE",
"83 170 CURVE",
"83 181 OFFCURVE",
"78 190 OFFCURVE",
"65 190 CURVE SMOOTH",
"41 190 LINE SMOOTH",
"29 190 OFFCURVE",
"21 181 OFFCURVE",
"20 170 CURVE SMOOTH",
"9 75 OFFCURVE",
"82 -10 OFFCURVE",
"244 -10 CURVE SMOOTH",
"399 -10 OFFCURVE",
"501 52 OFFCURVE",
"527 173 CURVE SMOOTH",
"550 283 OFFCURVE",
"489 329 OFFCURVE",
"350 377 CURVE SMOOTH",
"216 423 OFFCURVE",
"162 450 OFFCURVE",
"179 530 CURVE SMOOTH",
"197 612 OFFCURVE",
"280 650 OFFCURVE",
"379 650 CURVE SMOOTH",
"467 650 OFFCURVE",
"527 601 OFFCURVE",
"521 535 CURVE SMOOTH",
"520 519 OFFCURVE",
"532 515 OFFCURVE",
"539 515 CURVE SMOOTH",
"563 515 LINE SMOOTH",
"577 515 OFFCURVE",
"582 525 OFFCURVE",
"584 535 CURVE SMOOTH",
"598 612 OFFCURVE",
"537 710 OFFCURVE"
);
}
);
width = 602;
},
{
guideLines = (
{
position = "{0, 710}";
},
{
position = "{0, -10}";
},
{
position = "{0, 487}";
},
{
position = "{0, 226}";
},
{
angle = 90;
position = "{-1304, 0}";
}
);
hints = (
{
horizontal = 1;
place = "{9223372036854775808.000000, 0.000000}";
type = Tag;
name = hr01;
},
{
horizontal = 1;
place = "{9223372036854775808.000000, 0.000000}";
type = Tag;
name = hr02;
}
);
layerId = "8D1576CD-C92F-4A10-BFAA-527F596A391A";
name = "Bold Italic";
paths = (
{
closed = 1;
nodes = (
"407 710 CURVE SMOOTH",
"225 710 OFFCURVE",
"104 630 OFFCURVE",
"76 494 CURVE SMOOTH",
"47 361 OFFCURVE",
"131 281 OFFCURVE",
"285 260 CURVE SMOOTH",
"381 247 OFFCURVE",
"409 237 OFFCURVE",
"404 213 CURVE SMOOTH",
"400 195 OFFCURVE",
"368 185 OFFCURVE",
"323 185 CURVE SMOOTH",
"290 185 OFFCURVE",
"270 193 OFFCURVE",
"254 208 CURVE SMOOTH",
"242 219 OFFCURVE",
"235 225 OFFCURVE",
"214 225 CURVE SMOOTH",
"24 225 LINE SMOOTH",
"12 225 OFFCURVE",
"0 215 OFFCURVE",
"-2 203 CURVE SMOOTH",
"-23 92 OFFCURVE",
"80 -10 OFFCURVE",
"301 -10 CURVE SMOOTH",
"510 -10 OFFCURVE",
"632 66 OFFCURVE",
"663 212 CURVE SMOOTH",
"690 342 OFFCURVE",
"629 419 OFFCURVE",
"434 444 CURVE SMOOTH",
"346 455 OFFCURVE",
"328 468 OFFCURVE",
"332 487 CURVE SMOOTH",
"336 504 OFFCURVE",
"352 515 OFFCURVE",
"386 515 CURVE SMOOTH",
"414 515 OFFCURVE",
"429 503 OFFCURVE",
"435 497 CURVE SMOOTH",
"445 486 OFFCURVE",
"453 481 OFFCURVE",
"472 481 CURVE SMOOTH",
"672 481 LINE SMOOTH",
"683 481 OFFCURVE",
"695 491 OFFCURVE",
"697 503 CURVE SMOOTH",
"713 590 OFFCURVE",
"587 710 OFFCURVE"
);
}
);
width = 698;
}
);
leftKerningGroup = S;
rightKerningGroup = S;
unicode = 0053;
userData = {
com.typemytype.robofont.guides = (
{
angle = 90;
isGlobal = 0;
magnetic = 5;
x = 288;
y = 0;
}
);
};
},
{
glyphname = Scedilla;
lastChange = "2015-10-21 15:52:36 +0000";
layers = (
{
hints = (
{
horizontal = 1;
origin = "{0, 0}";
type = Tag;
name = hr00;
}
);
layerId = "E313AEA5-9794-4496-8824-D26DD01CDD19";
name = "Light Italic";
paths = (
{
closed = 1;
nodes = (
"379 710 CURVE SMOOTH",
"231 710 OFFCURVE",
"141 639 OFFCURVE",
"119 538 CURVE SMOOTH",
"96 428 OFFCURVE",
"147 379 OFFCURVE",
"280 333 CURVE SMOOTH",
"419 285 OFFCURVE",
"483 260 OFFCURVE",
"466 181 CURVE SMOOTH",
"449 101 OFFCURVE",
"374 50 OFFCURVE",
"244 50 CURVE SMOOTH",
"124 50 OFFCURVE",
"79 114 OFFCURVE",
"83 170 CURVE",
"83 181 OFFCURVE",
"78 190 OFFCURVE",
"65 190 CURVE",
"41 190 LINE",
"29 190 OFFCURVE",
"21 181 OFFCURVE",
"20 170 CURVE SMOOTH",
"10 85 OFFCURVE",
"67 9 OFFCURVE",
"194 -7 CURVE",
"164 -53 LINE",
"158 -63 OFFCURVE",
"148 -75 OFFCURVE",
"153 -83 CURVE",
"165 -100 LINE",
"177 -116 OFFCURVE",
"194 -96 OFFCURVE",
"226 -96 CURVE SMOOTH",
"249 -96 OFFCURVE",
"266 -110 OFFCURVE",
"261 -134 CURVE SMOOTH",
"256 -159 OFFCURVE",
"233 -174 OFFCURVE",
"210 -174 CURVE SMOOTH",
"163 -174 OFFCURVE",
"162 -142 OFFCURVE",
"145 -156 CURVE",
"129 -169 LINE",
"109 -184 OFFCURVE",
"153 -220 OFFCURVE",
"210 -220 CURVE SMOOTH",
"268 -220 OFFCURVE",
"301 -183 OFFCURVE",
"311 -135 CURVE SMOOTH",
"322 -87 OFFCURVE",
"293 -50 OFFCURVE",
"254 -50 CURVE SMOOTH",
"239 -50 OFFCURVE",
"223 -52 OFFCURVE",
"214 -57 CURVE",
"248 -10 LINE",
"400 -9 OFFCURVE",
"501 53 OFFCURVE",
"527 173 CURVE SMOOTH",
"550 283 OFFCURVE",
"489 329 OFFCURVE",
"350 377 CURVE SMOOTH",
"216 423 OFFCURVE",
"162 450 OFFCURVE",
"179 530 CURVE SMOOTH",
"197 612 OFFCURVE",
"280 650 OFFCURVE",
"379 650 CURVE SMOOTH",
"467 650 OFFCURVE",
"527 601 OFFCURVE",
"521 535 CURVE SMOOTH",
"520 519 OFFCURVE",
"532 515 OFFCURVE",
"539 515 CURVE",
"563 515 LINE",
"577 515 OFFCURVE",
"582 525 OFFCURVE",
"584 535 CURVE SMOOTH",
"598 612 OFFCURVE",
"537 710 OFFCURVE"
);
}
);
width = 602;
},
{
hints = (
{
horizontal = 1;
place = "{9223372036854775808.000000, 0.000000}";
type = Tag;
name = hr01;
}
);
layerId = "8D1576CD-C92F-4A10-BFAA-527F596A391A";
name = "Bold Italic";
paths = (
{
closed = 1;
nodes = (
"407 710 CURVE SMOOTH",
"225 710 OFFCURVE",
"104 630 OFFCURVE",
"76 494 CURVE",
"47 361 OFFCURVE",
"131 281 OFFCURVE",
"285 260 CURVE SMOOTH",
"381 247 OFFCURVE",
"409 237 OFFCURVE",
"404 213 CURVE SMOOTH",
"400 195 OFFCURVE",
"368 185 OFFCURVE",
"323 185 CURVE SMOOTH",
"290 185 OFFCURVE",
"270 193 OFFCURVE",
"254 208 CURVE SMOOTH",
"242 219 OFFCURVE",
"235 225 OFFCURVE",
"214 225 CURVE",
"24 225 LINE",
"12 225 OFFCURVE",
"0 215 OFFCURVE",
"-2 203 CURVE SMOOTH",
"-20 106 OFFCURVE",
"55 16 OFFCURVE",
"221 -5 CURVE",
"197 -42 LINE",
"184 -61 OFFCURVE",
"184 -69 OFFCURVE",
"191 -78 CURVE",
"212 -106 LINE",
"222 -119 OFFCURVE",
"248 -106 OFFCURVE",
"266 -106 CURVE SMOOTH",
"286 -106 OFFCURVE",
"291 -118 OFFCURVE",
"289 -130 CURVE SMOOTH",
"286 -142 OFFCURVE",
"275 -154 OFFCURVE",
"256 -154 CURVE SMOOTH",
"222 -154 OFFCURVE",
"221 -136 OFFCURVE",
"200 -151 CURVE",
"176 -169 LINE",
"148 -189 OFFCURVE",
"199 -220 OFFCURVE",
"252 -220 CURVE SMOOTH",
"312 -220 OFFCURVE",
"348 -188 OFFCURVE",
"359 -135 CURVE SMOOTH",
"370 -82 OFFCURVE",
"349 -40 OFFCURVE",
"298 -40 CURVE SMOOTH",
"294 -40 OFFCURVE",
"276 -42 OFFCURVE",
"267 -45 CURVE",
"292 -10 LINE",
"301 -10 LINE",
"510 -10 OFFCURVE",
"632 66 OFFCURVE",
"663 212 CURVE SMOOTH",
"690 342 OFFCURVE",
"629 419 OFFCURVE",
"434 444 CURVE SMOOTH",
"346 455 OFFCURVE",
"328 468 OFFCURVE",
"332 487 CURVE SMOOTH",
"336 504 OFFCURVE",
"352 515 OFFCURVE",
"386 515 CURVE SMOOTH",
"414 515 OFFCURVE",
"429 503 OFFCURVE",
"435 497 CURVE SMOOTH",
"445 486 OFFCURVE",
"453 481 OFFCURVE",
"472 481 CURVE",
"672 481 LINE",
"683 481 OFFCURVE",
"695 491 OFFCURVE",
"697 503 CURVE SMOOTH",
"713 590 OFFCURVE",
"587 710 OFFCURVE"
);
}
);
width = 698;
}
);
leftKerningGroup = S;
rightKerningGroup = S;
unicode = 015E;
},
{
glyphname = T;
lastChange = "2015-10-21 15:52:36 +0000";
layers = (
{
hints = (
{
horizontal = 1;
origin = "{0, 0}";
type = Tag;
name = hr00;
}
);
layerId = "E313AEA5-9794-4496-8824-D26DD01CDD19";
name = "Light Italic";
paths = (
{
closed = 1;
nodes = (
"131 700 LINE SMOOTH",
"118 700 OFFCURVE",
"107 691 OFFCURVE",
"104 677 CURVE SMOOTH",
"101 662 LINE SMOOTH",
"98 649 OFFCURVE",
"106 640 OFFCURVE",
"119 640 CURVE SMOOTH",
"317 640 LINE",
"185 22 LINE",
"182 9 OFFCURVE",
"190 0 OFFCURVE",
"203 0 CURVE SMOOTH",
"221 0 LINE SMOOTH",
"235 0 OFFCURVE",
"245 9 OFFCURVE",
"248 22 CURVE",
"380 640 LINE",
"577 640 LINE",
"591 640 OFFCURVE",
"601 649 OFFCURVE",
"604 662 CURVE",
"607 677 LINE SMOOTH",
"610 691 OFFCURVE",
"603 700 OFFCURVE",
"589 700 CURVE SMOOTH"
);
}
);
width = 551;
},
{
guideLines = (
{
position = "{0, 495}";
}
);
hints = (
{
horizontal = 1;
place = "{9223372036854775808.000000, 0.000000}";
type = Tag;
name = hr00;
}
);
layerId = "8D1576CD-C92F-4A10-BFAA-527F596A391A";
name = "Bold Italic";
paths = (
{
closed = 1;
nodes = (
"129 700 LINE SMOOTH",
"114 700 OFFCURVE",
"100 688 OFFCURVE",
"97 673 CURVE SMOOTH",
"62 512 LINE SMOOTH",
"59 497 OFFCURVE",
"69 485 OFFCURVE",
"84 485 CURVE SMOOTH",
"250 485 LINE",
"152 27 LINE SMOOTH",
"149 12 OFFCURVE",
"159 0 OFFCURVE",
"174 0 CURVE SMOOTH",
"374 0 LINE SMOOTH",
"389 0 OFFCURVE",
"403 12 OFFCURVE",
"406 27 CURVE SMOOTH",
"504 485 LINE",
"670 485 LINE SMOOTH",
"685 485 OFFCURVE",
"699 497 OFFCURVE",
"702 512 CURVE SMOOTH",
"737 673 LINE SMOOTH",
"740 688 OFFCURVE",
"730 700 OFFCURVE",
"715 700 CURVE SMOOTH"
);
}
);
width = 673;
}
);
leftKerningGroup = T;
rightKerningGroup = T;
unicode = 0054;
},
{
glyphname = Tbar;
lastChange = "2015-10-21 15:52:37 +0000";
layers = (
{
hints = (
{
horizontal = 1;
origin = "{0, 0}";
type = Tag;
name = hr00;
}
);
layerId = "E313AEA5-9794-4496-8824-D26DD01CDD19";
name = "Light Italic";
paths = (
{
closed = 1;
nodes = (
"156 410 LINE SMOOTH",
"143 410 OFFCURVE",
"132 401 OFFCURVE",
"129 387 CURVE",
"126 372 LINE",
"123 359 OFFCURVE",
"130 350 OFFCURVE",
"143 350 CURVE",
"261 350 LINE",
"191 22 LINE SMOOTH",
"188 9 OFFCURVE",
"196 0 OFFCURVE",
"209 0 CURVE SMOOTH",
"227 0 LINE SMOOTH",
"241 0 OFFCURVE",
"251 9 OFFCURVE",
"254 22 CURVE SMOOTH",
"324 350 LINE",
"441 350 LINE",
"455 350 OFFCURVE",
"466 359 OFFCURVE",
"469 372 CURVE SMOOTH",
"472 387 LINE SMOOTH",
"475 401 OFFCURVE",
"468 410 OFFCURVE",
"454 410 CURVE SMOOTH",
"337 410 LINE",
"386 640 LINE",
"583 640 LINE SMOOTH",
"597 640 OFFCURVE",
"607 649 OFFCURVE",
"610 662 CURVE SMOOTH",
"613 677 LINE SMOOTH",
"616 691 OFFCURVE",
"609 700 OFFCURVE",
"595 700 CURVE SMOOTH",
"137 700 LINE SMOOTH",
"124 700 OFFCURVE",
"113 691 OFFCURVE",
"110 677 CURVE SMOOTH",
"107 662 LINE SMOOTH",
"104 649 OFFCURVE",
"112 640 OFFCURVE",
"125 640 CURVE SMOOTH",
"323 640 LINE",
"274 410 LINE"
);
}
);
width = 564;
},
{
guideLines = (
{
position = "{0, 320}";
},
{
angle = 90;
position = "{273, 0}";
}
);
hints = (
{
horizontal = 1;
place = "{9223372036854775808.000000, 0.000000}";
type = Tag;
name = hr00;
}
);
layerId = "8D1576CD-C92F-4A10-BFAA-527F596A391A";
name = "Bold Italic";
paths = (
{
closed = 1;
nodes = (
"132 700 LINE SMOOTH",
"117 700 OFFCURVE",
"103 688 OFFCURVE",
"100 673 CURVE SMOOTH",
"65 512 LINE SMOOTH",
"62 497 OFFCURVE",
"72 485 OFFCURVE",
"87 485 CURVE SMOOTH",
"253 485 LINE",
"231 383 LINE",
"141 383 LINE SMOOTH",
"126 383 OFFCURVE",
"111 371 OFFCURVE",
"108 356 CURVE SMOOTH",
"93 285 LINE SMOOTH",
"90 270 OFFCURVE",
"99 258 OFFCURVE",
"114 258 CURVE SMOOTH",
"204 258 LINE",
"155 27 LINE SMOOTH",
"152 12 OFFCURVE",
"162 0 OFFCURVE",
"177 0 CURVE SMOOTH",
"377 0 LINE SMOOTH",
"392 0 OFFCURVE",
"406 12 OFFCURVE",
"409 27 CURVE SMOOTH",
"458 258 LINE",
"548 258 LINE SMOOTH",
"563 258 OFFCURVE",
"578 270 OFFCURVE",
"581 285 CURVE SMOOTH",
"596 356 LINE SMOOTH",
"599 371 OFFCURVE",
"590 383 OFFCURVE",
"575 383 CURVE SMOOTH",
"485 383 LINE",
"507 485 LINE",
"673 485 LINE SMOOTH",
"688 485 OFFCURVE",
"702 497 OFFCURVE",
"705 512 CURVE SMOOTH",
"740 673 LINE SMOOTH",
"743 688 OFFCURVE",
"733 700 OFFCURVE",
"718 700 CURVE SMOOTH"
);
}
);
width = 680;
}
);
leftKerningGroup = T;
rightKerningGroup = T;
unicode = 0166;
},
{
glyphname = U;
lastChange = "2015-10-21 15:52:37 +0000";
layers = (
{
hints = (
{
horizontal = 1;
origin = "{0, 0}";
type = Tag;
name = hr00;
}
);
layerId = "E313AEA5-9794-4496-8824-D26DD01CDD19";
name = "Light Italic";
paths = (
{
closed = 1;
nodes = (
"534 268 LINE SMOOTH",
"502 118 OFFCURVE",
"415 50 OFFCURVE",
"286 50 CURVE",
"151 50 OFFCURVE",
"113 118 OFFCURVE",
"145 268 CURVE SMOOTH",
"232 677 LINE SMOOTH",
"235 691 OFFCURVE",
"228 700 OFFCURVE",
"214 700 CURVE SMOOTH",
"196 700 LINE SMOOTH",
"183 700 OFFCURVE",
"172 691 OFFCURVE",
"169 677 CURVE SMOOTH",
"83 271 LINE",
"42 77 OFFCURVE",
"114 -10 OFFCURVE",
"286 -10 CURVE",
"459 -10 OFFCURVE",
"557 77 OFFCURVE",
"598 271 CURVE SMOOTH",
"684 677 LINE SMOOTH",
"687 691 OFFCURVE",
"680 700 OFFCURVE",
"667 700 CURVE SMOOTH",
"649 700 LINE SMOOTH",
"635 700 OFFCURVE",
"624 691 OFFCURVE",
"621 677 CURVE SMOOTH"
);
}
);
width = 691;
},
{
guideLines = (
{
position = "{0, -10}";
},
{
position = "{0, 268}";
},
{
angle = 90;
position = "{336, 0}";
}
);
hints = (
{
horizontal = 1;
place = "{9223372036854775808.000000, 0.000000}";
type = Tag;
name = hr00;
}
);
layerId = "8D1576CD-C92F-4A10-BFAA-527F596A391A";
name = "Bold Italic";
paths = (
{
closed = 1;
nodes = (
"558 700 LINE SMOOTH",
"543 700 OFFCURVE",
"529 688 OFFCURVE",
"526 673 CURVE SMOOTH",
"439 268 LINE SMOOTH",
"429 218 OFFCURVE",
"398 191 OFFCURVE",
"349 191 CURVE SMOOTH",
"300 191 OFFCURVE",
"281 218 OFFCURVE",
"291 268 CURVE SMOOTH",
"378 673 LINE SMOOTH",
"381 688 OFFCURVE",
"371 700 OFFCURVE",
"356 700 CURVE SMOOTH",
"160 700 LINE SMOOTH",
"145 700 OFFCURVE",
"131 688 OFFCURVE",
"128 673 CURVE SMOOTH",
"41 264 LINE SMOOTH",
"0 75 OFFCURVE",
"155 -10 OFFCURVE",
"327 -10 CURVE SMOOTH",
"537 -10 OFFCURVE",
"648 75 OFFCURVE",
"689 264 CURVE SMOOTH",
"776 673 LINE SMOOTH",
"779 688 OFFCURVE",
"769 700 OFFCURVE",
"754 700 CURVE SMOOTH"
);
}
);
width = 745;
}
);
leftKerningGroup = U;
rightKerningGroup = U;
unicode = 0055;
},
{
glyphname = Uogonek;
lastChange = "2015-10-21 15:52:37 +0000";
layers = (
{
hints = (
{
horizontal = 1;
origin = "{0, 0}";
type = Tag;
name = hr00;
}
);
layerId = "E313AEA5-9794-4496-8824-D26DD01CDD19";
name = "Light Italic";
paths = (
{
closed = 1;
nodes = (
"318 -220 LINE",
"332 -220 OFFCURVE",
"338 -216 OFFCURVE",
"342 -203 CURVE",
"347 -185 LINE",
"350 -172 OFFCURVE",
"343 -163 OFFCURVE",
"330 -163 CURVE",
"312 -163 LINE",
"278 -163 OFFCURVE",
"245 -133 OFFCURVE",
"256 -82 CURVE SMOOTH",
"266 -36 OFFCURVE",
"301 -9 OFFCURVE",
"335 -7 CURVE",
"458 1 OFFCURVE",
"565 76 OFFCURVE",
"598 271 CURVE",
"684 677 LINE",
"687 691 OFFCURVE",
"680 700 OFFCURVE",
"667 700 CURVE",
"649 700 LINE",
"635 700 OFFCURVE",
"624 691 OFFCURVE",
"621 677 CURVE",
"534 268 LINE",
"502 118 OFFCURVE",
"415 50 OFFCURVE",
"286 50 CURVE SMOOTH",
"151 50 OFFCURVE",
"113 118 OFFCURVE",
"145 268 CURVE",
"232 677 LINE",
"235 691 OFFCURVE",
"228 700 OFFCURVE",
"214 700 CURVE",
"196 700 LINE",
"183 700 OFFCURVE",
"172 691 OFFCURVE",
"169 677 CURVE",
"83 271 LINE",
"47 100 OFFCURVE",
"98 12 OFFCURVE",
"229 -6 CURVE",
"213 -26 OFFCURVE",
"201 -50 OFFCURVE",
"196 -82 CURVE SMOOTH",
"181 -167 OFFCURVE",
"241 -220 OFFCURVE",
"312 -220 CURVE"
);
}
);
width = 692;
},
{
guideLines = (
{
position = "{0, -220}";
},
{
angle = 90;
position = "{335, 0}";
}
);
hints = (
{
horizontal = 1;
place = "{9223372036854775808.000000, 0.000000}";
type = Tag;
name = hr00;
}
);
layerId = "8D1576CD-C92F-4A10-BFAA-527F596A391A";
name = "Bold Italic";
paths = (
{
closed = 1;
nodes = (
"558 700 LINE",
"543 700 OFFCURVE",
"529 688 OFFCURVE",
"526 673 CURVE",
"439 268 LINE",
"429 218 OFFCURVE",
"398 191 OFFCURVE",
"349 191 CURVE SMOOTH",
"300 191 OFFCURVE",
"281 218 OFFCURVE",
"291 268 CURVE",
"378 673 LINE",
"381 688 OFFCURVE",
"371 700 OFFCURVE",
"356 700 CURVE",
"160 700 LINE",
"145 700 OFFCURVE",
"131 688 OFFCURVE",
"128 673 CURVE",
"41 264 LINE",
"8 114 OFFCURVE",
"98 30 OFFCURVE",
"222 1 CURVE",
"218 -11 OFFCURVE",
"214 -25 OFFCURVE",
"211 -39 CURVE SMOOTH",
"191 -134 OFFCURVE",
"236 -220 OFFCURVE",
"357 -220 CURVE",
"361 -220 LINE",
"376 -220 OFFCURVE",
"390 -208 OFFCURVE",
"393 -193 CURVE",
"408 -125 LINE",
"411 -110 OFFCURVE",
"402 -98 OFFCURVE",
"387 -98 CURVE",
"377 -98 LINE",
"338 -98 OFFCURVE",
"333 -70 OFFCURVE",
"337 -49 CURVE SMOOTH",
"342 -28 OFFCURVE",
"356 -11 OFFCURVE",
"395 -7 CURVE SMOOTH",
"561 10 OFFCURVE",
"652 96 OFFCURVE",
"689 264 CURVE",
"776 673 LINE",
"779 688 OFFCURVE",
"769 700 OFFCURVE",
"754 700 CURVE"
);
}
);
width = 744;
}
);
leftKerningGroup = U;
rightKerningGroup = U;
unicode = 0172;
},
{
glyphname = V;
lastChange = "2015-10-21 15:52:37 +0000";
layers = (
{
hints = (
{
horizontal = 1;
origin = "{0, 0}";
type = Tag;
name = hr00;
}
);
layerId = "E313AEA5-9794-4496-8824-D26DD01CDD19";
name = "Light Italic";
paths = (
{
closed = 1;
nodes = (
"267 73 LINE",
"178 685 LINE",
"177 693 OFFCURVE",
"172 700 OFFCURVE",
"159 700 CURVE SMOOTH",
"137 700 LINE",
"124 700 OFFCURVE",
"115 692 OFFCURVE",
"117 676 CURVE",
"212 24 LINE SMOOTH",
"214 8 OFFCURVE",
"223 0 OFFCURVE",
"241 0 CURVE SMOOTH",
"272 0 LINE SMOOTH",
"290 0 OFFCURVE",
"301 8 OFFCURVE",
"311 24 CURVE",
"679 668 LINE SMOOTH",
"687 682 OFFCURVE",
"683 700 OFFCURVE",
"667 700 CURVE SMOOTH",
"637 700 LINE SMOOTH",
"624 700 OFFCURVE",
"619 691 OFFCURVE",
"616 685 CURVE"
);
}
);
width = 639;
},
{
hints = (
{
horizontal = 1;
place = "{9223372036854775808.000000, 0.000000}";
type = Tag;
name = hr00;
}
);
layerId = "8D1576CD-C92F-4A10-BFAA-527F596A391A";
name = "Bold Italic";
paths = (
{
closed = 1;
nodes = (
"354 295 LINE",
"528 667 LINE",
"535 682 OFFCURVE",
"553 700 OFFCURVE",
"580 700 CURVE SMOOTH",
"776 700 LINE SMOOTH",
"792 700 OFFCURVE",
"798 685 OFFCURVE",
"791 671 CURVE SMOOTH",
"468 33 LINE SMOOTH",
"460 18 OFFCURVE",
"443 0 OFFCURVE",
"416 0 CURVE SMOOTH",
"185 0 LINE SMOOTH",
"158 0 OFFCURVE",
"147 18 OFFCURVE",
"147 33 CURVE SMOOTH",
"94 671 LINE SMOOTH",
"93 689 OFFCURVE",
"106 700 OFFCURVE",
"121 700 CURVE SMOOTH",
"300 700 LINE SMOOTH",
"327 700 OFFCURVE",
"337 682 OFFCURVE",
"338 667 CURVE SMOOTH"
);
}
);
width = 726;
}
);
unicode = 0056;
},
{
glyphname = W;
lastChange = "2015-10-21 15:52:37 +0000";
layers = (
{
hints = (
{
horizontal = 1;
origin = "{0, 0}";
type = Tag;
name = hr00;
}
);
layerId = "E313AEA5-9794-4496-8824-D26DD01CDD19";
name = "Light Italic";
paths = (
{
closed = 1;
nodes = (
"473 522 LINE SMOOTH",
"472 534 OFFCURVE",
"465 545 OFFCURVE",
"447 545 CURVE SMOOTH",
"426 545 LINE SMOOTH",
"408 545 OFFCURVE",
"396 534 OFFCURVE",
"390 522 CURVE SMOOTH",
"183 126 LINE",
"183 680 LINE SMOOTH",
"183 690 OFFCURVE",
"176 700 OFFCURVE",
"163 700 CURVE SMOOTH",
"144 700 LINE SMOOTH",
"131 700 OFFCURVE",
"123 691 OFFCURVE",
"123 680 CURVE SMOOTH",
"123 24 LINE SMOOTH",
"123 7 OFFCURVE",
"130 0 OFFCURVE",
"146 0 CURVE SMOOTH",
"164 0 LINE SMOOTH",
"180 0 OFFCURVE",
"191 8 OFFCURVE",
"200 24 CURVE SMOOTH",
"419 444 LINE",
"462 24 LINE",
"463 8 OFFCURVE",
"472 0 OFFCURVE",
"488 0 CURVE SMOOTH",
"509 0 LINE SMOOTH",
"525 0 OFFCURVE",
"534 7 OFFCURVE",
"542 24 CURVE",
"814 674 LINE SMOOTH",
"820 688 OFFCURVE",
"819 700 OFFCURVE",
"800 700 CURVE SMOOTH",
"778 700 LINE SMOOTH",
"765 700 OFFCURVE",
"757 695 OFFCURVE",
"753 685 CURVE SMOOTH",
"515 116 LINE"
);
}
);
width = 776;
},
{
guideLines = (
{
position = "{0, 545}";
}
);
hints = (
{
horizontal = 1;
place = "{9223372036854775808.000000, 0.000000}";
type = Tag;
name = hr00;
}
);
layerId = "8D1576CD-C92F-4A10-BFAA-527F596A391A";
name = "Bold Italic";
paths = (
{
closed = 1;
nodes = (
"404 232 LINE",
"293 27 LINE SMOOTH",
"289 19 OFFCURVE",
"274 0 OFFCURVE",
"247 0 CURVE SMOOTH",
"104 0 LINE SMOOTH",
"77 0 OFFCURVE",
"64 20 OFFCURVE",
"66 38 CURVE",
"99 675 LINE SMOOTH",
"100 688 OFFCURVE",
"114 700 OFFCURVE",
"127 700 CURVE SMOOTH",
"308 700 LINE SMOOTH",
"331 700 OFFCURVE",
"340 693 OFFCURVE",
"338 673 CURVE SMOOTH",
"312 391 LINE",
"379 516 LINE SMOOTH",
"384 525 OFFCURVE",
"395 545 OFFCURVE",
"419 545 CURVE SMOOTH",
"521 545 LINE SMOOTH",
"545 545 OFFCURVE",
"548 525 OFFCURVE",
"549 516 CURVE SMOOTH",
"564 392 LINE",
"658 673 LINE SMOOTH",
"664 693 OFFCURVE",
"677 700 OFFCURVE",
"700 700 CURVE SMOOTH",
"891 700 LINE SMOOTH",
"904 700 OFFCURVE",
"911 687 OFFCURVE",
"907 675 CURVE SMOOTH",
"690 38 LINE",
"684 20 OFFCURVE",
"663 0 OFFCURVE",
"636 0 CURVE SMOOTH",
"493 0 LINE SMOOTH",
"466 0 OFFCURVE",
"459 19 OFFCURVE",
"457 27 CURVE SMOOTH"
);
}
);
width = 855;
}
);
leftKerningGroup = W;
rightKerningGroup = W;
unicode = 0057;
},
{
glyphname = X;
lastChange = "2015-10-21 15:52:37 +0000";
layers = (
{
hints = (
{
horizontal = 1;
origin = "{0, 0}";
type = Tag;
name = hr00;
}
);
layerId = "E313AEA5-9794-4496-8824-D26DD01CDD19";
name = "Light Italic";
paths = (
{
closed = 1;
nodes = (
"185 685 LINE SMOOTH",
"182 691 OFFCURVE",
"178 700 OFFCURVE",
"157 700 CURVE SMOOTH",
"141 700 LINE SMOOTH",
"126 700 OFFCURVE",
"116 684 OFFCURVE",
"124 669 CURVE SMOOTH",
"280 360 LINE",
"-25 33 LINE SMOOTH",
"-37 20 OFFCURVE",
"-26 0 OFFCURVE",
"-10 0 CURVE SMOOTH",
"8 0 LINE SMOOTH",
"29 0 OFFCURVE",
"35 9 OFFCURVE",
"41 15 CURVE SMOOTH",
"310 302 LINE",
"457 15 LINE SMOOTH",
"460 9 OFFCURVE",
"465 0 OFFCURVE",
"485 0 CURVE SMOOTH",
"501 0 LINE SMOOTH",
"515 0 OFFCURVE",
"526 15 OFFCURVE",
"519 29 CURVE SMOOTH",
"356 347 LINE",
"649 667 LINE SMOOTH",
"661 681 OFFCURVE",
"650 700 OFFCURVE",
"634 700 CURVE SMOOTH",
"617 700 LINE SMOOTH",
"594 700 OFFCURVE",
"589 691 OFFCURVE",
"583 685 CURVE SMOOTH",
"327 405 LINE"
);
}
);
width = 610;
},
{
hints = (
{
horizontal = 1;
place = "{9223372036854775808.000000, 0.000000}";
type = Tag;
name = hr00;
}
);
layerId = "8D1576CD-C92F-4A10-BFAA-527F596A391A";
name = "Bold Italic";
paths = (
{
closed = 1;
nodes = (
"806 667 LINE",
"817 679 OFFCURVE",
"813 700 OFFCURVE",
"794 700 CURVE",
"577 700 LINE",
"551 700 OFFCURVE",
"536 682 OFFCURVE",
"530 675 CURVE",
"419 543 LINE",
"354 675 LINE",
"351 682 OFFCURVE",
"343 700 OFFCURVE",
"317 700 CURVE",
"120 700 LINE",
"98 700 OFFCURVE",
"87 682 OFFCURVE",
"94 667 CURVE",
"246 361 LINE",
"-51 33 LINE",
"-63 20 OFFCURVE",
"-56 0 OFFCURVE",
"-39 0 CURVE",
"199 0 LINE",
"225 0 OFFCURVE",
"240 18 OFFCURVE",
"244 23 CURVE",
"353 144 LINE",
"414 23 LINE",
"416 18 OFFCURVE",
"425 0 OFFCURVE",
"451 0 CURVE",
"647 0 LINE",
"670 0 OFFCURVE",
"680 18 OFFCURVE",
"673 33 CURVE",
"525 331 LINE"
);
}
);
width = 738;
}
);
unicode = 0058;
},
{
glyphname = Y;
lastChange = "2015-10-21 15:52:37 +0000";
layers = (
{
hints = (
{
horizontal = 1;
origin = "{0, 0}";
type = Tag;
name = hr00;
}
);
layerId = "E313AEA5-9794-4496-8824-D26DD01CDD19";
name = "Light Italic";
paths = (
{
closed = 1;
nodes = (
"176 685 LINE SMOOTH",
"172 695 OFFCURVE",
"165 700 OFFCURVE",
"156 700 CURVE SMOOTH",
"139 700 LINE",
"121 700 OFFCURVE",
"110 681 OFFCURVE",
"116 667 CURVE",
"275 267 LINE",
"224 22 LINE SMOOTH",
"221 9 OFFCURVE",
"229 0 OFFCURVE",
"242 0 CURVE SMOOTH",
"259 0 LINE SMOOTH",
"273 0 OFFCURVE",
"283 9 OFFCURVE",
"286 22 CURVE SMOOTH",
"339 267 LINE",
"668 667 LINE",
"680 681 OFFCURVE",
"682 700 OFFCURVE",
"659 700 CURVE SMOOTH",
"628 700 LINE SMOOTH",
"619 700 OFFCURVE",
"610 695 OFFCURVE",
"602 685 CURVE SMOOTH",
"315 335 LINE"
);
}
);
width = 629;
},
{
hints = (
{
horizontal = 1;
place = "{9223372036854775808.000000, 0.000000}";
type = Tag;
name = hr00;
}
);
layerId = "8D1576CD-C92F-4A10-BFAA-527F596A391A";
name = "Bold Italic";
paths = (
{
closed = 1;
nodes = (
"390 0 LINE SMOOTH",
"405 0 OFFCURVE",
"419 12 OFFCURVE",
"422 27 CURVE SMOOTH",
"464 224 LINE",
"784 669 LINE SMOOTH",
"793 681 OFFCURVE",
"788 700 OFFCURVE",
"770 700 CURVE SMOOTH",
"572 700 LINE SMOOTH",
"545 700 OFFCURVE",
"529 681 OFFCURVE",
"525 675 CURVE SMOOTH",
"382 474 LINE",
"325 675 LINE SMOOTH",
"323 681 OFFCURVE",
"315 700 OFFCURVE",
"288 700 CURVE SMOOTH",
"110 700 LINE SMOOTH",
"92 700 OFFCURVE",
"79 685 OFFCURVE",
"84 669 CURVE SMOOTH",
"214 224 LINE",
"172 27 LINE SMOOTH",
"169 12 OFFCURVE",
"179 0 OFFCURVE",
"194 0 CURVE SMOOTH"
);
}
);
width = 709;
}
);
leftKerningGroup = Y;
rightKerningGroup = Y;
unicode = 0059;
},
{
glyphname = Z;
lastChange = "2015-10-21 15:52:37 +0000";
layers = (
{
hints = (
{
horizontal = 1;
origin = "{0, 0}";
type = Tag;
name = hr00;
}
);
layerId = "E313AEA5-9794-4496-8824-D26DD01CDD19";
name = "Light Italic";
paths = (
{
closed = 1;
nodes = (
"74 60 LINE",
"581 621 LINE SMOOTH",
"589 630 OFFCURVE",
"599 640 OFFCURVE",
"602 657 CURVE SMOOTH",
"606 677 LINE SMOOTH",
"609 691 OFFCURVE",
"602 700 OFFCURVE",
"588 700 CURVE SMOOTH",
"157 700 LINE SMOOTH",
"144 700 OFFCURVE",
"133 691 OFFCURVE",
"130 677 CURVE SMOOTH",
"127 662 LINE SMOOTH",
"124 649 OFFCURVE",
"132 640 OFFCURVE",
"145 640 CURVE SMOOTH",
"515 640 LINE",
"9 80 LINE SMOOTH",
"3 74 OFFCURVE",
"-9 63 OFFCURVE",
"-13 43 CURVE SMOOTH",
"-18 23 LINE SMOOTH",
"-21 9 OFFCURVE",
"-13 0 OFFCURVE",
"0 0 CURVE SMOOTH",
"450 0 LINE SMOOTH",
"464 0 OFFCURVE",
"474 9 OFFCURVE",
"477 22 CURVE SMOOTH",
"480 37 LINE SMOOTH",
"483 51 OFFCURVE",
"476 60 OFFCURVE",
"462 60 CURVE SMOOTH"
);
}
);
width = 574;
},
{
guideLines = (
{
angle = 90;
position = "{-14, 0}";
},
{
angle = 90;
position = "{611, 0}";
}
);
hints = (
{
horizontal = 1;
place = "{9223372036854775808.000000, 0.000000}";
type = Tag;
name = hr00;
}
);
layerId = "8D1576CD-C92F-4A10-BFAA-527F596A391A";
name = "Bold Italic";
paths = (
{
closed = 1;
nodes = (
"359 205 LINE",
"676 498 LINE SMOOTH",
"685 507 OFFCURVE",
"693 517 OFFCURVE",
"696 531 CURVE SMOOTH",
"727 673 LINE SMOOTH",
"730 688 OFFCURVE",
"720 700 OFFCURVE",
"705 700 CURVE SMOOTH",
"157 700 LINE SMOOTH",
"142 700 OFFCURVE",
"128 688 OFFCURVE",
"125 673 CURVE SMOOTH",
"93 524 LINE SMOOTH",
"90 509 OFFCURVE",
"99 497 OFFCURVE",
"114 497 CURVE SMOOTH",
"362 497 LINE",
"30 206 LINE SMOOTH",
"24 201 OFFCURVE",
"12 190 OFFCURVE",
"8 171 CURVE SMOOTH",
"-23 27 LINE SMOOTH",
"-26 12 OFFCURVE",
"-16 0 OFFCURVE",
"-1 0 CURVE SMOOTH",
"570 0 LINE SMOOTH",
"585 0 OFFCURVE",
"599 12 OFFCURVE",
"602 27 CURVE SMOOTH",
"634 178 LINE",
"638 193 OFFCURVE",
"628 205 OFFCURVE",
"613 205 CURVE SMOOTH"
);
}
);
width = 692;
}
);
leftKerningGroup = Z;
rightKerningGroup = Z;
unicode = 005A;
},
{
glyphname = a;
lastChange = "2015-10-21 15:52:37 +0000";
layers = (
{
hints = (
{
horizontal = 1;
origin = "{0, 16}";
type = Tag;
name = hr01;
}
);
layerId = "E313AEA5-9794-4496-8824-D26DD01CDD19";
name = "Light Italic";
paths = (
{
closed = 1;
nodes = (
"310 530 CURVE SMOOTH",
"149 530 OFFCURVE",
"83 404 OFFCURVE",
"53 288 CURVE SMOOTH",
"48 268 OFFCURVE",
"44 252 OFFCURVE",
"41 232 CURVE SMOOTH",
"23 115 OFFCURVE",
"52 -10 OFFCURVE",
"207 -10 CURVE SMOOTH",
"295 -10 OFFCURVE",
"336 24 OFFCURVE",
"378 69 CURVE",
"368 22 LINE SMOOTH",
"365 9 OFFCURVE",
"373 0 OFFCURVE",
"386 0 CURVE SMOOTH",
"403 0 LINE SMOOTH",
"416 0 OFFCURVE",
"426 9 OFFCURVE",
"429 22 CURVE SMOOTH",
"530 498 LINE SMOOTH",
"533 511 OFFCURVE",
"525 520 OFFCURVE",
"512 520 CURVE SMOOTH",
"495 520 LINE SMOOTH",
"482 520 OFFCURVE",
"472 511 OFFCURVE",
"469 498 CURVE SMOOTH",
"459 451 LINE",
"436 495 OFFCURVE",
"398 530 OFFCURVE"
);
},
{
closed = 1;
nodes = (
"411 224 CURVE SMOOTH",
"391 142 OFFCURVE",
"321 48 OFFCURVE",
"207 48 CURVE SMOOTH",
"98 48 OFFCURVE",
"88 136 OFFCURVE",
"103 232 CURVE SMOOTH",
"106 252 OFFCURVE",
"109 268 OFFCURVE",
"115 288 CURVE SMOOTH",
"143 383 OFFCURVE",
"201 472 OFFCURVE",
"310 472 CURVE SMOOTH",
"421 472 OFFCURVE",
"443 382 OFFCURVE",
"428 302 CURVE SMOOTH",
"424 282 OFFCURVE",
"416 244 OFFCURVE"
);
}
);
width = 569;
},
{
hints = (
{
horizontal = 1;
place = "{9223372036854775808.000000, 0.000000}";
type = Tag;
name = hr01;
}
);
layerId = "8D1576CD-C92F-4A10-BFAA-527F596A391A";
name = "Bold Italic";
paths = (
{
closed = 1;
nodes = (
"293 530 CURVE SMOOTH",
"167 530 OFFCURVE",
"72 457 OFFCURVE",
"32 300 CURVE SMOOTH",
"25 270 OFFCURVE",
"21 251 OFFCURVE",
"15 221 CURVE",
"-13 54 OFFCURVE",
"72 -10 OFFCURVE",
"188 -10 CURVE SMOOTH",
"257 -10 OFFCURVE",
"299 14 OFFCURVE",
"339 50 CURVE",
"334 27 LINE SMOOTH",
"331 12 OFFCURVE",
"341 0 OFFCURVE",
"356 0 CURVE SMOOTH",
"526 0 LINE SMOOTH",
"541 0 OFFCURVE",
"555 12 OFFCURVE",
"558 27 CURVE SMOOTH",
"657 493 LINE SMOOTH",
"660 508 OFFCURVE",
"650 520 OFFCURVE",
"635 520 CURVE SMOOTH",
"466 520 LINE SMOOTH",
"451 520 OFFCURVE",
"437 508 OFFCURVE",
"434 493 CURVE SMOOTH",
"431 480 LINE",
"405 509 OFFCURVE",
"369 530 OFFCURVE"
);
},
{
closed = 1;
nodes = (
"276 293 CURVE SMOOTH",
"287 329 OFFCURVE",
"301 351 OFFCURVE",
"338 351 CURVE SMOOTH",
"372 351 OFFCURVE",
"382 333 OFFCURVE",
"377 301 CURVE SMOOTH",
"373 271 OFFCURVE",
"370 257 OFFCURVE",
"362 227 CURVE SMOOTH",
"352 191 OFFCURVE",
"336 169 OFFCURVE",
"299 169 CURVE SMOOTH",
"262 169 OFFCURVE",
"258 191 OFFCURVE",
"262 227 CURVE SMOOTH",
"264 247 OFFCURVE",
"270 273 OFFCURVE"
);
}
);
width = 660;
}
);
leftKerningGroup = d;
rightKerningGroup = u;
unicode = 0061;
},
{
glyphname = aogonek;
lastChange = "2015-10-21 15:52:37 +0000";
layers = (
{
guideLines = (
{
angle = 78;
position = "{408, 0}";
}
);
hints = (
{
horizontal = 1;
origin = "{0, 39}";
type = Tag;
name = hr01;
}
);
layerId = "E313AEA5-9794-4496-8824-D26DD01CDD19";
name = "Light Italic";
paths = (
{
closed = 1;
nodes = (
"310 530 CURVE SMOOTH",
"149 530 OFFCURVE",
"83 404 OFFCURVE",
"53 288 CURVE SMOOTH",
"48 268 OFFCURVE",
"44 252 OFFCURVE",
"41 232 CURVE SMOOTH",
"23 115 OFFCURVE",
"52 -10 OFFCURVE",
"207 -10 CURVE SMOOTH",
"295 -10 OFFCURVE",
"336 24 OFFCURVE",
"378 69 CURVE",
"370 34 LINE",
"348 25 OFFCURVE",
"279 -11 OFFCURVE",
"264 -87 CURVE SMOOTH",
"247 -172 OFFCURVE",
"293 -220 OFFCURVE",
"357 -220 CURVE SMOOTH",
"371 -220 OFFCURVE",
"377 -216 OFFCURVE",
"381 -203 CURVE",
"385 -185 LINE SMOOTH",
"388 -172 OFFCURVE",
"381 -163 OFFCURVE",
"368 -163 CURVE SMOOTH",
"334 -163 OFFCURVE",
"313 -138 OFFCURVE",
"324 -87 CURVE SMOOTH",
"335 -36 OFFCURVE",
"385 -15 OFFCURVE",
"417 4 CURVE SMOOTH",
"423 8 OFFCURVE",
"427 14 OFFCURVE",
"429 22 CURVE SMOOTH",
"530 498 LINE SMOOTH",
"533 511 OFFCURVE",
"525 520 OFFCURVE",
"512 520 CURVE SMOOTH",
"495 520 LINE SMOOTH",
"482 520 OFFCURVE",
"472 511 OFFCURVE",
"469 498 CURVE SMOOTH",
"459 451 LINE",
"436 495 OFFCURVE",
"398 530 OFFCURVE"
);
},
{
closed = 1;
nodes = (
"411 224 CURVE SMOOTH",
"391 142 OFFCURVE",
"321 48 OFFCURVE",
"207 48 CURVE SMOOTH",
"98 48 OFFCURVE",
"88 136 OFFCURVE",
"103 232 CURVE SMOOTH",
"106 252 OFFCURVE",
"109 268 OFFCURVE",
"115 288 CURVE SMOOTH",
"143 383 OFFCURVE",
"201 472 OFFCURVE",
"310 472 CURVE SMOOTH",
"421 472 OFFCURVE",
"443 382 OFFCURVE",
"428 302 CURVE SMOOTH",
"424 282 OFFCURVE",
"416 244 OFFCURVE"
);
}
);
width = 569;
},
{
hints = (
{
horizontal = 1;
place = "{9223372036854775808.000000, 0.000000}";
type = Tag;
name = hr01;
}
);
layerId = "8D1576CD-C92F-4A10-BFAA-527F596A391A";
name = "Bold Italic";
paths = (
{
closed = 1;
nodes = (
"293 530 CURVE SMOOTH",
"167 530 OFFCURVE",
"72 457 OFFCURVE",
"32 300 CURVE SMOOTH",
"25 270 OFFCURVE",
"21 251 OFFCURVE",
"15 221 CURVE",
"-13 54 OFFCURVE",
"72 -10 OFFCURVE",
"188 -10 CURVE SMOOTH",
"257 -10 OFFCURVE",
"299 14 OFFCURVE",
"339 50 CURVE",
"334 27 LINE",
"332 17 OFFCURVE",
"335 9 OFFCURVE",
"341 4 CURVE",
"336 -9 OFFCURVE",
"332 -24 OFFCURVE",
"329 -39 CURVE SMOOTH",
"309 -134 OFFCURVE",
"354 -220 OFFCURVE",
"475 -220 CURVE",
"479 -220 LINE",
"494 -220 OFFCURVE",
"508 -208 OFFCURVE",
"511 -193 CURVE",
"526 -125 LINE",
"529 -110 OFFCURVE",
"520 -98 OFFCURVE",
"505 -98 CURVE",
"495 -98 LINE",
"456 -98 OFFCURVE",
"451 -70 OFFCURVE",
"455 -49 CURVE SMOOTH",
"460 -28 OFFCURVE",
"477 0 OFFCURVE",
"516 0 CURVE",
"526 0 LINE",
"541 0 OFFCURVE",
"555 12 OFFCURVE",
"558 27 CURVE",
"657 493 LINE",
"660 508 OFFCURVE",
"650 520 OFFCURVE",
"635 520 CURVE",
"466 520 LINE",
"451 520 OFFCURVE",
"437 508 OFFCURVE",
"434 493 CURVE",
"431 480 LINE",
"405 509 OFFCURVE",
"369 530 OFFCURVE"
);
},
{
closed = 1;
nodes = (
"276 293 CURVE SMOOTH",
"287 329 OFFCURVE",
"301 351 OFFCURVE",
"338 351 CURVE SMOOTH",
"372 351 OFFCURVE",
"382 333 OFFCURVE",
"377 301 CURVE SMOOTH",
"373 271 OFFCURVE",
"370 257 OFFCURVE",
"362 227 CURVE SMOOTH",
"352 191 OFFCURVE",
"336 169 OFFCURVE",
"299 169 CURVE SMOOTH",
"262 169 OFFCURVE",
"258 191 OFFCURVE",
"262 227 CURVE SMOOTH",
"264 247 OFFCURVE",
"270 273 OFFCURVE"
);
}
);
width = 660;
}
);
leftKerningGroup = d;
rightKerningGroup = u;
unicode = 0105;
userData = {
com.typemytype.robofont.guides = (
{
angle = 78;
isGlobal = 0;
magnetic = 5;
x = 408;
y = 0;
}
);
};
},
{
glyphname = ae;
lastChange = "2015-10-21 15:52:37 +0000";
layers = (
{
hints = (
{
horizontal = 1;
origin = "{0, 0}";
type = Tag;
name = hr00;
}
);
layerId = "E313AEA5-9794-4496-8824-D26DD01CDD19";
name = "Light Italic";
paths = (
{
closed = 1;
nodes = (
"306 530 CURVE SMOOTH",
"173 530 OFFCURVE",
"113 442 OFFCURVE",
"100 405 CURVE SMOOTH",
"96 393 OFFCURVE",
"105 383 OFFCURVE",
"117 383 CURVE SMOOTH",
"134 383 LINE SMOOTH",
"146 383 OFFCURVE",
"151 389 OFFCURVE",
"162 404 CURVE SMOOTH",
"185 437 OFFCURVE",
"231 472 OFFCURVE",
"306 472 CURVE SMOOTH",
"400 472 OFFCURVE",
"427 429 OFFCURVE",
"412 358 CURVE SMOOTH",
"405 329 LINE",
"244 306 LINE SMOOTH",
"103 286 OFFCURVE",
"28 229 OFFCURVE",
"9 139 CURVE SMOOTH",
"-9 55 OFFCURVE",
"62 -10 OFFCURVE",
"168 -10 CURVE SMOOTH",
"268 -10 OFFCURVE",
"335 28 OFFCURVE",
"389 106 CURVE",
"411 34 OFFCURVE",
"470 -10 OFFCURVE",
"560 -10 CURVE SMOOTH",
"696 -10 OFFCURVE",
"771 73 OFFCURVE",
"781 111 CURVE",
"785 123 OFFCURVE",
"776 131 OFFCURVE",
"764 131 CURVE SMOOTH",
"748 131 LINE SMOOTH",
"733 131 OFFCURVE",
"730 130 OFFCURVE",
"715 113 CURVE SMOOTH",
"700 97 OFFCURVE",
"665 48 OFFCURVE",
"560 48 CURVE SMOOTH",
"448 48 OFFCURVE",
"430 136 OFFCURVE",
"448 235 CURVE",
"794 235 LINE SMOOTH",
"807 235 OFFCURVE",
"819 244 OFFCURVE",
"822 257 CURVE SMOOTH",
"825 272 LINE SMOOTH",
"857 432 OFFCURVE",
"797 530 OFFCURVE",
"663 530 CURVE SMOOTH",
"583 530 OFFCURVE",
"517 497 OFFCURVE",
"470 441 CURVE SMOOTH",
"471 442 LINE",
"458 491 OFFCURVE",
"407 530 OFFCURVE"
);
},
{
closed = 1;
nodes = (
"168 47 CURVE SMOOTH",
"106 47 OFFCURVE",
"57 78 OFFCURVE",
"71 144 CURVE SMOOTH",
"83 198 OFFCURVE",
"143 236 OFFCURVE",
"244 249 CURVE",
"392 268 LINE",
"385 234 LINE SMOOTH",
"358 108 OFFCURVE",
"260 47 OFFCURVE"
);
},
{
closed = 1;
nodes = (
"460 291 LINE",
"481 391 OFFCURVE",
"563 472 OFFCURVE",
"663 472 CURVE SMOOTH",
"768 472 OFFCURVE",
"792 393 OFFCURVE",
"768 291 CURVE"
);
}
);
width = 881;
},
{
hints = (
{
horizontal = 1;
place = "{9223372036854775808.000000, 0.000000}";
type = Tag;
name = hr01;
},
{
horizontal = 1;
place = "{9223372036854775808.000000, 0.000000}";
type = Tag;
name = hr02;
},
{
horizontal = 1;
place = "{9223372036854775808.000000, 0.000000}";
type = Tag;
name = hr03;
}
);
layerId = "8D1576CD-C92F-4A10-BFAA-527F596A391A";
name = "Bold Italic";
paths = (
{
closed = 1;
nodes = (
"-15 149 CURVE SMOOTH",
"-34 59 OFFCURVE",
"50 -10 OFFCURVE",
"165 -10 CURVE SMOOTH",
"246 -10 OFFCURVE",
"328 14 OFFCURVE",
"375 54 CURVE",
"419 10 OFFCURVE",
"488 -10 OFFCURVE",
"571 -10 CURVE SMOOTH",
"766 -10 OFFCURVE",
"851 94 OFFCURVE",
"865 145 CURVE SMOOTH",
"869 158 OFFCURVE",
"861 167 OFFCURVE",
"848 167 CURVE SMOOTH",
"659 167 LINE SMOOTH",
"643 167 OFFCURVE",
"638 165 OFFCURVE",
"623 153 CURVE SMOOTH",
"610 142 OFFCURVE",
"602 135 OFFCURVE",
"590 135 CURVE SMOOTH",
"561 135 OFFCURVE",
"556 156 OFFCURVE",
"564 196 CURVE SMOOTH",
"565 201 LINE",
"863 201 LINE SMOOTH",
"878 201 OFFCURVE",
"893 213 OFFCURVE",
"896 228 CURVE SMOOTH",
"902 258 LINE SMOOTH",
"934 405 OFFCURVE",
"851 530 OFFCURVE",
"665 530 CURVE SMOOTH",
"604 530 OFFCURVE",
"551 519 OFFCURVE",
"506 499 CURVE",
"467 519 OFFCURVE",
"416 530 OFFCURVE",
"353 530 CURVE SMOOTH",
"176 530 OFFCURVE",
"82 431 OFFCURVE",
"68 380 CURVE SMOOTH",
"65 367 OFFCURVE",
"73 358 OFFCURVE",
"86 358 CURVE SMOOTH",
"256 358 LINE SMOOTH",
"288 358 OFFCURVE",
"297 390 OFFCURVE",
"331 390 CURVE SMOOTH",
"359 390 OFFCURVE",
"358 375 OFFCURVE",
"351 339 CURVE",
"241 322 LINE",
"103 299 OFFCURVE",
"6 246 OFFCURVE"
);
},
{
closed = 1;
nodes = (
"246 138 CURVE SMOOTH",
"221 138 OFFCURVE",
"211 151 OFFCURVE",
"214 166 CURVE SMOOTH",
"217 180 OFFCURVE",
"229 195 OFFCURVE",
"266 203 CURVE SMOOTH",
"327 216 LINE",
"316 162 OFFCURVE",
"285 138 OFFCURVE"
);
},
{
closed = 1;
nodes = (
"645 390 CURVE SMOOTH",
"671 390 OFFCURVE",
"681 371 OFFCURVE",
"672 326 CURVE",
"592 326 LINE",
"601 371 OFFCURVE",
"619 390 OFFCURVE"
);
}
);
width = 935;
}
);
leftKerningGroup = ae;
rightKerningGroup = e;
unicode = 00E6;
},
{
glyphname = b;
lastChange = "2015-10-21 15:52:37 +0000";
layers = (
{
hints = (
{
horizontal = 1;
origin = "{0, 23}";
type = Tag;
name = hr01;
}
);
layerId = "E313AEA5-9794-4496-8824-D26DD01CDD19";
name = "Light Italic";
paths = (
{
closed = 1;
nodes = (
"351 530 CURVE SMOOTH",
"268 530 OFFCURVE",
"218 495 OFFCURVE",
"176 451 CURVE",
"226 688 LINE SMOOTH",
"229 701 OFFCURVE",
"222 710 OFFCURVE",
"209 710 CURVE SMOOTH",
"192 710 LINE SMOOTH",
"179 710 OFFCURVE",
"168 701 OFFCURVE",
"165 688 CURVE SMOOTH",
"24 22 LINE SMOOTH",
"21 9 OFFCURVE",
"28 0 OFFCURVE",
"41 0 CURVE SMOOTH",
"58 0 LINE SMOOTH",
"71 0 OFFCURVE",
"82 9 OFFCURVE",
"85 22 CURVE SMOOTH",
"95 69 LINE",
"118 24 OFFCURVE",
"166 -10 OFFCURVE",
"249 -10 CURVE SMOOTH",
"405 -10 OFFCURVE",
"481 110 OFFCURVE",
"510 227 CURVE SMOOTH",
"515 247 OFFCURVE",
"521 273 OFFCURVE",
"524 293 CURVE SMOOTH",
"542 410 OFFCURVE",
"507 530 OFFCURVE"
);
},
{
closed = 1;
nodes = (
"128 224 CURVE SMOOTH",
"131 244 OFFCURVE",
"139 282 OFFCURVE",
"144 302 CURVE SMOOTH",
"163 382 OFFCURVE",
"240 472 OFFCURVE",
"351 472 CURVE SMOOTH",
"468 472 OFFCURVE",
"477 384 OFFCURVE",
"462 288 CURVE SMOOTH",
"459 268 OFFCURVE",
"456 252 OFFCURVE",
"450 232 CURVE SMOOTH",
"422 137 OFFCURVE",
"363 48 OFFCURVE",
"249 48 CURVE SMOOTH",
"135 48 OFFCURVE",
"113 142 OFFCURVE"
);
}
);
width = 580;
},
{
guideLines = (
{
position = "{0, 525}";
},
{
position = "{0, -10}";
},
{
position = "{0, 740}";
},
{
position = "{0, 710}";
},
{
position = "{0, 50}";
},
{
position = "{0, 650}";
},
{
position = "{0, 470}";
},
{
angle = 90;
position = "{240, 0}";
},
{
angle = 78;
position = "{240, 0}";
}
);
hints = (
{
horizontal = 1;
place = "{9223372036854775808.000000, 0.000000}";
type = Tag;
name = hr01;
},
{
horizontal = 1;
place = "{9223372036854775808.000000, 0.000000}";
type = Tag;
name = hr02;
}
);
layerId = "8D1576CD-C92F-4A10-BFAA-527F596A391A";
name = "Bold Italic";
paths = (
{
closed = 1;
nodes = (
"457 530 CURVE SMOOTH",
"401 530 OFFCURVE",
"362 512 OFFCURVE",
"324 483 CURVE",
"367 683 LINE SMOOTH",
"370 698 OFFCURVE",
"360 710 OFFCURVE",
"345 710 CURVE SMOOTH",
"160 710 LINE SMOOTH",
"145 710 OFFCURVE",
"131 698 OFFCURVE",
"128 683 CURVE SMOOTH",
"-12 27 LINE SMOOTH",
"-15 12 OFFCURVE",
"-5 0 OFFCURVE",
"10 0 CURVE SMOOTH",
"180 0 LINE SMOOTH",
"195 0 OFFCURVE",
"209 12 OFFCURVE",
"212 27 CURVE SMOOTH",
"217 50 LINE",
"241 14 OFFCURVE",
"293 -10 OFFCURVE",
"362 -10 CURVE SMOOTH",
"478 -10 OFFCURVE",
"571 54 OFFCURVE",
"613 221 CURVE SMOOTH",
"621 251 OFFCURVE",
"625 270 OFFCURVE",
"630 300 CURVE SMOOTH",
"658 457 OFFCURVE",
"573 530 OFFCURVE"
);
},
{
closed = 1;
nodes = (
"384 293 CURVE SMOOTH",
"382 273 OFFCURVE",
"376 247 OFFCURVE",
"370 227 CURVE SMOOTH",
"358 191 OFFCURVE",
"344 169 OFFCURVE",
"307 169 CURVE SMOOTH",
"270 169 OFFCURVE",
"264 191 OFFCURVE",
"270 227 CURVE SMOOTH",
"274 257 OFFCURVE",
"277 271 OFFCURVE",
"285 301 CURVE SMOOTH",
"294 333 OFFCURVE",
"312 351 OFFCURVE",
"346 351 CURVE SMOOTH",
"383 351 OFFCURVE",
"387 329 OFFCURVE"
);
}
);
width = 660;
}
);
leftKerningGroup = h;
rightKerningGroup = b;
unicode = 0062;
},
{
glyphname = c;
lastChange = "2015-10-21 15:52:37 +0000";
layers = (
{
hints = (
{
horizontal = 1;
origin = "{0, 0}";
type = Tag;
name = hr00;
}
);
layerId = "E313AEA5-9794-4496-8824-D26DD01CDD19";
name = "Light Italic";
paths = (
{
closed = 1;
nodes = (
"117 295 CURVE SMOOTH",
"148 420 OFFCURVE",
"230 472 OFFCURVE",
"321 472 CURVE SMOOTH",
"396 472 OFFCURVE",
"443 441 OFFCURVE",
"440 365 CURVE SMOOTH",
"439 349 OFFCURVE",
"446 344 OFFCURVE",
"460 344 CURVE SMOOTH",
"479 344 LINE SMOOTH",
"491 344 OFFCURVE",
"499 353 OFFCURVE",
"500 366 CURVE SMOOTH",
"508 438 OFFCURVE",
"467 530 OFFCURVE",
"321 530 CURVE SMOOTH",
"180 530 OFFCURVE",
"92 443 OFFCURVE",
"57 300 CURVE SMOOTH",
"52 280 OFFCURVE",
"44 240 OFFCURVE",
"40 220 CURVE SMOOTH",
"14 77 OFFCURVE",
"87 -10 OFFCURVE",
"218 -10 CURVE SMOOTH",
"359 -10 OFFCURVE",
"432 77 OFFCURVE",
"453 149 CURVE SMOOTH",
"457 162 OFFCURVE",
"450 171 OFFCURVE",
"438 171 CURVE SMOOTH",
"420 171 LINE SMOOTH",
"406 171 OFFCURVE",
"402 167 OFFCURVE",
"393 150 CURVE SMOOTH",
"354 74 OFFCURVE",
"288 48 OFFCURVE",
"218 48 CURVE SMOOTH",
"127 48 OFFCURVE",
"80 100 OFFCURVE",
"102 225 CURVE SMOOTH",
"106 245 OFFCURVE",
"112 275 OFFCURVE"
);
}
);
width = 535;
},
{
guideLines = (
{
position = "{0, -10}";
},
{
position = "{0, 295}";
},
{
position = "{0, 224}";
},
{
angle = 90;
position = "{-709, 0}";
},
{
angle = 90;
position = "{-464, 0}";
}
);
hints = (
{
horizontal = 1;
place = "{9223372036854775808.000000, 0.000000}";
type = Tag;
name = hr01;
},
{
horizontal = 1;
place = "{9223372036854775808.000000, 0.000000}";
type = Tag;
name = hr02;
}
);
layerId = "8D1576CD-C92F-4A10-BFAA-527F596A391A";
name = "Bold Italic";
paths = (
{
closed = 1;
nodes = (
"273 295 CURVE SMOOTH",
"283 335 OFFCURVE",
"296 359 OFFCURVE",
"327 359 CURVE SMOOTH",
"347 359 OFFCURVE",
"352 348 OFFCURVE",
"357 329 CURVE SMOOTH",
"361 317 OFFCURVE",
"367 309 OFFCURVE",
"382 309 CURVE SMOOTH",
"577 309 LINE SMOOTH",
"592 309 OFFCURVE",
"608 321 OFFCURVE",
"610 336 CURVE SMOOTH",
"618 389 OFFCURVE",
"549 530 OFFCURVE",
"348 530 CURVE SMOOTH",
"185 530 OFFCURVE",
"68 448 OFFCURVE",
"29 300 CURVE SMOOTH",
"23 277 OFFCURVE",
"16 240 OFFCURVE",
"12 219 CURVE SMOOTH",
"-11 71 OFFCURVE",
"110 -10 OFFCURVE",
"253 -10 CURVE SMOOTH",
"484 -10 OFFCURVE",
"565 141 OFFCURVE",
"578 184 CURVE SMOOTH",
"582 199 OFFCURVE",
"571 211 OFFCURVE",
"556 211 CURVE SMOOTH",
"361 211 LINE SMOOTH",
"346 211 OFFCURVE",
"336 203 OFFCURVE",
"328 191 CURVE SMOOTH",
"316 172 OFFCURVE",
"309 161 OFFCURVE",
"285 161 CURVE SMOOTH",
"254 161 OFFCURVE",
"251 181 OFFCURVE",
"258 224 CURVE SMOOTH",
"261 243 OFFCURVE",
"266 266 OFFCURVE"
);
}
);
width = 621;
}
);
leftKerningGroup = o;
rightKerningGroup = c;
unicode = 0063;
},
{
glyphname = ccedilla;
lastChange = "2015-10-21 15:52:37 +0000";
layers = (
{
hints = (
{
horizontal = 1;
origin = "{0, 0}";
type = Tag;
name = hr00;
}
);
layerId = "E313AEA5-9794-4496-8824-D26DD01CDD19";
name = "Light Italic";
paths = (
{
closed = 1;
nodes = (
"117 295 CURVE SMOOTH",
"148 420 OFFCURVE",
"230 472 OFFCURVE",
"321 472 CURVE SMOOTH",
"396 472 OFFCURVE",
"443 441 OFFCURVE",
"440 365 CURVE SMOOTH",
"439 349 OFFCURVE",
"446 344 OFFCURVE",
"460 344 CURVE",
"479 344 LINE",
"491 344 OFFCURVE",
"499 353 OFFCURVE",
"500 366 CURVE SMOOTH",
"508 438 OFFCURVE",
"467 530 OFFCURVE",
"321 530 CURVE SMOOTH",
"180 530 OFFCURVE",
"92 443 OFFCURVE",
"57 300 CURVE SMOOTH",
"52 280 OFFCURVE",
"44 240 OFFCURVE",
"40 220 CURVE SMOOTH",
"17 97 OFFCURVE",
"68 15 OFFCURVE",
"166 -5 CURVE",
"135 -53 LINE",
"129 -63 OFFCURVE",
"119 -75 OFFCURVE",
"124 -83 CURVE",
"136 -100 LINE",
"148 -116 OFFCURVE",
"165 -96 OFFCURVE",
"197 -96 CURVE SMOOTH",
"220 -96 OFFCURVE",
"237 -110 OFFCURVE",
"232 -134 CURVE SMOOTH",
"227 -159 OFFCURVE",
"204 -174 OFFCURVE",
"181 -174 CURVE SMOOTH",
"134 -174 OFFCURVE",
"133 -142 OFFCURVE",
"116 -156 CURVE",
"100 -169 LINE",
"80 -184 OFFCURVE",
"124 -220 OFFCURVE",
"181 -220 CURVE SMOOTH",
"239 -220 OFFCURVE",
"272 -183 OFFCURVE",
"282 -135 CURVE SMOOTH",
"293 -87 OFFCURVE",
"264 -50 OFFCURVE",
"225 -50 CURVE SMOOTH",
"210 -50 OFFCURVE",
"194 -52 OFFCURVE",
"185 -57 CURVE",
"219 -10 LINE",
"359 -9 OFFCURVE",
"432 77 OFFCURVE",
"453 149 CURVE SMOOTH",
"457 162 OFFCURVE",
"450 171 OFFCURVE",
"438 171 CURVE",
"420 171 LINE",
"406 171 OFFCURVE",
"402 167 OFFCURVE",
"393 150 CURVE SMOOTH",
"354 74 OFFCURVE",
"288 48 OFFCURVE",
"218 48 CURVE SMOOTH",
"127 48 OFFCURVE",
"80 100 OFFCURVE",
"102 225 CURVE SMOOTH",
"106 245 OFFCURVE",
"112 275 OFFCURVE"
);
}
);
width = 535;
},
{
hints = (
{
horizontal = 1;
place = "{9223372036854775808.000000, 0.000000}";
type = Tag;
name = hr01;
},
{
horizontal = 1;
place = "{9223372036854775808.000000, 0.000000}";
type = Tag;
name = hr02;
}
);
layerId = "8D1576CD-C92F-4A10-BFAA-527F596A391A";
name = "Bold Italic";
paths = (
{
closed = 1;
nodes = (
"273 295 CURVE SMOOTH",
"283 335 OFFCURVE",
"296 359 OFFCURVE",
"327 359 CURVE SMOOTH",
"347 359 OFFCURVE",
"352 348 OFFCURVE",
"357 329 CURVE SMOOTH",
"361 317 OFFCURVE",
"367 309 OFFCURVE",
"382 309 CURVE",
"577 309 LINE",
"592 309 OFFCURVE",
"608 321 OFFCURVE",
"610 336 CURVE SMOOTH",
"618 389 OFFCURVE",
"549 530 OFFCURVE",
"348 530 CURVE SMOOTH",
"185 530 OFFCURVE",
"68 448 OFFCURVE",
"29 300 CURVE SMOOTH",
"23 277 OFFCURVE",
"16 240 OFFCURVE",
"12 219 CURVE SMOOTH",
"-8 94 OFFCURVE",
"75 18 OFFCURVE",
"186 -3 CURVE",
"161 -42 LINE",
"148 -61 OFFCURVE",
"148 -69 OFFCURVE",
"155 -78 CURVE",
"176 -106 LINE",
"186 -119 OFFCURVE",
"212 -106 OFFCURVE",
"230 -106 CURVE SMOOTH",
"250 -106 OFFCURVE",
"255 -118 OFFCURVE",
"253 -130 CURVE SMOOTH",
"250 -142 OFFCURVE",
"239 -154 OFFCURVE",
"220 -154 CURVE SMOOTH",
"186 -154 OFFCURVE",
"185 -136 OFFCURVE",
"164 -151 CURVE",
"140 -169 LINE",
"112 -189 OFFCURVE",
"163 -220 OFFCURVE",
"216 -220 CURVE SMOOTH",
"276 -220 OFFCURVE",
"312 -188 OFFCURVE",
"323 -135 CURVE SMOOTH",
"334 -82 OFFCURVE",
"313 -40 OFFCURVE",
"262 -40 CURVE SMOOTH",
"258 -40 OFFCURVE",
"240 -42 OFFCURVE",
"231 -45 CURVE",
"256 -10 LINE",
"485 -8 OFFCURVE",
"565 141 OFFCURVE",
"578 184 CURVE SMOOTH",
"582 199 OFFCURVE",
"571 211 OFFCURVE",
"556 211 CURVE",
"361 211 LINE",
"346 211 OFFCURVE",
"336 203 OFFCURVE",
"328 191 CURVE SMOOTH",
"316 172 OFFCURVE",
"309 161 OFFCURVE",
"285 161 CURVE SMOOTH",
"254 161 OFFCURVE",
"251 181 OFFCURVE",
"258 224 CURVE SMOOTH",
"261 243 OFFCURVE",
"266 266 OFFCURVE"
);
}
);
width = 621;
}
);
leftKerningGroup = o;
rightKerningGroup = c;
unicode = 00E7;
},
{
glyphname = d;
lastChange = "2015-10-21 15:52:37 +0000";
layers = (
{
hints = (
{
horizontal = 1;
origin = "{0, 16}";
type = Tag;
name = hr01;
},
{
horizontal = 1;
origin = "{1, 3}";
type = Tag;
name = hr02;
}
);
layerId = "E313AEA5-9794-4496-8824-D26DD01CDD19";
name = "Light Italic";
paths = (
{
closed = 1;
nodes = (
"314 530 CURVE SMOOTH",
"153 530 OFFCURVE",
"82 404 OFFCURVE",
"52 288 CURVE SMOOTH",
"47 268 OFFCURVE",
"43 252 OFFCURVE",
"40 232 CURVE SMOOTH",
"22 115 OFFCURVE",
"56 -10 OFFCURVE",
"211 -10 CURVE SMOOTH",
"299 -10 OFFCURVE",
"345 24 OFFCURVE",
"387 69 CURVE",
"377 22 LINE SMOOTH",
"374 9 OFFCURVE",
"382 0 OFFCURVE",
"395 0 CURVE SMOOTH",
"412 0 LINE SMOOTH",
"425 0 OFFCURVE",
"435 9 OFFCURVE",
"438 22 CURVE SMOOTH",
"580 688 LINE SMOOTH",
"583 701 OFFCURVE",
"575 710 OFFCURVE",
"562 710 CURVE SMOOTH",
"545 710 LINE SMOOTH",
"532 710 OFFCURVE",
"522 701 OFFCURVE",
"519 688 CURVE SMOOTH",
"468 451 LINE",
"445 495 OFFCURVE",
"402 530 OFFCURVE"
);
},
{
closed = 1;
nodes = (
"420 224 CURVE SMOOTH",
"400 142 OFFCURVE",
"325 48 OFFCURVE",
"211 48 CURVE SMOOTH",
"102 48 OFFCURVE",
"87 136 OFFCURVE",
"102 232 CURVE SMOOTH",
"105 252 OFFCURVE",
"108 268 OFFCURVE",
"114 288 CURVE SMOOTH",
"142 383 OFFCURVE",
"205 472 OFFCURVE",
"314 472 CURVE SMOOTH",
"425 472 OFFCURVE",
"452 382 OFFCURVE",
"437 302 CURVE SMOOTH",
"433 282 OFFCURVE",
"425 244 OFFCURVE"
);
}
);
width = 579;
},
{
hints = (
{
horizontal = 1;
place = "{9223372036854775808.000000, 0.000000}";
type = Tag;
name = hr01;
},
{
horizontal = 1;
place = "{9223372036854775808.000000, 0.000000}";
type = Tag;
name = hr02;
}
);
layerId = "8D1576CD-C92F-4A10-BFAA-527F596A391A";
name = "Bold Italic";
paths = (
{
closed = 1;
nodes = (
"283 530 CURVE SMOOTH",
"167 530 OFFCURVE",
"72 457 OFFCURVE",
"32 300 CURVE SMOOTH",
"25 270 OFFCURVE",
"21 251 OFFCURVE",
"15 221 CURVE SMOOTH",
"-13 54 OFFCURVE",
"72 -10 OFFCURVE",
"188 -10 CURVE SMOOTH",
"257 -10 OFFCURVE",
"299 14 OFFCURVE",
"339 50 CURVE",
"334 27 LINE SMOOTH",
"331 12 OFFCURVE",
"341 0 OFFCURVE",
"356 0 CURVE SMOOTH",
"526 0 LINE SMOOTH",
"541 0 OFFCURVE",
"555 12 OFFCURVE",
"558 27 CURVE SMOOTH",
"698 683 LINE SMOOTH",
"701 698 OFFCURVE",
"691 710 OFFCURVE",
"676 710 CURVE SMOOTH",
"491 710 LINE SMOOTH",
"476 710 OFFCURVE",
"462 698 OFFCURVE",
"459 683 CURVE SMOOTH",
"417 483 LINE",
"391 512 OFFCURVE",
"339 530 OFFCURVE"
);
},
{
closed = 1;
nodes = (
"276 293 CURVE SMOOTH",
"287 329 OFFCURVE",
"301 351 OFFCURVE",
"338 351 CURVE SMOOTH",
"372 351 OFFCURVE",
"382 333 OFFCURVE",
"377 301 CURVE SMOOTH",
"373 271 OFFCURVE",
"370 257 OFFCURVE",
"362 227 CURVE SMOOTH",
"352 191 OFFCURVE",
"336 169 OFFCURVE",
"299 169 CURVE SMOOTH",
"262 169 OFFCURVE",
"258 191 OFFCURVE",
"262 227 CURVE SMOOTH",
"264 247 OFFCURVE",
"270 273 OFFCURVE"
);
}
);
width = 661;
}
);
leftKerningGroup = d;
rightKerningGroup = d;
unicode = 0064;
},
{
glyphname = eth;
lastChange = "2015-10-21 15:52:37 +0000";
layers = (
{
hints = (
{
horizontal = 1;
origin = "{0, 0}";
type = Tag;
name = hr00;
}
);
layerId = "E313AEA5-9794-4496-8824-D26DD01CDD19";
name = "Light Italic";
paths = (
{
closed = 1;
nodes = (
"523 596 LINE SMOOTH",
"540 602 OFFCURVE",
"547 606 OFFCURVE",
"550 621 CURVE",
"555 645 LINE SMOOTH",
"559 663 OFFCURVE",
"542 666 OFFCURVE",
"529 661 CURVE SMOOTH",
"425 624 LINE",
"409 645 OFFCURVE",
"390 666 OFFCURVE",
"371 687 CURVE",
"362 695 OFFCURVE",
"353 700 OFFCURVE",
"337 700 CURVE SMOOTH",
"317 700 LINE SMOOTH",
"299 700 OFFCURVE",
"284 679 OFFCURVE",
"305 658 CURVE SMOOTH",
"324 638 OFFCURVE",
"343 619 OFFCURVE",
"359 600 CURVE",
"293 577 LINE SMOOTH",
"275 571 OFFCURVE",
"268 567 OFFCURVE",
"265 552 CURVE SMOOTH",
"260 528 LINE SMOOTH",
"256 509 OFFCURVE",
"275 508 OFFCURVE",
"286 512 CURVE SMOOTH",
"395 550 LINE",
"415 516 OFFCURVE",
"428 478 OFFCURVE",
"433 431 CURVE",
"404 456 OFFCURVE",
"356 470 OFFCURVE",
"303 470 CURVE SMOOTH",
"159 470 OFFCURVE",
"68 368 OFFCURVE",
"40 231 CURVE",
"9 94 OFFCURVE",
"68 -10 OFFCURVE",
"212 -10 CURVE SMOOTH",
"366 -10 OFFCURVE",
"449 94 OFFCURVE",
"478 231 CURVE",
"512 401 OFFCURVE",
"498 498 OFFCURVE",
"458 573 CURVE"
);
},
{
closed = 1;
nodes = (
"417 231 CURVE SMOOTH",
"395 130 OFFCURVE",
"317 48 OFFCURVE",
"212 48 CURVE SMOOTH",
"107 48 OFFCURVE",
"79 130 OFFCURVE",
"101 231 CURVE SMOOTH",
"122 332 OFFCURVE",
"198 412 OFFCURVE",
"303 412 CURVE SMOOTH",
"408 412 OFFCURVE",
"438 332 OFFCURVE"
);
}
);
width = 553;
},
{
hints = (
{
horizontal = 1;
place = "{9223372036854775808.000000, 0.000000}";
type = Tag;
name = hr01;
}
);
layerId = "8D1576CD-C92F-4A10-BFAA-527F596A391A";
name = "Bold Italic";
paths = (
{
closed = 1;
nodes = (
"585 217 CURVE SMOOTH",
"591 237 OFFCURVE",
"595 260 OFFCURVE",
"599 280 CURVE",
"621 417 OFFCURVE",
"603 521 OFFCURVE",
"557 600 CURVE",
"603 617 LINE",
"620 623 OFFCURVE",
"628 632 OFFCURVE",
"632 650 CURVE",
"638 678 LINE",
"640 690 OFFCURVE",
"633 699 OFFCURVE",
"621 699 CURVE SMOOTH",
"619 699 OFFCURVE",
"615 698 OFFCURVE",
"609 696 CURVE",
"512 661 LINE",
"504 670 OFFCURVE",
"494 679 OFFCURVE",
"485 687 CURVE SMOOTH",
"476 694 OFFCURVE",
"461 700 OFFCURVE",
"434 700 CURVE",
"246 700 LINE",
"234 700 OFFCURVE",
"222 690 OFFCURVE",
"220 678 CURVE SMOOTH",
"219 673 OFFCURVE",
"221 665 OFFCURVE",
"229 659 CURVE SMOOTH",
"256 637 OFFCURVE",
"282 613 OFFCURVE",
"303 586 CURVE",
"223 557 LINE",
"206 551 OFFCURVE",
"198 542 OFFCURVE",
"194 524 CURVE",
"188 496 LINE",
"185 484 OFFCURVE",
"192 475 OFFCURVE",
"204 475 CURVE SMOOTH",
"206 475 OFFCURVE",
"211 476 OFFCURVE",
"216 478 CURVE",
"344 524 LINE",
"352 506 OFFCURVE",
"358 488 OFFCURVE",
"362 470 CURVE",
"348 470 LINE",
"185 470 OFFCURVE",
"48 404 OFFCURVE",
"13 242 CURVE SMOOTH",
"-21 80 OFFCURVE",
"102 -10 OFFCURVE",
"266 -10 CURVE SMOOTH",
"449 -10 OFFCURVE",
"543 60 OFFCURVE"
);
},
{
closed = 1;
nodes = (
"247 204 CURVE SMOOTH",
"250 224 OFFCURVE",
"253 236 OFFCURVE",
"258 256 CURVE SMOOTH",
"267 288 OFFCURVE",
"277 310 OFFCURVE",
"314 310 CURVE SMOOTH",
"351 310 OFFCURVE",
"353 288 OFFCURVE",
"348 256 CURVE SMOOTH",
"345 236 OFFCURVE",
"342 223 OFFCURVE",
"337 203 CURVE SMOOTH",
"329 171 OFFCURVE",
"314 150 OFFCURVE",
"280 150 CURVE SMOOTH",
"243 150 OFFCURVE",
"241 171 OFFCURVE"
);
}
);
width = 634;
}
);
unicode = 00F0;
},
{
glyphname = dcroat;
lastChange = "2015-10-21 15:52:37 +0000";
layers = (
{
hints = (
{
horizontal = 1;
origin = "{0, 16}";
type = Tag;
name = hr01;
},
{
horizontal = 1;
origin = "{1, 3}";
type = Tag;
name = hr02;
}
);
layerId = "E313AEA5-9794-4496-8824-D26DD01CDD19";
name = "Light Italic";
paths = (
{
closed = 1;
nodes = (
"319 530 CURVE SMOOTH",
"143 530 OFFCURVE",
"77 385 OFFCURVE",
"54 288 CURVE SMOOTH",
"48 268 OFFCURVE",
"45 252 OFFCURVE",
"42 232 CURVE SMOOTH",
"24 135 OFFCURVE",
"28 -10 OFFCURVE",
"204 -10 CURVE SMOOTH",
"287 -10 OFFCURVE",
"347 24 OFFCURVE",
"389 69 CURVE",
"379 22 LINE SMOOTH",
"376 9 OFFCURVE",
"384 0 OFFCURVE",
"397 0 CURVE SMOOTH",
"414 0 LINE SMOOTH",
"427 0 OFFCURVE",
"437 9 OFFCURVE",
"440 22 CURVE SMOOTH",
"557 571 LINE",
"615 571 LINE SMOOTH",
"628 571 OFFCURVE",
"639 580 OFFCURVE",
"642 593 CURVE SMOOTH",
"645 607 LINE SMOOTH",
"647 620 OFFCURVE",
"640 629 OFFCURVE",
"627 629 CURVE SMOOTH",
"569 629 LINE",
"582 688 LINE SMOOTH",
"585 701 OFFCURVE",
"577 710 OFFCURVE",
"564 710 CURVE SMOOTH",
"547 710 LINE SMOOTH",
"534 710 OFFCURVE",
"524 701 OFFCURVE",
"521 688 CURVE SMOOTH",
"508 629 LINE",
"450 629 LINE SMOOTH",
"437 629 OFFCURVE",
"426 620 OFFCURVE",
"424 607 CURVE SMOOTH",
"421 593 LINE SMOOTH",
"418 580 OFFCURVE",
"425 571 OFFCURVE",
"438 571 CURVE SMOOTH",
"496 571 LINE",
"470 451 LINE",
"447 495 OFFCURVE",
"402 530 OFFCURVE"
);
},
{
closed = 1;
nodes = (
"422 224 CURVE SMOOTH",
"402 142 OFFCURVE",
"337 48 OFFCURVE",
"223 48 CURVE SMOOTH",
"106 48 OFFCURVE",
"85 136 OFFCURVE",
"103 232 CURVE SMOOTH",
"106 252 OFFCURVE",
"109 268 OFFCURVE",
"115 288 CURVE SMOOTH",
"138 384 OFFCURVE",
"196 472 OFFCURVE",
"313 472 CURVE SMOOTH",
"424 472 OFFCURVE",
"454 382 OFFCURVE",
"439 302 CURVE SMOOTH",
"435 282 OFFCURVE",
"427 244 OFFCURVE"
);
}
);
width = 580;
},
{
hints = (
{
horizontal = 1;
place = "{9223372036854775808.000000, 0.000000}";
type = Tag;
name = hr01;
},
{
horizontal = 1;
place = "{9223372036854775808.000000, 0.000000}";
type = Tag;
name = hr02;
},
{
horizontal = 1;
place = "{9223372036854775808.000000, 0.000000}";
type = Tag;
name = hr03;
}
);
layerId = "8D1576CD-C92F-4A10-BFAA-527F596A391A";
name = "Bold Italic";
paths = (
{
closed = 1;
nodes = (
"292 530 CURVE SMOOTH",
"176 530 OFFCURVE",
"71 457 OFFCURVE",
"31 300 CURVE SMOOTH",
"24 270 OFFCURVE",
"20 251 OFFCURVE",
"14 221 CURVE SMOOTH",
"-14 54 OFFCURVE",
"61 -10 OFFCURVE",
"177 -10 CURVE SMOOTH",
"246 -10 OFFCURVE",
"301 18 OFFCURVE",
"340 57 CURVE",
"333 27 LINE SMOOTH",
"330 12 OFFCURVE",
"340 0 OFFCURVE",
"355 0 CURVE SMOOTH",
"525 0 LINE SMOOTH",
"540 0 OFFCURVE",
"554 12 OFFCURVE",
"557 27 CURVE SMOOTH",
"668 548 LINE",
"698 548 LINE SMOOTH",
"713 548 OFFCURVE",
"728 560 OFFCURVE",
"731 575 CURVE SMOOTH",
"742 626 LINE SMOOTH",
"745 641 OFFCURVE",
"735 653 OFFCURVE",
"720 653 CURVE SMOOTH",
"690 653 LINE",
"697 683 LINE SMOOTH",
"700 698 OFFCURVE",
"690 710 OFFCURVE",
"675 710 CURVE SMOOTH",
"490 710 LINE SMOOTH",
"475 710 OFFCURVE",
"461 698 OFFCURVE",
"458 683 CURVE SMOOTH",
"451 653 LINE",
"421 653 LINE SMOOTH",
"406 653 OFFCURVE",
"392 641 OFFCURVE",
"389 626 CURVE SMOOTH",
"378 575 LINE SMOOTH",
"375 560 OFFCURVE",
"384 548 OFFCURVE",
"399 548 CURVE SMOOTH",
"429 548 LINE",
"415 483 LINE",
"389 512 OFFCURVE",
"348 530 OFFCURVE"
);
},
{
closed = 1;
nodes = (
"275 293 CURVE SMOOTH",
"286 329 OFFCURVE",
"300 351 OFFCURVE",
"337 351 CURVE SMOOTH",
"371 351 OFFCURVE",
"381 333 OFFCURVE",
"376 301 CURVE SMOOTH",
"372 271 OFFCURVE",
"369 257 OFFCURVE",
"361 227 CURVE SMOOTH",
"351 191 OFFCURVE",
"335 169 OFFCURVE",
"298 169 CURVE SMOOTH",
"261 169 OFFCURVE",
"257 191 OFFCURVE",
"261 227 CURVE SMOOTH",
"263 247 OFFCURVE",
"269 273 OFFCURVE"
);
}
);
width = 661;
}
);
leftKerningGroup = d;
rightKerningGroup = d;
unicode = 0111;
},
{
glyphname = e;
lastChange = "2015-10-21 15:52:37 +0000";
layers = (
{
hints = (
{
horizontal = 1;
origin = "{0, 0}";
type = Tag;
name = hr00;
}
);
layerId = "E313AEA5-9794-4496-8824-D26DD01CDD19";
name = "Light Italic";
paths = (
{
closed = 1;
nodes = (
"55 300 CURVE SMOOTH",
"50 280 OFFCURVE",
"41 240 OFFCURVE",
"38 220 CURVE SMOOTH",
"18 84 OFFCURVE",
"94 -10 OFFCURVE",
"215 -10 CURVE SMOOTH",
"361 -10 OFFCURVE",
"431 73 OFFCURVE",
"441 111 CURVE",
"445 123 OFFCURVE",
"436 131 OFFCURVE",
"424 131 CURVE SMOOTH",
"408 131 LINE SMOOTH",
"393 131 OFFCURVE",
"390 130 OFFCURVE",
"375 113 CURVE SMOOTH",
"360 97 OFFCURVE",
"320 48 OFFCURVE",
"215 48 CURVE SMOOTH",
"103 48 OFFCURVE",
"85 136 OFFCURVE",
"103 235 CURVE",
"459 235 LINE SMOOTH",
"472 235 OFFCURVE",
"484 244 OFFCURVE",
"487 257 CURVE SMOOTH",
"490 272 LINE SMOOTH",
"522 432 OFFCURVE",
"462 530 OFFCURVE",
"318 530 CURVE SMOOTH",
"193 530 OFFCURVE",
"90 436 OFFCURVE"
);
},
{
closed = 1;
nodes = (
"115 291 LINE",
"136 391 OFFCURVE",
"218 472 OFFCURVE",
"318 472 CURVE SMOOTH",
"423 472 OFFCURVE",
"457 393 OFFCURVE",
"433 291 CURVE"
);
}
);
width = 544;
},
{
guideLines = (
{
position = "{0, -10}";
},
{
angle = 90;
position = "{544, 0}";
}
);
hints = (
{
horizontal = 1;
place = "{9223372036854775808.000000, 0.000000}";
type = Tag;
name = hr01;
}
);
layerId = "8D1576CD-C92F-4A10-BFAA-527F596A391A";
name = "Bold Italic";
paths = (
{
closed = 1;
nodes = (
"549 201 LINE SMOOTH",
"564 201 OFFCURVE",
"579 213 OFFCURVE",
"582 228 CURVE SMOOTH",
"588 258 LINE SMOOTH",
"618 406 OFFCURVE",
"537 530 OFFCURVE",
"351 530 CURVE SMOOTH",
"168 530 OFFCURVE",
"56 435 OFFCURVE",
"19 259 CURVE SMOOTH",
"-21 72 OFFCURVE",
"92 -10 OFFCURVE",
"257 -10 CURVE SMOOTH",
"452 -10 OFFCURVE",
"537 94 OFFCURVE",
"551 145 CURVE SMOOTH",
"555 158 OFFCURVE",
"547 167 OFFCURVE",
"534 167 CURVE SMOOTH",
"345 167 LINE SMOOTH",
"329 167 OFFCURVE",
"324 165 OFFCURVE",
"309 153 CURVE SMOOTH",
"296 142 OFFCURVE",
"288 135 OFFCURVE",
"276 135 CURVE SMOOTH",
"247 135 OFFCURVE",
"242 156 OFFCURVE",
"250 196 CURVE SMOOTH",
"251 201 LINE"
);
},
{
closed = 1;
nodes = (
"331 390 CURVE SMOOTH",
"357 390 OFFCURVE",
"367 371 OFFCURVE",
"358 326 CURVE",
"278 326 LINE",
"287 371 OFFCURVE",
"305 390 OFFCURVE"
);
}
);
width = 621;
}
);
leftKerningGroup = o;
rightKerningGroup = e;
unicode = 0065;
},
{
glyphname = eogonek;
lastChange = "2015-10-21 15:52:37 +0000";
layers = (
{
hints = (
{
horizontal = 1;
origin = "{0, 0}";
type = Tag;
name = hr00;
}
);
layerId = "E313AEA5-9794-4496-8824-D26DD01CDD19";
name = "Light Italic";
paths = (
{
closed = 1;
nodes = (
"55 300 CURVE SMOOTH",
"50 280 OFFCURVE",
"41 240 OFFCURVE",
"38 220 CURVE SMOOTH",
"22 110 OFFCURVE",
"68 28 OFFCURVE",
"149 0 CURVE",
"130 -21 OFFCURVE",
"117 -49 OFFCURVE",
"111 -82 CURVE SMOOTH",
"96 -167 OFFCURVE",
"156 -220 OFFCURVE",
"227 -220 CURVE",
"233 -220 LINE",
"247 -220 OFFCURVE",
"253 -216 OFFCURVE",
"257 -203 CURVE",
"262 -185 LINE",
"265 -172 OFFCURVE",
"258 -163 OFFCURVE",
"245 -163 CURVE",
"227 -163 LINE",
"193 -163 OFFCURVE",
"160 -133 OFFCURVE",
"171 -82 CURVE SMOOTH",
"179 -42 OFFCURVE",
"210 -12 OFFCURVE",
"246 -9 CURVE",
"371 3 OFFCURVE",
"431 76 OFFCURVE",
"441 111 CURVE SMOOTH",
"445 123 OFFCURVE",
"436 131 OFFCURVE",
"424 131 CURVE",
"408 131 LINE",
"393 131 OFFCURVE",
"390 130 OFFCURVE",
"375 113 CURVE SMOOTH",
"360 97 OFFCURVE",
"320 48 OFFCURVE",
"215 48 CURVE SMOOTH",
"103 48 OFFCURVE",
"85 136 OFFCURVE",
"103 235 CURVE",
"459 235 LINE",
"472 235 OFFCURVE",
"484 244 OFFCURVE",
"487 257 CURVE",
"490 272 LINE",
"522 432 OFFCURVE",
"462 530 OFFCURVE",
"318 530 CURVE SMOOTH",
"193 530 OFFCURVE",
"90 436 OFFCURVE"
);
},
{
closed = 1;
nodes = (
"115 291 LINE",
"136 391 OFFCURVE",
"218 472 OFFCURVE",
"318 472 CURVE SMOOTH",
"423 472 OFFCURVE",
"457 393 OFFCURVE",
"433 291 CURVE"
);
}
);
width = 544;
},
{
hints = (
{
horizontal = 1;
place = "{9223372036854775808.000000, 0.000000}";
type = Tag;
name = hr00;
}
);
layerId = "8D1576CD-C92F-4A10-BFAA-527F596A391A";
name = "Bold Italic";
paths = (
{
closed = 1;
nodes = (
"549 201 LINE",
"564 201 OFFCURVE",
"579 213 OFFCURVE",
"582 228 CURVE",
"588 258 LINE",
"620 405 OFFCURVE",
"537 530 OFFCURVE",
"351 530 CURVE SMOOTH",
"168 530 OFFCURVE",
"56 435 OFFCURVE",
"19 259 CURVE SMOOTH",
"-10 123 OFFCURVE",
"42 43 OFFCURVE",
"135 9 CURVE",
"130 -6 OFFCURVE",
"125 -22 OFFCURVE",
"122 -39 CURVE SMOOTH",
"102 -134 OFFCURVE",
"147 -220 OFFCURVE",
"268 -220 CURVE",
"272 -220 LINE",
"287 -220 OFFCURVE",
"301 -208 OFFCURVE",
"304 -193 CURVE",
"319 -125 LINE",
"322 -110 OFFCURVE",
"313 -98 OFFCURVE",
"298 -98 CURVE",
"288 -98 LINE",
"249 -98 OFFCURVE",
"244 -70 OFFCURVE",
"248 -49 CURVE SMOOTH",
"253 -28 OFFCURVE",
"270 -13 OFFCURVE",
"309 -8 CURVE SMOOTH",
"467 12 OFFCURVE",
"538 99 OFFCURVE",
"551 145 CURVE SMOOTH",
"555 158 OFFCURVE",
"547 167 OFFCURVE",
"534 167 CURVE",
"345 167 LINE",
"329 167 OFFCURVE",
"324 165 OFFCURVE",
"309 153 CURVE SMOOTH",
"296 142 OFFCURVE",
"288 135 OFFCURVE",
"276 135 CURVE SMOOTH",
"247 135 OFFCURVE",
"242 156 OFFCURVE",
"250 196 CURVE",
"251 201 LINE"
);
},
{
closed = 1;
nodes = (
"331 390 CURVE SMOOTH",
"357 390 OFFCURVE",
"367 371 OFFCURVE",
"358 326 CURVE",
"278 326 LINE",
"287 371 OFFCURVE",
"305 390 OFFCURVE"
);
}
);
width = 621;
}
);
leftKerningGroup = o;
rightKerningGroup = e;
unicode = 0119;
},
{
glyphname = f;
lastChange = "2015-10-21 15:52:37 +0000";
layers = (
{
hints = (
{
horizontal = 1;
origin = "{0, 0}";
type = Tag;
name = hr00;
}
);
layerId = "E313AEA5-9794-4496-8824-D26DD01CDD19";
name = "Light Italic";
paths = (
{
closed = 1;
nodes = (
"247 572 LINE SMOOTH",
"262 643 OFFCURVE",
"297 682 OFFCURVE",
"367 682 CURVE SMOOTH",
"412 682 LINE SMOOTH",
"425 682 OFFCURVE",
"436 691 OFFCURVE",
"439 704 CURVE SMOOTH",
"442 718 LINE SMOOTH",
"445 731 OFFCURVE",
"438 740 OFFCURVE",
"425 740 CURVE SMOOTH",
"367 740 LINE SMOOTH",
"263 740 OFFCURVE",
"206 666 OFFCURVE",
"187 577 CURVE SMOOTH",
"175 520 LINE",
"86 520 LINE SMOOTH",
"73 520 OFFCURVE",
"62 511 OFFCURVE",
"59 498 CURVE SMOOTH",
"56 484 LINE SMOOTH",
"54 471 OFFCURVE",
"61 462 OFFCURVE",
"74 462 CURVE SMOOTH",
"163 462 LINE",
"69 22 LINE SMOOTH",
"66 9 OFFCURVE",
"74 0 OFFCURVE",
"87 0 CURVE SMOOTH",
"104 0 LINE SMOOTH",
"117 0 OFFCURVE",
"127 9 OFFCURVE",
"130 22 CURVE SMOOTH",
"224 462 LINE",
"356 462 LINE SMOOTH",
"369 462 OFFCURVE",
"380 471 OFFCURVE",
"382 484 CURVE SMOOTH",
"385 498 LINE SMOOTH",
"388 511 OFFCURVE",
"381 520 OFFCURVE",
"368 520 CURVE SMOOTH",
"236 520 LINE"
);
}
);
width = 356;
},
{
guideLines = (
{
position = "{0, 740}";
},
{
position = "{0, 345}";
},
{
position = "{0, 565}";
},
{
position = "{0, 532}";
},
{
angle = 90;
position = "{428, 0}";
},
{
angle = 90;
position = "{320, 0}";
}
);
hints = (
{
horizontal = 1;
place = "{9223372036854775808.000000, 0.000000}";
type = Tag;
name = hr00;
}
);
layerId = "8D1576CD-C92F-4A10-BFAA-527F596A391A";
name = "Bold Italic";
paths = (
{
closed = 1;
nodes = (
"391 532 LINE SMOOTH",
"395 553 OFFCURVE",
"411 565 OFFCURVE",
"441 565 CURVE SMOOTH",
"522 565 LINE SMOOTH",
"537 565 OFFCURVE",
"551 577 OFFCURVE",
"554 592 CURVE SMOOTH",
"580 713 LINE SMOOTH",
"583 728 OFFCURVE",
"574 740 OFFCURVE",
"559 740 CURVE SMOOTH",
"446 740 LINE SMOOTH",
"301 740 OFFCURVE",
"198 701 OFFCURVE",
"163 537 CURVE SMOOTH",
"159 520 LINE",
"90 520 LINE SMOOTH",
"75 520 OFFCURVE",
"60 508 OFFCURVE",
"57 493 CURVE SMOOTH",
"32 372 LINE SMOOTH",
"28 357 OFFCURVE",
"38 345 OFFCURVE",
"53 345 CURVE SMOOTH",
"122 345 LINE",
"54 27 LINE SMOOTH",
"51 12 OFFCURVE",
"61 0 OFFCURVE",
"76 0 CURVE SMOOTH",
"251 0 LINE SMOOTH",
"266 0 OFFCURVE",
"280 12 OFFCURVE",
"283 27 CURVE SMOOTH",
"351 345 LINE",
"465 345 LINE SMOOTH",
"480 345 OFFCURVE",
"494 357 OFFCURVE",
"498 372 CURVE SMOOTH",
"523 493 LINE SMOOTH",
"526 508 OFFCURVE",
"517 520 OFFCURVE",
"502 520 CURVE SMOOTH",
"388 520 LINE"
);
}
);
width = 491;
}
);
leftKerningGroup = f;
rightKerningGroup = f;
unicode = 0066;
},
{
glyphname = g;
lastChange = "2015-10-21 15:52:37 +0000";
layers = (
{
hints = (
{
horizontal = 1;
origin = "{0, 28}";
type = Tag;
name = hr01;
}
);
layerId = "E313AEA5-9794-4496-8824-D26DD01CDD19";
name = "Light Italic";
paths = (
{
closed = 1;
nodes = (
"166 -162 CURVE SMOOTH",
"62 -162 OFFCURVE",
"46 -103 OFFCURVE",
"45 -71 CURVE SMOOTH",
"44 -53 OFFCURVE",
"36 -50 OFFCURVE",
"26 -50 CURVE SMOOTH",
"7 -50 LINE SMOOTH",
"-5 -50 OFFCURVE",
"-13 -60 OFFCURVE",
"-15 -73 CURVE SMOOTH",
"-22 -113 OFFCURVE",
"1 -220 OFFCURVE",
"166 -220 CURVE SMOOTH",
"359 -220 OFFCURVE",
"409 -118 OFFCURVE",
"436 10 CURVE SMOOTH",
"539 497 LINE SMOOTH",
"542 510 OFFCURVE",
"534 520 OFFCURVE",
"521 520 CURVE SMOOTH",
"505 520 LINE SMOOTH",
"492 520 OFFCURVE",
"481 510 OFFCURVE",
"478 497 CURVE SMOOTH",
"468 451 LINE",
"445 495 OFFCURVE",
"396 530 OFFCURVE",
"314 530 CURVE SMOOTH",
"155 530 OFFCURVE",
"83 404 OFFCURVE",
"52 288 CURVE SMOOTH",
"47 268 OFFCURVE",
"43 252 OFFCURVE",
"40 232 CURVE SMOOTH",
"20 115 OFFCURVE",
"52 -10 OFFCURVE",
"212 -10 CURVE SMOOTH",
"294 -10 OFFCURVE",
"345 24 OFFCURVE",
"387 69 CURVE",
"373 0 LINE SMOOTH",
"347 -127 OFFCURVE",
"260 -162 OFFCURVE"
);
},
{
closed = 1;
nodes = (
"435 296 CURVE SMOOTH",
"432 276 OFFCURVE",
"425 244 OFFCURVE",
"420 224 CURVE SMOOTH",
"399 142 OFFCURVE",
"324 48 OFFCURVE",
"212 48 CURVE SMOOTH",
"98 48 OFFCURVE",
"85 136 OFFCURVE",
"101 232 CURVE SMOOTH",
"104 252 OFFCURVE",
"108 268 OFFCURVE",
"113 288 CURVE SMOOTH",
"139 383 OFFCURVE",
"205 472 OFFCURVE",
"314 472 CURVE SMOOTH",
"428 472 OFFCURVE",
"449 378 OFFCURVE"
);
}
);
width = 579;
},
{
guideLines = (
{
position = "{0, 530}";
},
{
position = "{0, -220}";
},
{
position = "{0, 351}";
},
{
angle = 90;
position = "{325, 0}";
},
{
angle = 78;
position = "{339, 0}";
}
);
hints = (
{
horizontal = 1;
place = "{9223372036854775808.000000, 0.000000}";
type = Tag;
name = hr01;
},
{
horizontal = 1;
place = "{9223372036854775808.000000, 0.000000}";
type = Tag;
name = hr02;
},
{
horizontal = 1;
place = "{9223372036854775808.000000, 0.000000}";
type = Tag;
name = hr03;
}
);
layerId = "8D1576CD-C92F-4A10-BFAA-527F596A391A";
name = "Bold Italic";
paths = (
{
closed = 1;
nodes = (
"20 249 CURVE",
"-6 82 OFFCURVE",
"68 23 OFFCURVE",
"194 23 CURVE SMOOTH",
"252 23 OFFCURVE",
"290 39 OFFCURVE",
"327 66 CURVE",
"313 0 LINE",
"304 -40 OFFCURVE",
"286 -59 OFFCURVE",
"257 -59 CURVE SMOOTH",
"233 -59 OFFCURVE",
"226 -51 OFFCURVE",
"220 -34 CURVE SMOOTH",
"217 -22 OFFCURVE",
"212 -14 OFFCURVE",
"197 -14 CURVE",
"2 -14 LINE",
"-13 -14 OFFCURVE",
"-29 -26 OFFCURVE",
"-31 -41 CURVE SMOOTH",
"-37 -84 OFFCURVE",
"22 -220 OFFCURVE",
"238 -220 CURVE SMOOTH",
"406 -220 OFFCURVE",
"525 -151 OFFCURVE",
"561 17 CURVE",
"661 493 LINE",
"664 508 OFFCURVE",
"655 520 OFFCURVE",
"640 520 CURVE",
"465 520 LINE",
"450 520 OFFCURVE",
"435 508 OFFCURVE",
"432 493 CURVE",
"425 462 LINE",
"401 502 OFFCURVE",
"347 530 OFFCURVE",
"282 530 CURVE SMOOTH",
"156 530 OFFCURVE",
"73 457 OFFCURVE",
"31 300 CURVE",
"26 280 OFFCURVE",
"24 269 OFFCURVE"
);
},
{
closed = 1;
nodes = (
"376 301 CURVE SMOOTH",
"375 291 OFFCURVE",
"368 257 OFFCURVE",
"365 247 CURVE SMOOTH",
"355 215 OFFCURVE",
"338 197 OFFCURVE",
"304 197 CURVE SMOOTH",
"267 197 OFFCURVE",
"262 219 OFFCURVE",
"267 255 CURVE SMOOTH",
"268 265 OFFCURVE",
"272 283 OFFCURVE",
"275 293 CURVE",
"285 329 OFFCURVE",
"300 351 OFFCURVE",
"337 351 CURVE SMOOTH",
"371 351 OFFCURVE",
"380 333 OFFCURVE"
);
}
);
width = 665;
}
);
leftKerningGroup = g;
rightKerningGroup = u;
unicode = 0067;
},
{
glyphname = h;
lastChange = "2015-10-21 15:52:37 +0000";
layers = (
{
hints = (
{
horizontal = 1;
origin = "{0, 0}";
type = Tag;
name = hr00;
}
);
layerId = "E313AEA5-9794-4496-8824-D26DD01CDD19";
name = "Light Italic";
paths = (
{
closed = 1;
nodes = (
"226 688 LINE SMOOTH",
"229 701 OFFCURVE",
"221 710 OFFCURVE",
"208 710 CURVE SMOOTH",
"191 710 LINE SMOOTH",
"178 710 OFFCURVE",
"168 701 OFFCURVE",
"165 688 CURVE SMOOTH",
"23 22 LINE SMOOTH",
"20 9 OFFCURVE",
"28 0 OFFCURVE",
"41 0 CURVE SMOOTH",
"58 0 LINE SMOOTH",
"71 0 OFFCURVE",
"81 9 OFFCURVE",
"84 22 CURVE SMOOTH",
"143 301 LINE SMOOTH",
"166 408 OFFCURVE",
"254 472 OFFCURVE",
"349 472 CURVE SMOOTH",
"449 472 OFFCURVE",
"477 407 OFFCURVE",
"454 301 CURVE SMOOTH",
"395 22 LINE SMOOTH",
"392 9 OFFCURVE",
"400 0 OFFCURVE",
"413 0 CURVE SMOOTH",
"430 0 LINE SMOOTH",
"443 0 OFFCURVE",
"453 9 OFFCURVE",
"456 22 CURVE SMOOTH",
"517 306 LINE SMOOTH",
"544 433 OFFCURVE",
"490 530 OFFCURVE",
"349 530 CURVE SMOOTH",
"266 530 OFFCURVE",
"216 498 OFFCURVE",
"175 451 CURVE"
);
}
);
width = 591;
},
{
guideLines = (
{
position = "{0, 296}";
},
{
angle = 90;
position = "{402, 0}";
}
);
hints = (
{
horizontal = 1;
place = "{9223372036854775808.000000, 0.000000}";
type = Tag;
name = hr00;
}
);
layerId = "8D1576CD-C92F-4A10-BFAA-527F596A391A";
name = "Bold Italic";
paths = (
{
closed = 1;
nodes = (
"294 296 LINE SMOOTH",
"302 332 OFFCURVE",
"325 351 OFFCURVE",
"357 351 CURVE SMOOTH",
"389 351 OFFCURVE",
"403 332 OFFCURVE",
"395 296 CURVE SMOOTH",
"338 27 LINE SMOOTH",
"335 12 OFFCURVE",
"345 0 OFFCURVE",
"360 0 CURVE SMOOTH",
"556 0 LINE SMOOTH",
"571 0 OFFCURVE",
"585 12 OFFCURVE",
"588 27 CURVE SMOOTH",
"647 303 LINE SMOOTH",
"680 461 OFFCURVE",
"597 530 OFFCURVE",
"486 530 CURVE SMOOTH",
"424 530 OFFCURVE",
"374 506 OFFCURVE",
"331 468 CURVE",
"377 683 LINE SMOOTH",
"380 698 OFFCURVE",
"370 710 OFFCURVE",
"355 710 CURVE SMOOTH",
"160 710 LINE SMOOTH",
"145 710 OFFCURVE",
"131 698 OFFCURVE",
"128 683 CURVE SMOOTH",
"-12 27 LINE SMOOTH",
"-15 12 OFFCURVE",
"-5 0 OFFCURVE",
"10 0 CURVE SMOOTH",
"205 0 LINE SMOOTH",
"220 0 OFFCURVE",
"234 12 OFFCURVE",
"237 27 CURVE SMOOTH"
);
}
);
width = 685;
}
);
leftKerningGroup = h;
rightKerningGroup = n;
unicode = 0068;
},
{
glyphname = hbar;
lastChange = "2015-10-21 15:52:37 +0000";
layers = (
{
hints = (
{
horizontal = 1;
origin = "{0, 0}";
type = Tag;
name = hr00;
}
);
layerId = "E313AEA5-9794-4496-8824-D26DD01CDD19";
name = "Light Italic";
paths = (
{
closed = 1;
nodes = (
"226 688 LINE SMOOTH",
"229 701 OFFCURVE",
"221 710 OFFCURVE",
"208 710 CURVE SMOOTH",
"191 710 LINE SMOOTH",
"178 710 OFFCURVE",
"168 701 OFFCURVE",
"165 688 CURVE SMOOTH",
"152 629 LINE",
"94 629 LINE SMOOTH",
"81 629 OFFCURVE",
"70 620 OFFCURVE",
"68 607 CURVE SMOOTH",
"65 593 LINE SMOOTH",
"62 580 OFFCURVE",
"69 571 OFFCURVE",
"82 571 CURVE SMOOTH",
"140 571 LINE",
"23 22 LINE SMOOTH",
"20 9 OFFCURVE",
"28 0 OFFCURVE",
"41 0 CURVE SMOOTH",
"58 0 LINE SMOOTH",
"71 0 OFFCURVE",
"81 9 OFFCURVE",
"84 22 CURVE SMOOTH",
"143 301 LINE SMOOTH",
"166 408 OFFCURVE",
"254 472 OFFCURVE",
"349 472 CURVE SMOOTH",
"459 472 OFFCURVE",
"477 407 OFFCURVE",
"454 301 CURVE SMOOTH",
"395 22 LINE SMOOTH",
"392 9 OFFCURVE",
"400 0 OFFCURVE",
"413 0 CURVE SMOOTH",
"430 0 LINE SMOOTH",
"443 0 OFFCURVE",
"453 9 OFFCURVE",
"456 22 CURVE SMOOTH",
"517 306 LINE SMOOTH",
"544 433 OFFCURVE",
"505 530 OFFCURVE",
"349 530 CURVE SMOOTH",
"263 530 OFFCURVE",
"212 492 OFFCURVE",
"175 451 CURVE",
"201 571 LINE",
"259 571 LINE SMOOTH",
"272 571 OFFCURVE",
"283 580 OFFCURVE",
"286 593 CURVE SMOOTH",
"289 607 LINE SMOOTH",
"291 620 OFFCURVE",
"284 629 OFFCURVE",
"271 629 CURVE SMOOTH",
"213 629 LINE"
);
}
);
width = 591;
},
{
hints = (
{
horizontal = 1;
place = "{9223372036854775808.000000, 0.000000}";
type = Tag;
name = hr01;
},
{
horizontal = 1;
place = "{9223372036854775808.000000, 0.000000}";
type = Tag;
name = hr02;
}
);
layerId = "8D1576CD-C92F-4A10-BFAA-527F596A391A";
name = "Bold Italic";
paths = (
{
closed = 1;
nodes = (
"294 296 LINE SMOOTH",
"302 332 OFFCURVE",
"325 351 OFFCURVE",
"357 351 CURVE SMOOTH",
"389 351 OFFCURVE",
"403 332 OFFCURVE",
"395 296 CURVE SMOOTH",
"338 28 LINE SMOOTH",
"335 13 OFFCURVE",
"345 1 OFFCURVE",
"360 1 CURVE SMOOTH",
"556 1 LINE SMOOTH",
"571 1 OFFCURVE",
"585 13 OFFCURVE",
"588 28 CURVE SMOOTH",
"647 303 LINE SMOOTH",
"680 461 OFFCURVE",
"597 530 OFFCURVE",
"496 530 CURVE SMOOTH",
"434 530 OFFCURVE",
"374 506 OFFCURVE",
"331 468 CURVE",
"346 538 LINE",
"370 538 LINE SMOOTH",
"385 538 OFFCURVE",
"399 550 OFFCURVE",
"403 565 CURVE SMOOTH",
"413 616 LINE SMOOTH",
"417 631 OFFCURVE",
"407 643 OFFCURVE",
"392 643 CURVE SMOOTH",
"368 643 LINE",
"377 683 LINE SMOOTH",
"380 698 OFFCURVE",
"370 710 OFFCURVE",
"355 710 CURVE SMOOTH",
"160 710 LINE SMOOTH",
"145 710 OFFCURVE",
"131 698 OFFCURVE",
"128 683 CURVE SMOOTH",
"119 643 LINE",
"93 643 LINE SMOOTH",
"78 643 OFFCURVE",
"64 631 OFFCURVE",
"60 616 CURVE SMOOTH",
"50 565 LINE SMOOTH",
"46 550 OFFCURVE",
"56 538 OFFCURVE",
"71 538 CURVE SMOOTH",
"97 538 LINE",
"-12 27 LINE SMOOTH",
"-15 12 OFFCURVE",
"-5 0 OFFCURVE",
"10 0 CURVE SMOOTH",
"205 0 LINE SMOOTH",
"220 0 OFFCURVE",
"234 12 OFFCURVE",
"237 27 CURVE SMOOTH"
);
}
);
width = 685;
}
);
leftKerningGroup = h;
rightKerningGroup = n;
unicode = 0127;
},
{
glyphname = i;
lastChange = "2015-10-21 15:52:37 +0000";
layers = (
{
hints = (
{
horizontal = 1;
origin = "{0, 0}";
type = Tag;
name = hr00;
}
);
layerId = "E313AEA5-9794-4496-8824-D26DD01CDD19";
name = "Light Italic";
paths = (
{
closed = 1;
nodes = (
"237 687 LINE",
"239 700 OFFCURVE",
"231 710 OFFCURVE",
"218 710 CURVE SMOOTH",
"180 710 LINE SMOOTH",
"167 710 OFFCURVE",
"156 700 OFFCURVE",
"154 687 CURVE",
"145 649 LINE",
"143 636 OFFCURVE",
"150 627 OFFCURVE",
"163 627 CURVE SMOOTH",
"201 627 LINE SMOOTH",
"214 627 OFFCURVE",
"226 636 OFFCURVE",
"228 649 CURVE"
);
},
{
closed = 1;
nodes = (
"185 498 LINE SMOOTH",
"188 511 OFFCURVE",
"181 520 OFFCURVE",
"168 520 CURVE SMOOTH",
"151 520 LINE SMOOTH",
"138 520 OFFCURVE",
"127 511 OFFCURVE",
"124 498 CURVE SMOOTH",
"23 22 LINE SMOOTH",
"20 9 OFFCURVE",
"28 0 OFFCURVE",
"41 0 CURVE SMOOTH",
"58 0 LINE SMOOTH",
"71 0 OFFCURVE",
"81 9 OFFCURVE",
"84 22 CURVE SMOOTH"
);
}
);
width = 224;
},
{
hints = (
{
horizontal = 1;
place = "{9223372036854775808.000000, 0.000000}";
type = Tag;
name = hr00;
}
);
layerId = "8D1576CD-C92F-4A10-BFAA-527F596A391A";
name = "Bold Italic";
paths = (
{
closed = 1;
nodes = (
"189 0 LINE SMOOTH",
"204 0 OFFCURVE",
"218 12 OFFCURVE",
"221 27 CURVE SMOOTH",
"320 493 LINE SMOOTH",
"323 508 OFFCURVE",
"314 520 OFFCURVE",
"299 520 CURVE SMOOTH",
"120 520 LINE SMOOTH",
"105 520 OFFCURVE",
"90 508 OFFCURVE",
"87 493 CURVE SMOOTH",
"-12 27 LINE SMOOTH",
"-15 12 OFFCURVE",
"-5 0 OFFCURVE",
"10 0 CURVE SMOOTH"
);
},
{
closed = 1;
nodes = (
"364 723 LINE SMOOTH",
"367 738 OFFCURVE",
"358 750 OFFCURVE",
"343 750 CURVE SMOOTH",
"174 750 LINE SMOOTH",
"159 750 OFFCURVE",
"144 738 OFFCURVE",
"141 723 CURVE SMOOTH",
"115 602 LINE SMOOTH",
"112 587 OFFCURVE",
"122 575 OFFCURVE",
"137 575 CURVE SMOOTH",
"306 575 LINE SMOOTH",
"321 575 OFFCURVE",
"335 587 OFFCURVE",
"338 602 CURVE SMOOTH"
);
}
);
width = 323;
}
);
leftKerningGroup = i;
rightKerningGroup = i;
unicode = 0069;
},
{
glyphname = dotlessi;
lastChange = "2015-10-21 15:52:37 +0000";
layers = (
{
hints = (
{
horizontal = 1;
origin = "{0, 0}";
type = Tag;
name = hr00;
}
);
layerId = "E313AEA5-9794-4496-8824-D26DD01CDD19";
name = "Light Italic";
paths = (
{
closed = 1;
nodes = (
"185 498 LINE SMOOTH",
"188 511 OFFCURVE",
"181 520 OFFCURVE",
"168 520 CURVE SMOOTH",
"151 520 LINE SMOOTH",
"138 520 OFFCURVE",
"127 511 OFFCURVE",
"124 498 CURVE SMOOTH",
"23 22 LINE SMOOTH",
"20 9 OFFCURVE",
"28 0 OFFCURVE",
"41 0 CURVE SMOOTH",
"58 0 LINE SMOOTH",
"71 0 OFFCURVE",
"81 9 OFFCURVE",
"84 22 CURVE SMOOTH"
);
}
);
width = 224;
},
{
hints = (
{
horizontal = 1;
place = "{9223372036854775808.000000, 0.000000}";
type = Tag;
name = hr00;
}
);
layerId = "8D1576CD-C92F-4A10-BFAA-527F596A391A";
name = "Bold Italic";
paths = (
{
closed = 1;
nodes = (
"189 0 LINE",
"204 0 OFFCURVE",
"218 12 OFFCURVE",
"221 27 CURVE SMOOTH",
"320 493 LINE SMOOTH",
"323 508 OFFCURVE",
"314 520 OFFCURVE",
"299 520 CURVE SMOOTH",
"120 520 LINE SMOOTH",
"105 520 OFFCURVE",
"90 508 OFFCURVE",
"87 493 CURVE SMOOTH",
"-12 27 LINE SMOOTH",
"-15 12 OFFCURVE",
"-5 0 OFFCURVE",
"10 0 CURVE SMOOTH"
);
}
);
width = 323;
}
);
leftKerningGroup = i;
rightKerningGroup = i;
unicode = 0131;
},
{
glyphname = iogonek;
lastChange = "2015-10-21 15:52:37 +0000";
layers = (
{
hints = (
{
horizontal = 1;
origin = "{0, 0}";
type = Tag;
name = hr00;
}
);
layerId = "E313AEA5-9794-4496-8824-D26DD01CDD19";
name = "Light Italic";
paths = (
{
closed = 1;
nodes = (
"208 498 LINE",
"211 511 OFFCURVE",
"204 520 OFFCURVE",
"191 520 CURVE",
"174 520 LINE",
"161 520 OFFCURVE",
"150 511 OFFCURVE",
"147 498 CURVE",
"53 55 LINE",
"-15 44 OFFCURVE",
"-67 -7 OFFCURVE",
"-80 -82 CURVE SMOOTH",
"-95 -167 OFFCURVE",
"-35 -220 OFFCURVE",
"36 -220 CURVE",
"42 -220 LINE",
"56 -220 OFFCURVE",
"62 -216 OFFCURVE",
"66 -203 CURVE",
"71 -185 LINE",
"74 -172 OFFCURVE",
"67 -163 OFFCURVE",
"54 -163 CURVE",
"36 -163 LINE",
"2 -163 OFFCURVE",
"-31 -133 OFFCURVE",
"-20 -82 CURVE SMOOTH",
"-10 -33 OFFCURVE",
"28 0 OFFCURVE",
"81 0 CURVE",
"94 0 OFFCURVE",
"104 9 OFFCURVE",
"107 22 CURVE"
);
},
{
closed = 1;
nodes = (
"260 687 LINE",
"262 700 OFFCURVE",
"254 710 OFFCURVE",
"241 710 CURVE",
"203 710 LINE",
"190 710 OFFCURVE",
"179 700 OFFCURVE",
"177 687 CURVE",
"168 649 LINE",
"166 636 OFFCURVE",
"173 627 OFFCURVE",
"186 627 CURVE",
"224 627 LINE",
"237 627 OFFCURVE",
"249 636 OFFCURVE",
"251 649 CURVE"
);
}
);
width = 247;
},
{
hints = (
{
horizontal = 1;
place = "{9223372036854775808.000000, 0.000000}";
type = Tag;
name = hr00;
}
);
layerId = "8D1576CD-C92F-4A10-BFAA-527F596A391A";
name = "Bold Italic";
paths = (
{
closed = 1;
nodes = (
"171 -80 CURVE",
"161 -80 LINE SMOOTH",
"122 -80 OFFCURVE",
"116 -61 OFFCURVE",
"120 -40 CURVE SMOOTH",
"124 -19 OFFCURVE",
"140 0 OFFCURVE",
"179 0 CURVE SMOOTH",
"189 0 LINE SMOOTH",
"204 0 OFFCURVE",
"218 12 OFFCURVE",
"221 27 CURVE SMOOTH",
"320 493 LINE SMOOTH",
"323 508 OFFCURVE",
"314 520 OFFCURVE",
"299 520 CURVE SMOOTH",
"120 520 LINE SMOOTH",
"105 520 OFFCURVE",
"90 508 OFFCURVE",
"87 493 CURVE SMOOTH",
"-12 27 LINE SMOOTH",
"-15 12 OFFCURVE",
"-5 0 OFFCURVE",
"10 0 CURVE SMOOTH",
"17 0 LINE",
"11 -12 OFFCURVE",
"7 -26 OFFCURVE",
"4 -40 CURVE SMOOTH",
"-14 -125 OFFCURVE",
"23 -192 OFFCURVE",
"134 -192 CURVE SMOOTH",
"148 -192 LINE SMOOTH",
"163 -192 OFFCURVE",
"177 -180 OFFCURVE",
"180 -165 CURVE SMOOTH",
"193 -107 LINE SMOOTH",
"196 -92 OFFCURVE",
"186 -80 OFFCURVE"
);
},
{
closed = 1;
nodes = (
"364 723 LINE SMOOTH",
"367 738 OFFCURVE",
"358 750 OFFCURVE",
"343 750 CURVE SMOOTH",
"174 750 LINE SMOOTH",
"159 750 OFFCURVE",
"144 738 OFFCURVE",
"141 723 CURVE SMOOTH",
"115 602 LINE SMOOTH",
"112 587 OFFCURVE",
"122 575 OFFCURVE",
"137 575 CURVE SMOOTH",
"306 575 LINE SMOOTH",
"321 575 OFFCURVE",
"335 587 OFFCURVE",
"338 602 CURVE SMOOTH"
);
}
);
width = 323;
}
);
leftKerningGroup = i;
rightKerningGroup = i;
unicode = 012F;
},
{
glyphname = j;
lastChange = "2015-10-21 15:52:37 +0000";
layers = (
{
hints = (
{
horizontal = 1;
origin = "{0, 0}";
type = Tag;
name = hr00;
}
);
layerId = "E313AEA5-9794-4496-8824-D26DD01CDD19";
name = "Light Italic";
paths = (
{
closed = 1;
nodes = (
"23 -22 LINE SMOOTH",
"10 -83 OFFCURVE",
"-20 -132 OFFCURVE",
"-85 -132 CURVE SMOOTH",
"-94 -132 LINE SMOOTH",
"-107 -132 OFFCURVE",
"-117 -141 OFFCURVE",
"-120 -154 CURVE SMOOTH",
"-123 -168 LINE SMOOTH",
"-126 -181 OFFCURVE",
"-119 -190 OFFCURVE",
"-106 -190 CURVE SMOOTH",
"-97 -190 LINE SMOOTH",
"24 -190 OFFCURVE",
"64 -116 OFFCURVE",
"84 -22 CURVE SMOOTH",
"194 498 LINE SMOOTH",
"197 511 OFFCURVE",
"190 520 OFFCURVE",
"177 520 CURVE SMOOTH",
"160 520 LINE SMOOTH",
"147 520 OFFCURVE",
"136 511 OFFCURVE",
"133 498 CURVE SMOOTH"
);
},
{
closed = 1;
nodes = (
"246 687 LINE",
"248 700 OFFCURVE",
"240 710 OFFCURVE",
"227 710 CURVE SMOOTH",
"189 710 LINE SMOOTH",
"176 710 OFFCURVE",
"165 700 OFFCURVE",
"163 687 CURVE",
"154 649 LINE",
"152 636 OFFCURVE",
"159 627 OFFCURVE",
"172 627 CURVE SMOOTH",
"210 627 LINE SMOOTH",
"223 627 OFFCURVE",
"235 636 OFFCURVE",
"237 649 CURVE"
);
}
);
width = 234;
},
{
hints = (
{
horizontal = 1;
place = "{9223372036854775808.000000, 0.000000}";
type = Tag;
name = hr00;
}
);
layerId = "8D1576CD-C92F-4A10-BFAA-527F596A391A";
name = "Bold Italic";
paths = (
{
closed = 1;
nodes = (
"-49 -190 LINE SMOOTH",
"106 -190 OFFCURVE",
"211 -121 OFFCURVE",
"243 29 CURVE SMOOTH",
"341 493 LINE SMOOTH",
"344 508 OFFCURVE",
"335 520 OFFCURVE",
"320 520 CURVE SMOOTH",
"132 520 LINE SMOOTH",
"117 520 OFFCURVE",
"102 508 OFFCURVE",
"99 493 CURVE SMOOTH",
"2 35 LINE SMOOTH",
"-5 4 OFFCURVE",
"-22 -15 OFFCURVE",
"-52 -15 CURVE SMOOTH",
"-109 -15 LINE SMOOTH",
"-124 -15 OFFCURVE",
"-138 -27 OFFCURVE",
"-141 -42 CURVE SMOOTH",
"-167 -163 LINE SMOOTH",
"-170 -178 OFFCURVE",
"-161 -190 OFFCURVE",
"-146 -190 CURVE SMOOTH"
);
},
{
closed = 1;
nodes = (
"385 723 LINE SMOOTH",
"388 738 OFFCURVE",
"379 750 OFFCURVE",
"364 750 CURVE SMOOTH",
"186 750 LINE SMOOTH",
"171 750 OFFCURVE",
"156 738 OFFCURVE",
"153 723 CURVE SMOOTH",
"127 602 LINE SMOOTH",
"124 587 OFFCURVE",
"134 575 OFFCURVE",
"149 575 CURVE SMOOTH",
"327 575 LINE SMOOTH",
"342 575 OFFCURVE",
"356 587 OFFCURVE",
"359 602 CURVE SMOOTH"
);
}
);
width = 345;
}
);
rightKerningGroup = i;
unicode = 006A;
},
{
glyphname = dotlessj;
lastChange = "2015-10-21 15:52:37 +0000";
layers = (
{
hints = (
{
horizontal = 1;
origin = "{0, 0}";
type = Tag;
name = hr00;
}
);
layerId = "E313AEA5-9794-4496-8824-D26DD01CDD19";
name = "Light Italic";
paths = (
{
closed = 1;
nodes = (
"54 -22 LINE SMOOTH",
"41 -83 OFFCURVE",
"21 -132 OFFCURVE",
"-60 -132 CURVE SMOOTH",
"-64 -132 LINE SMOOTH",
"-77 -132 OFFCURVE",
"-86 -141 OFFCURVE",
"-89 -154 CURVE SMOOTH",
"-92 -168 LINE SMOOTH",
"-95 -181 OFFCURVE",
"-88 -190 OFFCURVE",
"-76 -190 CURVE SMOOTH",
"-72 -190 LINE SMOOTH",
"50 -190 OFFCURVE",
"95 -116 OFFCURVE",
"115 -22 CURVE SMOOTH",
"225 498 LINE SMOOTH",
"228 511 OFFCURVE",
"221 520 OFFCURVE",
"208 520 CURVE SMOOTH",
"85 520 LINE SMOOTH",
"72 520 OFFCURVE",
"61 511 OFFCURVE",
"58 498 CURVE SMOOTH",
"55 484 LINE SMOOTH",
"53 471 OFFCURVE",
"60 462 OFFCURVE",
"73 462 CURVE SMOOTH",
"157 462 LINE"
);
}
);
width = 265;
},
{
guideLines = (
{
angle = 90;
position = "{-65, 0}";
}
);
hints = (
{
horizontal = 1;
place = "{9223372036854775808.000000, 0.000000}";
type = Tag;
name = hr00;
}
);
layerId = "8D1576CD-C92F-4A10-BFAA-527F596A391A";
name = "Bold Italic";
paths = (
{
closed = 1;
nodes = (
"78 -190 LINE",
"223 -190 OFFCURVE",
"354 -94 OFFCURVE",
"388 70 CURVE SMOOTH",
"478 493 LINE SMOOTH",
"481 508 OFFCURVE",
"472 520 OFFCURVE",
"457 520 CURVE SMOOTH",
"99 520 LINE SMOOTH",
"84 520 OFFCURVE",
"69 508 OFFCURVE",
"66 493 CURVE SMOOTH",
"39 364 LINE SMOOTH",
"36 349 OFFCURVE",
"45 337 OFFCURVE",
"60 337 CURVE SMOOTH",
"201 337 LINE",
"144 70 LINE SMOOTH",
"138 39 OFFCURVE",
"121 20 OFFCURVE",
"91 20 CURVE SMOOTH",
"-10 20 LINE SMOOTH",
"-25 20 OFFCURVE",
"-40 8 OFFCURVE",
"-43 -7 CURVE SMOOTH",
"-75 -163 LINE SMOOTH",
"-78 -178 OFFCURVE",
"-69 -190 OFFCURVE",
"-55 -190 CURVE SMOOTH"
);
}
);
width = 481;
}
);
leftKerningGroup = dotlessj;
rightKerningGroup = i;
unicode = 0237;
},
{
glyphname = k;
lastChange = "2015-10-21 15:52:37 +0000";
layers = (
{
hints = (
{
horizontal = 1;
origin = "{0, 0}";
type = Tag;
name = hr00;
}
);
layerId = "E313AEA5-9794-4496-8824-D26DD01CDD19";
name = "Light Italic";
paths = (
{
closed = 1;
nodes = (
"473 480 LINE SMOOTH",
"498 496 OFFCURVE",
"493 520 OFFCURVE",
"474 520 CURVE SMOOTH",
"447 520 LINE",
"427 520 OFFCURVE",
"423 517 OFFCURVE",
"401 503 CURVE",
"152 341 LINE",
"226 688 LINE",
"229 701 OFFCURVE",
"221 710 OFFCURVE",
"208 710 CURVE",
"191 710 LINE",
"178 710 OFFCURVE",
"168 701 OFFCURVE",
"165 688 CURVE",
"23 22 LINE",
"20 9 OFFCURVE",
"28 0 OFFCURVE",
"41 0 CURVE",
"58 0 LINE",
"71 0 OFFCURVE",
"81 9 OFFCURVE",
"84 22 CURVE",
"133 248 LINE",
"346 15 LINE",
"352 9 OFFCURVE",
"358 0 OFFCURVE",
"379 0 CURVE SMOOTH",
"395 0 LINE",
"412 0 OFFCURVE",
"422 20 OFFCURVE",
"409 34 CURVE SMOOTH",
"179 288 LINE"
);
}
);
width = 485;
},
{
hints = (
{
horizontal = 1;
place = "{9223372036854775808.000000, 0.000000}";
type = Tag;
name = hr00;
}
);
layerId = "8D1576CD-C92F-4A10-BFAA-527F596A391A";
name = "Bold Italic";
paths = (
{
closed = 1;
nodes = (
"357 683 LINE SMOOTH",
"360 698 OFFCURVE",
"350 710 OFFCURVE",
"335 710 CURVE SMOOTH",
"160 710 LINE SMOOTH",
"145 710 OFFCURVE",
"131 698 OFFCURVE",
"128 683 CURVE SMOOTH",
"-12 27 LINE SMOOTH",
"-15 12 OFFCURVE",
"-5 0 OFFCURVE",
"10 0 CURVE SMOOTH",
"185 0 LINE SMOOTH",
"200 0 OFFCURVE",
"214 12 OFFCURVE",
"217 27 CURVE SMOOTH",
"253 203 LINE",
"327 17 LINE SMOOTH",
"331 7 OFFCURVE",
"340 0 OFFCURVE",
"355 0 CURVE SMOOTH",
"555 0 LINE SMOOTH",
"579 0 OFFCURVE",
"590 19 OFFCURVE",
"582 37 CURVE SMOOTH",
"484 268 LINE",
"662 481 LINE",
"677 497 OFFCURVE",
"676 520 OFFCURVE",
"651 520 CURVE SMOOTH",
"439 520 LINE SMOOTH",
"421 520 OFFCURVE",
"410 508 OFFCURVE",
"406 503 CURVE SMOOTH",
"288 359 LINE"
);
}
);
width = 650;
}
);
leftKerningGroup = h;
rightKerningGroup = k;
unicode = 006B;
},
{
glyphname = kgreenlandic;
lastChange = "2015-10-21 15:52:37 +0000";
layers = (
{
hints = (
{
horizontal = 1;
origin = "{0, 0}";
type = Tag;
name = hr00;
}
);
layerId = "E313AEA5-9794-4496-8824-D26DD01CDD19";
name = "Light Italic";
paths = (
{
closed = 1;
nodes = (
"478 480 LINE",
"489 487 OFFCURVE",
"494 495 OFFCURVE",
"495 500 CURVE SMOOTH",
"497 512 OFFCURVE",
"491 520 OFFCURVE",
"479 520 CURVE SMOOTH",
"463 520 LINE SMOOTH",
"443 520 OFFCURVE",
"439 517 OFFCURVE",
"417 503 CURVE",
"145 308 LINE",
"185 498 LINE SMOOTH",
"188 511 OFFCURVE",
"181 520 OFFCURVE",
"168 520 CURVE SMOOTH",
"151 520 LINE SMOOTH",
"138 520 OFFCURVE",
"127 511 OFFCURVE",
"124 498 CURVE SMOOTH",
"23 22 LINE SMOOTH",
"20 9 OFFCURVE",
"28 0 OFFCURVE",
"41 0 CURVE SMOOTH",
"58 0 LINE SMOOTH",
"71 0 OFFCURVE",
"81 9 OFFCURVE",
"84 22 CURVE SMOOTH",
"125 212 LINE",
"332 17 LINE",
"346 4 OFFCURVE",
"351 0 OFFCURVE",
"371 0 CURVE SMOOTH",
"389 0 LINE SMOOTH",
"401 0 OFFCURVE",
"410 8 OFFCURVE",
"413 20 CURVE SMOOTH",
"414 25 OFFCURVE",
"412 33 OFFCURVE",
"404 40 CURVE SMOOTH",
"171 260 LINE"
);
}
);
width = 486;
},
{
guideLines = (
{
position = "{0, 520}";
},
{
position = "{0, 359}";
},
{
position = "{0, 204}";
}
);
hints = (
{
horizontal = 1;
place = "{9223372036854775808.000000, 0.000000}";
type = Tag;
name = hr00;
}
);
layerId = "8D1576CD-C92F-4A10-BFAA-527F596A391A";
name = "Bold Italic";
paths = (
{
closed = 1;
nodes = (
"316 493 LINE SMOOTH",
"319 508 OFFCURVE",
"310 520 OFFCURVE",
"295 520 CURVE SMOOTH",
"120 520 LINE SMOOTH",
"105 520 OFFCURVE",
"90 508 OFFCURVE",
"87 493 CURVE SMOOTH",
"-12 27 LINE SMOOTH",
"-15 12 OFFCURVE",
"-5 0 OFFCURVE",
"10 0 CURVE SMOOTH",
"185 0 LINE SMOOTH",
"200 0 OFFCURVE",
"214 12 OFFCURVE",
"217 27 CURVE SMOOTH",
"252 185 LINE",
"329 17 LINE SMOOTH",
"330 14 OFFCURVE",
"337 0 OFFCURVE",
"357 0 CURVE SMOOTH",
"555 0 LINE SMOOTH",
"580 0 OFFCURVE",
"590 21 OFFCURVE",
"582 37 CURVE SMOOTH",
"476 259 LINE",
"666 481 LINE",
"681 499 OFFCURVE",
"680 520 OFFCURVE",
"655 520 CURVE SMOOTH",
"446 520 LINE SMOOTH",
"428 520 OFFCURVE",
"417 508 OFFCURVE",
"413 503 CURVE SMOOTH",
"283 336 LINE"
);
}
);
width = 649;
}
);
leftKerningGroup = n;
rightKerningGroup = k;
unicode = 0138;
},
{
glyphname = l;
lastChange = "2015-10-21 15:52:37 +0000";
layers = (
{
hints = (
{
horizontal = 1;
origin = "{0, 0}";
type = Tag;
name = hr00;
}
);
layerId = "E313AEA5-9794-4496-8824-D26DD01CDD19";
name = "Light Italic";
paths = (
{
closed = 1;
nodes = (
"226 688 LINE SMOOTH",
"229 701 OFFCURVE",
"221 710 OFFCURVE",
"208 710 CURVE SMOOTH",
"191 710 LINE SMOOTH",
"178 710 OFFCURVE",
"168 701 OFFCURVE",
"165 688 CURVE SMOOTH",
"23 22 LINE SMOOTH",
"20 9 OFFCURVE",
"28 0 OFFCURVE",
"41 0 CURVE SMOOTH",
"58 0 LINE SMOOTH",
"71 0 OFFCURVE",
"81 9 OFFCURVE",
"84 22 CURVE SMOOTH"
);
}
);
width = 225;
},
{
hints = (
{
horizontal = 1;
place = "{9223372036854775808.000000, 0.000000}";
type = Tag;
name = hr00;
}
);
layerId = "8D1576CD-C92F-4A10-BFAA-527F596A391A";
name = "Bold Italic";
paths = (
{
closed = 1;
nodes = (
"189 0 LINE SMOOTH",
"204 0 OFFCURVE",
"218 12 OFFCURVE",
"221 27 CURVE SMOOTH",
"361 683 LINE SMOOTH",
"364 698 OFFCURVE",
"354 710 OFFCURVE",
"339 710 CURVE SMOOTH",
"160 710 LINE SMOOTH",
"145 710 OFFCURVE",
"131 698 OFFCURVE",
"128 683 CURVE SMOOTH",
"-12 27 LINE SMOOTH",
"-15 12 OFFCURVE",
"-5 0 OFFCURVE",
"10 0 CURVE SMOOTH"
);
}
);
width = 324;
}
);
leftKerningGroup = l;
rightKerningGroup = l;
unicode = 006C;
},
{
glyphname = ldot;
lastChange = "2015-10-21 15:52:37 +0000";
layers = (
{
components = (
{
name = l;
},
{
name = dotaccent;
transform = "{1, 0, 0, 1, 169, -304}";
}
);
layerId = "E313AEA5-9794-4496-8824-D26DD01CDD19";
name = "Light Italic";
width = 225;
},
{
components = (
{
name = l;
}
);
guideLines = (
{
position = "{0, 360}";
}
);
hints = (
{
horizontal = 1;
place = "{9223372036854775808.000000, 0.000000}";
type = Tag;
name = hr00;
}
);
layerId = "8D1576CD-C92F-4A10-BFAA-527F596A391A";
name = "Bold Italic";
paths = (
{
closed = 1;
nodes = (
"384 449 LINE",
"371 449 OFFCURVE",
"359 439 OFFCURVE",
"356 426 CURVE SMOOTH",
"328 295 LINE SMOOTH",
"325 282 OFFCURVE",
"333 272 OFFCURVE",
"346 272 CURVE SMOOTH",
"477 272 LINE SMOOTH",
"490 272 OFFCURVE",
"502 282 OFFCURVE",
"505 295 CURVE SMOOTH",
"533 426 LINE SMOOTH",
"536 439 OFFCURVE",
"528 449 OFFCURVE",
"515 449 CURVE SMOOTH"
);
}
);
width = 512;
}
);
leftKerningGroup = l;
unicode = 0140;
},
{
glyphname = lslash;
lastChange = "2015-10-21 15:52:37 +0000";
layers = (
{
hints = (
{
horizontal = 1;
origin = "{0, 0}";
type = Tag;
name = hr00;
}
);
layerId = "E313AEA5-9794-4496-8824-D26DD01CDD19";
name = "Light Italic";
paths = (
{
closed = 1;
nodes = (
"247 404 LINE SMOOTH",
"252 423 OFFCURVE",
"232 424 OFFCURVE",
"222 420 CURVE SMOOTH",
"177 404 LINE",
"238 688 LINE SMOOTH",
"241 701 OFFCURVE",
"233 710 OFFCURVE",
"220 710 CURVE SMOOTH",
"203 710 LINE SMOOTH",
"190 710 OFFCURVE",
"180 701 OFFCURVE",
"177 688 CURVE SMOOTH",
"111 381 LINE",
"60 363 LINE SMOOTH",
"42 357 OFFCURVE",
"36 353 OFFCURVE",
"32 338 CURVE SMOOTH",
"28 319 LINE SMOOTH",
"24 300 OFFCURVE",
"43 299 OFFCURVE",
"54 303 CURVE SMOOTH",
"98 318 LINE",
"35 22 LINE SMOOTH",
"32 9 OFFCURVE",
"40 0 OFFCURVE",
"53 0 CURVE SMOOTH",
"70 0 LINE SMOOTH",
"83 0 OFFCURVE",
"93 9 OFFCURVE",
"96 22 CURVE SMOOTH",
"164 341 LINE",
"216 360 LINE SMOOTH",
"233 366 OFFCURVE",
"240 370 OFFCURVE",
"243 385 CURVE SMOOTH"
);
}
);
width = 246;
},
{
guideLines = (
{
position = "{0, 215}";
},
{
position = "{0, 355}";
},
{
angle = 90;
position = "{-49, 0}";
},
{
angle = 90;
position = "{304, 0}";
}
);
hints = (
{
horizontal = 1;
place = "{9223372036854775808.000000, 0.000000}";
type = Tag;
name = hr00;
}
);
layerId = "8D1576CD-C92F-4A10-BFAA-527F596A391A";
name = "Bold Italic";
paths = (
{
closed = 1;
nodes = (
"59 377 LINE SMOOTH",
"41 371 OFFCURVE",
"33 362 OFFCURVE",
"30 344 CURVE SMOOTH",
"7 236 LINE SMOOTH",
"4 224 OFFCURVE",
"11 215 OFFCURVE",
"23 215 CURVE SMOOTH",
"25 215 OFFCURVE",
"29 216 OFFCURVE",
"35 218 CURVE SMOOTH",
"65 229 LINE",
"22 27 LINE SMOOTH",
"19 12 OFFCURVE",
"29 0 OFFCURVE",
"44 0 CURVE SMOOTH",
"223 0 LINE SMOOTH",
"238 0 OFFCURVE",
"252 12 OFFCURVE",
"255 27 CURVE SMOOTH",
"317 319 LINE",
"358 334 LINE SMOOTH",
"376 340 OFFCURVE",
"384 349 OFFCURVE",
"388 367 CURVE SMOOTH",
"410 475 LINE SMOOTH",
"413 487 OFFCURVE",
"406 496 OFFCURVE",
"394 496 CURVE SMOOTH",
"392 496 OFFCURVE",
"388 495 OFFCURVE",
"382 493 CURVE SMOOTH",
"352 482 LINE",
"395 683 LINE SMOOTH",
"398 698 OFFCURVE",
"388 710 OFFCURVE",
"373 710 CURVE SMOOTH",
"194 710 LINE SMOOTH",
"179 710 OFFCURVE",
"165 698 OFFCURVE",
"162 683 CURVE SMOOTH",
"100 391 LINE"
);
}
);
width = 394;
}
);
leftKerningGroup = l;
rightKerningGroup = l;
unicode = 0142;
},
{
glyphname = m;
lastChange = "2015-10-21 15:52:37 +0000";
layers = (
{
guideLines = (
{
angle = 90;
position = "{307, 0}";
}
);
hints = (
{
horizontal = 1;
origin = "{0, 19}";
type = Tag;
name = hr01;
}
);
layerId = "E313AEA5-9794-4496-8824-D26DD01CDD19";
name = "Light Italic";
paths = (
{
closed = 1;
nodes = (
"185 498 LINE SMOOTH",
"188 511 OFFCURVE",
"181 520 OFFCURVE",
"168 520 CURVE SMOOTH",
"151 520 LINE SMOOTH",
"138 520 OFFCURVE",
"127 511 OFFCURVE",
"124 498 CURVE SMOOTH",
"23 22 LINE SMOOTH",
"20 9 OFFCURVE",
"28 0 OFFCURVE",
"41 0 CURVE SMOOTH",
"58 0 LINE SMOOTH",
"71 0 OFFCURVE",
"81 9 OFFCURVE",
"84 22 CURVE SMOOTH",
"144 304 LINE SMOOTH",
"172 434 OFFCURVE",
"262 472 OFFCURVE",
"323 472 CURVE SMOOTH",
"390 472 OFFCURVE",
"441 434 OFFCURVE",
"413 303 CURVE SMOOTH",
"353 22 LINE SMOOTH",
"350 9 OFFCURVE",
"358 0 OFFCURVE",
"371 0 CURVE SMOOTH",
"388 0 LINE SMOOTH",
"401 0 OFFCURVE",
"411 9 OFFCURVE",
"414 22 CURVE SMOOTH",
"474 303 LINE SMOOTH",
"502 434 OFFCURVE",
"592 472 OFFCURVE",
"653 472 CURVE SMOOTH",
"725 472 OFFCURVE",
"771 434 OFFCURVE",
"743 303 CURVE SMOOTH",
"683 22 LINE SMOOTH",
"680 9 OFFCURVE",
"688 0 OFFCURVE",
"701 0 CURVE SMOOTH",
"718 0 LINE SMOOTH",
"731 0 OFFCURVE",
"741 9 OFFCURVE",
"744 22 CURVE SMOOTH",
"806 313 LINE SMOOTH",
"836 456 OFFCURVE",
"761 530 OFFCURVE",
"655 530 CURVE SMOOTH",
"578 530 OFFCURVE",
"518 493 OFFCURVE",
"475 436 CURVE",
"457 497 OFFCURVE",
"400 530 OFFCURVE",
"325 530 CURVE SMOOTH",
"259 530 OFFCURVE",
"220 506 OFFCURVE",
"178 463 CURVE"
);
}
);
width = 879;
},
{
guideLines = (
{
position = "{0, 461}";
},
{
position = "{0, 530}";
},
{
position = "{0, 302}";
},
{
angle = 90;
position = "{275, 0}";
},
{
angle = 90;
position = "{584, 0}";
}
);
hints = (
{
horizontal = 1;
place = "{9223372036854775808.000000, 0.000000}";
type = Tag;
name = hr01;
},
{
horizontal = 1;
place = "{9223372036854775808.000000, 0.000000}";
type = Tag;
name = hr02;
}
);
layerId = "8D1576CD-C92F-4A10-BFAA-527F596A391A";
name = "Bold Italic";
paths = (
{
closed = 1;
nodes = (
"640 351 CURVE SMOOTH",
"665 351 OFFCURVE",
"676 334 OFFCURVE",
"670 302 CURVE",
"611 27 LINE SMOOTH",
"608 12 OFFCURVE",
"618 0 OFFCURVE",
"633 0 CURVE SMOOTH",
"809 0 LINE SMOOTH",
"824 0 OFFCURVE",
"838 12 OFFCURVE",
"841 27 CURVE SMOOTH",
"901 307 LINE SMOOTH",
"934 465 OFFCURVE",
"865 530 OFFCURVE",
"754 530 CURVE SMOOTH",
"683 530 OFFCURVE",
"635 494 OFFCURVE",
"594 448 CURVE",
"575 497 OFFCURVE",
"533 530 OFFCURVE",
"453 530 CURVE SMOOTH",
"371 530 OFFCURVE",
"329 490 OFFCURVE",
"299 460 CURVE",
"306 493 LINE SMOOTH",
"309 508 OFFCURVE",
"300 520 OFFCURVE",
"285 520 CURVE SMOOTH",
"120 520 LINE SMOOTH",
"105 520 OFFCURVE",
"90 508 OFFCURVE",
"87 493 CURVE SMOOTH",
"-12 27 LINE SMOOTH",
"-15 12 OFFCURVE",
"-5 0 OFFCURVE",
"10 0 CURVE SMOOTH",
"190 0 LINE SMOOTH",
"205 0 OFFCURVE",
"219 12 OFFCURVE",
"222 27 CURVE SMOOTH",
"281 302 LINE SMOOTH",
"287 333 OFFCURVE",
"306 351 OFFCURVE",
"331 351 CURVE SMOOTH",
"356 351 OFFCURVE",
"367 334 OFFCURVE",
"361 302 CURVE",
"302 27 LINE SMOOTH",
"299 12 OFFCURVE",
"309 0 OFFCURVE",
"324 0 CURVE SMOOTH",
"500 0 LINE SMOOTH",
"515 0 OFFCURVE",
"529 12 OFFCURVE",
"532 27 CURVE SMOOTH",
"591 302 LINE",
"597 334 OFFCURVE",
"615 351 OFFCURVE"
);
}
);
width = 938;
}
);
leftKerningGroup = n;
rightKerningGroup = n;
unicode = 006D;
userData = {
com.typemytype.robofont.guides = (
{
angle = 90;
isGlobal = 0;
magnetic = 5;
x = 307;
y = 0;
}
);
};
},
{
glyphname = n;
lastChange = "2015-10-21 15:52:37 +0000";
layers = (
{
hints = (
{
horizontal = 1;
origin = "{0, 10}";
type = Tag;
name = hr01;
},
{
horizontal = 1;
origin = "{0, 26}";
type = Tag;
name = hr02;
}
);
layerId = "E313AEA5-9794-4496-8824-D26DD01CDD19";
name = "Light Italic";
paths = (
{
closed = 1;
nodes = (
"516 306 LINE SMOOTH",
"543 433 OFFCURVE",
"503 530 OFFCURVE",
"351 530 CURVE SMOOTH",
"275 530 OFFCURVE",
"216 497 OFFCURVE",
"175 451 CURVE",
"185 498 LINE SMOOTH",
"188 511 OFFCURVE",
"181 520 OFFCURVE",
"168 520 CURVE SMOOTH",
"151 520 LINE SMOOTH",
"138 520 OFFCURVE",
"127 511 OFFCURVE",
"124 498 CURVE SMOOTH",
"23 22 LINE SMOOTH",
"20 9 OFFCURVE",
"28 0 OFFCURVE",
"41 0 CURVE SMOOTH",
"58 0 LINE SMOOTH",
"71 0 OFFCURVE",
"81 9 OFFCURVE",
"84 22 CURVE SMOOTH",
"143 301 LINE SMOOTH",
"166 408 OFFCURVE",
"246 472 OFFCURVE",
"351 472 CURVE SMOOTH",
"460 472 OFFCURVE",
"477 414 OFFCURVE",
"453 301 CURVE SMOOTH",
"394 22 LINE SMOOTH",
"391 9 OFFCURVE",
"399 0 OFFCURVE",
"412 0 CURVE SMOOTH",
"429 0 LINE SMOOTH",
"442 0 OFFCURVE",
"452 9 OFFCURVE",
"455 22 CURVE SMOOTH"
);
}
);
width = 590;
},
{
guideLines = (
{
position = "{0, 530}";
},
{
position = "{0, 470}";
},
{
angle = 90;
position = "{419, 0}";
},
{
angle = 90;
position = "{245, 0}";
}
);
hints = (
{
horizontal = 1;
place = "{9223372036854775808.000000, 0.000000}";
type = Tag;
name = hr01;
},
{
horizontal = 1;
place = "{9223372036854775808.000000, 0.000000}";
type = Tag;
name = hr02;
}
);
layerId = "8D1576CD-C92F-4A10-BFAA-527F596A391A";
name = "Bold Italic";
paths = (
{
closed = 1;
nodes = (
"636 303 LINE SMOOTH",
"669 461 OFFCURVE",
"591 530 OFFCURVE",
"480 530 CURVE SMOOTH",
"409 530 OFFCURVE",
"351 499 OFFCURVE",
"309 460 CURVE",
"316 493 LINE SMOOTH",
"319 508 OFFCURVE",
"310 520 OFFCURVE",
"295 520 CURVE SMOOTH",
"120 520 LINE SMOOTH",
"105 520 OFFCURVE",
"90 508 OFFCURVE",
"87 493 CURVE SMOOTH",
"-12 27 LINE SMOOTH",
"-15 12 OFFCURVE",
"-5 0 OFFCURVE",
"10 0 CURVE SMOOTH",
"200 0 LINE SMOOTH",
"215 0 OFFCURVE",
"229 12 OFFCURVE",
"232 27 CURVE SMOOTH",
"289 296 LINE SMOOTH",
"297 332 OFFCURVE",
"319 351 OFFCURVE",
"351 351 CURVE SMOOTH",
"383 351 OFFCURVE",
"397 332 OFFCURVE",
"389 296 CURVE SMOOTH",
"332 27 LINE SMOOTH",
"329 12 OFFCURVE",
"339 0 OFFCURVE",
"354 0 CURVE SMOOTH",
"545 0 LINE SMOOTH",
"560 0 OFFCURVE",
"574 12 OFFCURVE",
"577 27 CURVE SMOOTH"
);
}
);
width = 674;
}
);
leftKerningGroup = n;
rightKerningGroup = n;
unicode = 006E;
},
{
glyphname = eng;
lastChange = "2015-10-21 15:52:37 +0000";
layers = (
{
hints = (
{
horizontal = 1;
origin = "{0, 23}";
type = Tag;
name = hr01;
},
{
horizontal = 1;
origin = "{0, 39}";
type = Tag;
name = hr02;
}
);
layerId = "E313AEA5-9794-4496-8824-D26DD01CDD19";
name = "Light Italic";
paths = (
{
closed = 1;
nodes = (
"264 -167 CURVE",
"260 -167 LINE",
"247 -167 OFFCURVE",
"236 -176 OFFCURVE",
"233 -189 CURVE",
"230 -203 LINE",
"227 -216 OFFCURVE",
"235 -225 OFFCURVE",
"248 -225 CURVE",
"252 -225 LINE",
"389 -225 OFFCURVE",
"418 -151 OFFCURVE",
"438 -57 CURVE",
"516 306 LINE",
"543 433 OFFCURVE",
"503 530 OFFCURVE",
"351 530 CURVE SMOOTH",
"275 530 OFFCURVE",
"216 497 OFFCURVE",
"175 451 CURVE",
"185 498 LINE",
"188 511 OFFCURVE",
"181 520 OFFCURVE",
"168 520 CURVE",
"151 520 LINE",
"138 520 OFFCURVE",
"127 511 OFFCURVE",
"124 498 CURVE",
"23 22 LINE SMOOTH",
"20 9 OFFCURVE",
"28 0 OFFCURVE",
"41 0 CURVE SMOOTH",
"58 0 LINE",
"71 0 OFFCURVE",
"81 9 OFFCURVE",
"84 22 CURVE",
"143 301 LINE",
"166 408 OFFCURVE",
"246 472 OFFCURVE",
"351 472 CURVE SMOOTH",
"460 472 OFFCURVE",
"477 414 OFFCURVE",
"453 301 CURVE",
"377 -57 LINE",
"364 -118 OFFCURVE",
"342 -167 OFFCURVE"
);
}
);
width = 590;
},
{
guideLines = (
{
position = "{0, -306}";
},
{
position = "{0, 59}";
},
{
angle = 90;
position = "{212, 0}";
}
);
hints = (
{
horizontal = 1;
place = "{9223372036854775808.000000, 0.000000}";
type = Tag;
name = hr01;
},
{
horizontal = 1;
place = "{9223372036854775808.000000, 0.000000}";
type = Tag;
name = hr02;
}
);
layerId = "8D1576CD-C92F-4A10-BFAA-527F596A391A";
name = "Bold Italic";
paths = (
{
closed = 1;
nodes = (
"183 -49 CURVE",
"151 -198 LINE SMOOTH",
"148 -213 OFFCURVE",
"158 -225 OFFCURVE",
"173 -225 CURVE SMOOTH",
"212 -225 LINE SMOOTH",
"404 -225 OFFCURVE",
"541 -142 OFFCURVE",
"582 48 CURVE SMOOTH",
"636 303 LINE SMOOTH",
"669 461 OFFCURVE",
"591 530 OFFCURVE",
"480 530 CURVE SMOOTH",
"409 530 OFFCURVE",
"351 499 OFFCURVE",
"309 460 CURVE",
"316 493 LINE SMOOTH",
"319 508 OFFCURVE",
"310 520 OFFCURVE",
"295 520 CURVE SMOOTH",
"120 520 LINE SMOOTH",
"105 520 OFFCURVE",
"90 508 OFFCURVE",
"87 493 CURVE SMOOTH",
"-12 27 LINE SMOOTH",
"-15 12 OFFCURVE",
"-5 0 OFFCURVE",
"10 0 CURVE SMOOTH",
"200 0 LINE SMOOTH",
"215 0 OFFCURVE",
"229 12 OFFCURVE",
"232 27 CURVE SMOOTH",
"289 296 LINE SMOOTH",
"297 332 OFFCURVE",
"319 351 OFFCURVE",
"351 351 CURVE SMOOTH",
"383 351 OFFCURVE",
"397 332 OFFCURVE",
"389 296 CURVE SMOOTH",
"339 59 LINE SMOOTH",
"326 -2 OFFCURVE",
"298 -22 OFFCURVE",
"255 -22 CURVE SMOOTH",
"216 -22 LINE SMOOTH",
"201 -22 OFFCURVE",
"186 -34 OFFCURVE"
);
}
);
width = 674;
}
);
leftKerningGroup = n;
rightKerningGroup = n;
unicode = 014B;
},
{
glyphname = o;
lastChange = "2015-10-21 15:52:37 +0000";
layers = (
{
hints = (
{
horizontal = 1;
origin = "{0, 0}";
type = Tag;
name = hr00;
}
);
layerId = "E313AEA5-9794-4496-8824-D26DD01CDD19";
name = "Light Italic";
paths = (
{
closed = 1;
nodes = (
"321 530 CURVE SMOOTH",
"176 530 OFFCURVE",
"88 431 OFFCURVE",
"57 302 CURVE",
"51 282 OFFCURVE",
"42 238 OFFCURVE",
"39 218 CURVE",
"15 89 OFFCURVE",
"79 -10 OFFCURVE",
"218 -10 CURVE SMOOTH",
"363 -10 OFFCURVE",
"451 89 OFFCURVE",
"483 218 CURVE SMOOTH",
"488 238 OFFCURVE",
"497 282 OFFCURVE",
"501 302 CURVE SMOOTH",
"524 431 OFFCURVE",
"464 530 OFFCURVE"
);
},
{
closed = 1;
nodes = (
"439 297 CURVE SMOOTH",
"435 277 OFFCURVE",
"428 243 OFFCURVE",
"423 223 CURVE SMOOTH",
"395 109 OFFCURVE",
"312 48 OFFCURVE",
"218 48 CURVE SMOOTH",
"122 48 OFFCURVE",
"81 109 OFFCURVE",
"101 223 CURVE SMOOTH",
"104 243 OFFCURVE",
"111 277 OFFCURVE",
"117 297 CURVE",
"145 411 OFFCURVE",
"227 472 OFFCURVE",
"321 472 CURVE SMOOTH",
"416 472 OFFCURVE",
"459 411 OFFCURVE"
);
}
);
width = 556;
},
{
hints = (
{
horizontal = 1;
place = "{9223372036854775808.000000, 0.000000}";
type = Tag;
name = hr00;
}
);
layerId = "8D1576CD-C92F-4A10-BFAA-527F596A391A";
name = "Bold Italic";
paths = (
{
closed = 1;
nodes = (
"360 530 CURVE SMOOTH",
"177 530 OFFCURVE",
"74 454 OFFCURVE",
"33 307 CURVE SMOOTH",
"24 277 OFFCURVE",
"17 243 OFFCURVE",
"13 213 CURVE SMOOTH",
"-8 66 OFFCURVE",
"91 -10 OFFCURVE",
"265 -10 CURVE SMOOTH",
"459 -10 OFFCURVE",
"552 66 OFFCURVE",
"593 213 CURVE SMOOTH",
"601 243 OFFCURVE",
"608 277 OFFCURVE",
"613 307 CURVE SMOOTH",
"634 454 OFFCURVE",
"523 530 OFFCURVE"
);
},
{
closed = 1;
nodes = (
"367 302 CURVE SMOOTH",
"364 282 OFFCURVE",
"354 238 OFFCURVE",
"349 218 CURVE SMOOTH",
"336 171 OFFCURVE",
"327 150 OFFCURVE",
"289 150 CURVE SMOOTH",
"251 150 OFFCURVE",
"252 171 OFFCURVE",
"259 218 CURVE SMOOTH",
"262 238 OFFCURVE",
"271 282 OFFCURVE",
"277 302 CURVE SMOOTH",
"289 346 OFFCURVE",
"298 370 OFFCURVE",
"336 370 CURVE SMOOTH",
"374 370 OFFCURVE",
"374 346 OFFCURVE"
);
}
);
width = 641;
}
);
leftKerningGroup = o;
rightKerningGroup = o;
unicode = 006F;
},
{
glyphname = oslash;
lastChange = "2015-10-21 15:52:37 +0000";
layers = (
{
hints = (
{
horizontal = 1;
origin = "{0, 0}";
type = Tag;
name = hr00;
}
);
layerId = "E313AEA5-9794-4496-8824-D26DD01CDD19";
name = "Light Italic";
paths = (
{
closed = 1;
nodes = (
"340 530 CURVE SMOOTH",
"195 530 OFFCURVE",
"107 431 OFFCURVE",
"76 302 CURVE",
"70 282 OFFCURVE",
"61 238 OFFCURVE",
"58 218 CURVE SMOOTH",
"55 203 LINE",
"13 188 LINE SMOOTH",
"-4 182 OFFCURVE",
"-11 178 OFFCURVE",
"-14 163 CURVE SMOOTH",
"-18 144 LINE SMOOTH",
"-22 124 OFFCURVE",
"-3 124 OFFCURVE",
"11 129 CURVE SMOOTH",
"54 144 LINE",
"62 53 OFFCURVE",
"126 -10 OFFCURVE",
"237 -10 CURVE SMOOTH",
"382 -10 OFFCURVE",
"470 89 OFFCURVE",
"502 218 CURVE SMOOTH",
"508 242 OFFCURVE",
"518 287 OFFCURVE",
"522 312 CURVE",
"563 327 LINE SMOOTH",
"580 333 OFFCURVE",
"587 337 OFFCURVE",
"590 352 CURVE SMOOTH",
"594 371 LINE SMOOTH",
"598 392 OFFCURVE",
"579 391 OFFCURVE",
"566 386 CURVE",
"524 371 LINE",
"517 464 OFFCURVE",
"456 530 OFFCURVE"
);
},
{
closed = 1;
nodes = (
"136 297 CURVE",
"164 411 OFFCURVE",
"246 472 OFFCURVE",
"340 472 CURVE SMOOTH",
"419 472 OFFCURVE",
"462 429 OFFCURVE",
"463 349 CURVE",
"120 226 LINE",
"124 247 OFFCURVE",
"130 278 OFFCURVE"
);
},
{
closed = 1;
nodes = (
"456 289 LINE",
"455 282 OFFCURVE",
"449 251 OFFCURVE",
"442 223 CURVE",
"416 109 OFFCURVE",
"331 48 OFFCURVE",
"237 48 CURVE SMOOTH",
"158 48 OFFCURVE",
"116 89 OFFCURVE",
"115 166 CURVE"
);
}
);
width = 592;
},
{
hints = (
{
horizontal = 1;
place = "{9223372036854775808.000000, 0.000000}";
type = Tag;
name = hr00;
}
);
layerId = "8D1576CD-C92F-4A10-BFAA-527F596A391A";
name = "Bold Italic";
paths = (
{
closed = 1;
nodes = (
"374 530 CURVE SMOOTH",
"191 530 OFFCURVE",
"88 454 OFFCURVE",
"47 307 CURVE SMOOTH",
"38 277 OFFCURVE",
"31 244 OFFCURVE",
"27 215 CURVE",
"11 209 LINE",
"-6 203 OFFCURVE",
"-14 194 OFFCURVE",
"-18 176 CURVE",
"-33 108 LINE",
"-35 96 OFFCURVE",
"-28 87 OFFCURVE",
"-16 87 CURVE SMOOTH",
"-14 87 OFFCURVE",
"-10 88 OFFCURVE",
"-4 90 CURVE",
"37 105 LINE",
"68 29 OFFCURVE",
"154 -10 OFFCURVE",
"279 -10 CURVE SMOOTH",
"473 -10 OFFCURVE",
"566 66 OFFCURVE",
"607 213 CURVE SMOOTH",
"615 243 OFFCURVE",
"623 279 OFFCURVE",
"628 316 CURVE",
"641 321 LINE",
"658 327 OFFCURVE",
"666 336 OFFCURVE",
"670 354 CURVE",
"684 422 LINE",
"687 434 OFFCURVE",
"680 443 OFFCURVE",
"668 443 CURVE SMOOTH",
"666 443 OFFCURVE",
"661 442 OFFCURVE",
"656 440 CURVE",
"610 423 LINE",
"573 494 OFFCURVE",
"486 530 OFFCURVE"
);
},
{
closed = 1;
nodes = (
"363 218 CURVE SMOOTH",
"350 171 OFFCURVE",
"341 150 OFFCURVE",
"303 150 CURVE SMOOTH",
"274 150 OFFCURVE",
"268 162 OFFCURVE",
"269 188 CURVE",
"364 222 LINE",
"363 220 OFFCURVE",
"363 219 OFFCURVE"
);
},
{
closed = 1;
nodes = (
"350 370 CURVE SMOOTH",
"373 370 OFFCURVE",
"383 361 OFFCURVE",
"384 343 CURVE",
"293 310 LINE",
"304 349 OFFCURVE",
"314 370 OFFCURVE"
);
}
);
width = 666;
}
);
leftKerningGroup = o;
rightKerningGroup = o;
unicode = 00F8;
},
{
glyphname = oe;
lastChange = "2015-10-21 15:52:37 +0000";
layers = (
{
hints = (
{
horizontal = 1;
origin = "{0, 0}";
type = Tag;
name = hr00;
}
);
layerId = "E313AEA5-9794-4496-8824-D26DD01CDD19";
name = "Light Italic";
paths = (
{
closed = 1;
nodes = (
"321 530 CURVE SMOOTH",
"176 530 OFFCURVE",
"88 431 OFFCURVE",
"57 302 CURVE",
"51 282 OFFCURVE",
"42 238 OFFCURVE",
"39 218 CURVE",
"15 89 OFFCURVE",
"79 -10 OFFCURVE",
"218 -10 CURVE SMOOTH",
"314 -10 OFFCURVE",
"385 33 OFFCURVE",
"431 100 CURVE",
"454 32 OFFCURVE",
"513 -10 OFFCURVE",
"601 -10 CURVE SMOOTH",
"737 -10 OFFCURVE",
"817 73 OFFCURVE",
"827 111 CURVE",
"831 123 OFFCURVE",
"822 131 OFFCURVE",
"810 131 CURVE",
"794 131 LINE",
"779 131 OFFCURVE",
"776 130 OFFCURVE",
"761 113 CURVE SMOOTH",
"746 97 OFFCURVE",
"706 48 OFFCURVE",
"601 48 CURVE SMOOTH",
"489 48 OFFCURVE",
"471 136 OFFCURVE",
"489 235 CURVE",
"845 235 LINE",
"858 235 OFFCURVE",
"870 244 OFFCURVE",
"873 257 CURVE",
"876 272 LINE",
"908 432 OFFCURVE",
"838 530 OFFCURVE",
"704 530 CURVE SMOOTH",
"614 530 OFFCURVE",
"543 488 OFFCURVE",
"495 421 CURVE",
"473 487 OFFCURVE",
"415 530 OFFCURVE"
);
},
{
closed = 1;
nodes = (
"439 297 CURVE",
"437 285 OFFCURVE",
"432 257 OFFCURVE",
"423 223 CURVE",
"394 109 OFFCURVE",
"312 48 OFFCURVE",
"218 48 CURVE SMOOTH",
"122 48 OFFCURVE",
"81 109 OFFCURVE",
"101 223 CURVE SMOOTH",
"104 243 OFFCURVE",
"111 277 OFFCURVE",
"117 297 CURVE",
"145 411 OFFCURVE",
"227 472 OFFCURVE",
"321 472 CURVE SMOOTH",
"416 472 OFFCURVE",
"459 411 OFFCURVE"
);
},
{
closed = 1;
nodes = (
"501 291 LINE",
"522 391 OFFCURVE",
"599 472 OFFCURVE",
"704 472 CURVE SMOOTH",
"804 472 OFFCURVE",
"843 393 OFFCURVE",
"819 291 CURVE"
);
}
);
width = 930;
},
{
guideLines = (
{
angle = 90;
position = "{947, 0}";
}
);
hints = (
{
horizontal = 1;
place = "{9223372036854775808.000000, 0.000000}";
type = Tag;
name = hr01;
},
{
horizontal = 1;
place = "{9223372036854775808.000000, 0.000000}";
type = Tag;
name = hr02;
},
{
horizontal = 1;
place = "{9223372036854775808.000000, 0.000000}";
type = Tag;
name = hr03;
},
{
horizontal = 1;
place = "{9223372036854775808.000000, 0.000000}";
type = Tag;
name = hr04;
}
);
layerId = "8D1576CD-C92F-4A10-BFAA-527F596A391A";
name = "Bold Italic";
paths = (
{
closed = 1;
nodes = (
"890 201 LINE",
"905 201 OFFCURVE",
"920 213 OFFCURVE",
"923 228 CURVE",
"929 258 LINE",
"961 405 OFFCURVE",
"878 530 OFFCURVE",
"692 530 CURVE SMOOTH",
"627 530 OFFCURVE",
"571 517 OFFCURVE",
"524 494 CURVE",
"481 518 OFFCURVE",
"424 530 OFFCURVE",
"360 530 CURVE SMOOTH",
"177 530 OFFCURVE",
"74 454 OFFCURVE",
"33 307 CURVE SMOOTH",
"24 277 OFFCURVE",
"17 243 OFFCURVE",
"13 213 CURVE SMOOTH",
"-8 66 OFFCURVE",
"91 -10 OFFCURVE",
"265 -10 CURVE SMOOTH",
"338 -10 OFFCURVE",
"398 1 OFFCURVE",
"445 22 CURVE",
"486 0 OFFCURVE",
"539 -10 OFFCURVE",
"598 -10 CURVE SMOOTH",
"793 -10 OFFCURVE",
"878 94 OFFCURVE",
"892 145 CURVE SMOOTH",
"896 158 OFFCURVE",
"888 167 OFFCURVE",
"875 167 CURVE",
"686 167 LINE",
"670 167 OFFCURVE",
"665 165 OFFCURVE",
"650 153 CURVE SMOOTH",
"637 142 OFFCURVE",
"629 135 OFFCURVE",
"617 135 CURVE SMOOTH",
"588 135 OFFCURVE",
"583 156 OFFCURVE",
"591 196 CURVE",
"592 201 LINE"
);
},
{
closed = 1;
nodes = (
"367 302 CURVE SMOOTH",
"364 282 OFFCURVE",
"354 238 OFFCURVE",
"349 218 CURVE SMOOTH",
"336 171 OFFCURVE",
"327 150 OFFCURVE",
"289 150 CURVE SMOOTH",
"251 150 OFFCURVE",
"252 171 OFFCURVE",
"259 218 CURVE SMOOTH",
"262 238 OFFCURVE",
"271 282 OFFCURVE",
"277 302 CURVE SMOOTH",
"289 346 OFFCURVE",
"298 370 OFFCURVE",
"336 370 CURVE SMOOTH",
"374 370 OFFCURVE",
"374 346 OFFCURVE"
);
},
{
closed = 1;
nodes = (
"672 390 CURVE SMOOTH",
"698 390 OFFCURVE",
"708 371 OFFCURVE",
"699 326 CURVE",
"619 326 LINE",
"628 371 OFFCURVE",
"646 390 OFFCURVE"
);
}
);
width = 962;
}
);
leftKerningGroup = o;
rightKerningGroup = e;
unicode = 0153;
},
{
glyphname = p;
lastChange = "2015-10-21 15:52:37 +0000";
layers = (
{
hints = (
{
horizontal = 1;
origin = "{0, 16}";
type = Tag;
name = hr01;
},
{
horizontal = 1;
origin = "{1, 3}";
type = Tag;
name = hr02;
}
);
layerId = "E313AEA5-9794-4496-8824-D26DD01CDD19";
name = "Light Italic";
paths = (
{
closed = 1;
nodes = (
"249 -10 CURVE",
"410 -10 OFFCURVE",
"481 116 OFFCURVE",
"511 232 CURVE SMOOTH",
"516 252 OFFCURVE",
"520 268 OFFCURVE",
"523 288 CURVE SMOOTH",
"541 405 OFFCURVE",
"507 530 OFFCURVE",
"352 530 CURVE SMOOTH",
"264 530 OFFCURVE",
"218 496 OFFCURVE",
"176 451 CURVE",
"186 498 LINE SMOOTH",
"189 511 OFFCURVE",
"181 520 OFFCURVE",
"168 520 CURVE SMOOTH",
"151 520 LINE SMOOTH",
"138 520 OFFCURVE",
"128 511 OFFCURVE",
"125 498 CURVE SMOOTH",
"-17 -168 LINE SMOOTH",
"-20 -181 OFFCURVE",
"-12 -190 OFFCURVE",
"1 -190 CURVE SMOOTH",
"18 -190 LINE SMOOTH",
"31 -190 OFFCURVE",
"41 -181 OFFCURVE",
"44 -168 CURVE SMOOTH",
"95 69 LINE",
"118 25 OFFCURVE",
"161 -10 OFFCURVE"
);
},
{
closed = 1;
nodes = (
"143 296 CURVE SMOOTH",
"163 378 OFFCURVE",
"238 472 OFFCURVE",
"352 472 CURVE SMOOTH",
"461 472 OFFCURVE",
"476 384 OFFCURVE",
"461 288 CURVE SMOOTH",
"458 268 OFFCURVE",
"455 252 OFFCURVE",
"449 232 CURVE SMOOTH",
"421 137 OFFCURVE",
"358 48 OFFCURVE",
"249 48 CURVE SMOOTH",
"138 48 OFFCURVE",
"111 138 OFFCURVE",
"126 218 CURVE SMOOTH",
"130 238 OFFCURVE",
"138 276 OFFCURVE"
);
}
);
width = 579;
},
{
guideLines = (
{
position = "{0, 530}";
},
{
position = "{0, -10}";
},
{
position = "{0, 50}";
}
);
hints = (
{
horizontal = 1;
place = "{9223372036854775808.000000, 0.000000}";
type = Tag;
name = hr01;
},
{
horizontal = 1;
place = "{9223372036854775808.000000, 0.000000}";
type = Tag;
name = hr02;
}
);
layerId = "8D1576CD-C92F-4A10-BFAA-527F596A391A";
name = "Bold Italic";
paths = (
{
closed = 1;
nodes = (
"362 -10 CURVE SMOOTH",
"478 -10 OFFCURVE",
"574 63 OFFCURVE",
"613 220 CURVE SMOOTH",
"621 250 OFFCURVE",
"625 269 OFFCURVE",
"630 299 CURVE SMOOTH",
"659 466 OFFCURVE",
"573 530 OFFCURVE",
"457 530 CURVE SMOOTH",
"388 530 OFFCURVE",
"343 502 OFFCURVE",
"305 463 CURVE",
"311 493 LINE SMOOTH",
"314 508 OFFCURVE",
"305 520 OFFCURVE",
"290 520 CURVE SMOOTH",
"120 520 LINE SMOOTH",
"105 520 OFFCURVE",
"90 508 OFFCURVE",
"87 493 CURVE SMOOTH",
"-52 -163 LINE SMOOTH",
"-55 -178 OFFCURVE",
"-46 -190 OFFCURVE",
"-31 -190 CURVE SMOOTH",
"154 -190 LINE SMOOTH",
"169 -190 OFFCURVE",
"184 -178 OFFCURVE",
"187 -163 CURVE SMOOTH",
"232 50 LINE",
"253 7 OFFCURVE",
"306 -10 OFFCURVE"
);
},
{
closed = 1;
nodes = (
"370 227 CURVE SMOOTH",
"358 191 OFFCURVE",
"344 169 OFFCURVE",
"307 169 CURVE SMOOTH",
"273 169 OFFCURVE",
"263 187 OFFCURVE",
"268 219 CURVE SMOOTH",
"272 249 OFFCURVE",
"275 263 OFFCURVE",
"284 293 CURVE SMOOTH",
"293 329 OFFCURVE",
"309 351 OFFCURVE",
"346 351 CURVE SMOOTH",
"383 351 OFFCURVE",
"387 329 OFFCURVE",
"384 293 CURVE SMOOTH",
"382 273 OFFCURVE",
"376 247 OFFCURVE"
);
}
);
width = 661;
}
);
leftKerningGroup = n;
rightKerningGroup = b;
unicode = 0070;
},
{
glyphname = thorn;
lastChange = "2015-10-21 15:52:37 +0000";
layers = (
{
hints = (
{
horizontal = 1;
origin = "{0, 0}";
type = Tag;
name = hr00;
}
);
layerId = "E313AEA5-9794-4496-8824-D26DD01CDD19";
name = "Light Italic";
paths = (
{
closed = 1;
nodes = (
"227 688 LINE",
"230 702 OFFCURVE",
"222 710 OFFCURVE",
"209 710 CURVE",
"192 710 LINE",
"179 710 OFFCURVE",
"169 701 OFFCURVE",
"166 688 CURVE",
"-17 -168 LINE",
"-20 -181 OFFCURVE",
"-12 -190 OFFCURVE",
"1 -190 CURVE",
"18 -190 LINE",
"31 -190 OFFCURVE",
"41 -181 OFFCURVE",
"44 -168 CURVE SMOOTH",
"95 69 LINE",
"118 25 OFFCURVE",
"161 -10 OFFCURVE",
"249 -10 CURVE SMOOTH",
"410 -10 OFFCURVE",
"481 116 OFFCURVE",
"511 232 CURVE SMOOTH",
"516 252 OFFCURVE",
"520 268 OFFCURVE",
"523 288 CURVE SMOOTH",
"541 405 OFFCURVE",
"507 530 OFFCURVE",
"352 530 CURVE SMOOTH",
"264 530 OFFCURVE",
"214 494 OFFCURVE",
"176 451 CURVE"
);
},
{
closed = 1;
nodes = (
"143 296 CURVE SMOOTH",
"163 378 OFFCURVE",
"238 472 OFFCURVE",
"352 472 CURVE SMOOTH",
"461 472 OFFCURVE",
"476 384 OFFCURVE",
"461 288 CURVE SMOOTH",
"458 268 OFFCURVE",
"455 252 OFFCURVE",
"449 232 CURVE SMOOTH",
"421 137 OFFCURVE",
"358 48 OFFCURVE",
"249 48 CURVE SMOOTH",
"138 48 OFFCURVE",
"111 138 OFFCURVE",
"126 218 CURVE SMOOTH",
"130 238 OFFCURVE",
"138 276 OFFCURVE"
);
}
);
width = 579;
},
{
guideLines = (
{
position = "{0, -190}";
},
{
angle = 90;
position = "{255, 0}";
}
);
hints = (
{
horizontal = 1;
place = "{9223372036854775808.000000, 0.000000}";
type = Tag;
name = hr00;
}
);
layerId = "8D1576CD-C92F-4A10-BFAA-527F596A391A";
name = "Bold Italic";
paths = (
{
closed = 1;
nodes = (
"362 -10 CURVE SMOOTH",
"478 -10 OFFCURVE",
"574 63 OFFCURVE",
"613 220 CURVE SMOOTH",
"621 250 OFFCURVE",
"625 269 OFFCURVE",
"630 299 CURVE SMOOTH",
"659 466 OFFCURVE",
"573 530 OFFCURVE",
"457 530 CURVE SMOOTH",
"388 530 OFFCURVE",
"351 504 OFFCURVE",
"322 473 CURVE",
"367 683 LINE SMOOTH",
"370 698 OFFCURVE",
"360 710 OFFCURVE",
"345 710 CURVE SMOOTH",
"160 710 LINE SMOOTH",
"145 710 OFFCURVE",
"131 698 OFFCURVE",
"128 683 CURVE SMOOTH",
"-52 -163 LINE SMOOTH",
"-55 -178 OFFCURVE",
"-46 -190 OFFCURVE",
"-31 -190 CURVE SMOOTH",
"154 -190 LINE SMOOTH",
"169 -190 OFFCURVE",
"184 -178 OFFCURVE",
"187 -163 CURVE SMOOTH",
"232 50 LINE",
"253 10 OFFCURVE",
"306 -10 OFFCURVE"
);
},
{
closed = 1;
nodes = (
"370 227 CURVE SMOOTH",
"358 191 OFFCURVE",
"344 169 OFFCURVE",
"307 169 CURVE SMOOTH",
"273 169 OFFCURVE",
"263 187 OFFCURVE",
"268 219 CURVE SMOOTH",
"272 249 OFFCURVE",
"275 263 OFFCURVE",
"284 293 CURVE SMOOTH",
"293 329 OFFCURVE",
"309 351 OFFCURVE",
"346 351 CURVE SMOOTH",
"383 351 OFFCURVE",
"387 329 OFFCURVE",
"384 293 CURVE SMOOTH",
"382 273 OFFCURVE",
"376 247 OFFCURVE"
);
}
);
width = 661;
}
);
leftKerningGroup = h;
rightKerningGroup = b;
unicode = 00FE;
},
{
glyphname = q;
lastChange = "2015-10-21 15:52:37 +0000";
layers = (
{
hints = (
{
horizontal = 1;
origin = "{0, 23}";
type = Tag;
name = hr01;
}
);
layerId = "E313AEA5-9794-4496-8824-D26DD01CDD19";
name = "Light Italic";
paths = (
{
closed = 1;
nodes = (
"213 -10 CURVE SMOOTH",
"296 -10 OFFCURVE",
"346 25 OFFCURVE",
"388 69 CURVE",
"338 -168 LINE SMOOTH",
"335 -181 OFFCURVE",
"342 -190 OFFCURVE",
"355 -190 CURVE SMOOTH",
"372 -190 LINE SMOOTH",
"385 -190 OFFCURVE",
"396 -181 OFFCURVE",
"399 -168 CURVE SMOOTH",
"540 498 LINE SMOOTH",
"543 511 OFFCURVE",
"536 520 OFFCURVE",
"523 520 CURVE SMOOTH",
"506 520 LINE SMOOTH",
"493 520 OFFCURVE",
"482 511 OFFCURVE",
"479 498 CURVE SMOOTH",
"469 451 LINE",
"446 496 OFFCURVE",
"398 530 OFFCURVE",
"315 530 CURVE SMOOTH",
"159 530 OFFCURVE",
"83 410 OFFCURVE",
"54 293 CURVE SMOOTH",
"49 273 OFFCURVE",
"43 247 OFFCURVE",
"40 227 CURVE SMOOTH",
"22 110 OFFCURVE",
"57 -10 OFFCURVE"
);
},
{
closed = 1;
nodes = (
"436 296 CURVE SMOOTH",
"433 276 OFFCURVE",
"425 238 OFFCURVE",
"420 218 CURVE SMOOTH",
"401 138 OFFCURVE",
"324 48 OFFCURVE",
"213 48 CURVE SMOOTH",
"96 48 OFFCURVE",
"87 136 OFFCURVE",
"102 232 CURVE SMOOTH",
"105 252 OFFCURVE",
"108 268 OFFCURVE",
"114 288 CURVE SMOOTH",
"142 383 OFFCURVE",
"204 472 OFFCURVE",
"315 472 CURVE SMOOTH",
"429 472 OFFCURVE",
"451 378 OFFCURVE"
);
}
);
width = 580;
},
{
guideLines = (
{
position = "{0, 530}";
},
{
position = "{0, -10}";
}
);
hints = (
{
horizontal = 1;
place = "{9223372036854775808.000000, 0.000000}";
type = Tag;
name = hr01;
},
{
horizontal = 1;
place = "{9223372036854775808.000000, 0.000000}";
type = Tag;
name = hr02;
}
);
layerId = "8D1576CD-C92F-4A10-BFAA-527F596A391A";
name = "Bold Italic";
paths = (
{
closed = 1;
nodes = (
"189 -10 CURVE SMOOTH",
"245 -10 OFFCURVE",
"286 7 OFFCURVE",
"325 50 CURVE",
"280 -163 LINE SMOOTH",
"277 -178 OFFCURVE",
"286 -190 OFFCURVE",
"301 -190 CURVE SMOOTH",
"486 -190 LINE SMOOTH",
"501 -190 OFFCURVE",
"516 -178 OFFCURVE",
"519 -163 CURVE SMOOTH",
"658 493 LINE SMOOTH",
"661 508 OFFCURVE",
"652 520 OFFCURVE",
"637 520 CURVE SMOOTH",
"467 520 LINE SMOOTH",
"452 520 OFFCURVE",
"437 508 OFFCURVE",
"434 493 CURVE SMOOTH",
"428 463 LINE",
"406 502 OFFCURVE",
"353 530 OFFCURVE",
"284 530 CURVE SMOOTH",
"168 530 OFFCURVE",
"76 466 OFFCURVE",
"33 299 CURVE SMOOTH",
"26 269 OFFCURVE",
"22 250 OFFCURVE",
"16 220 CURVE",
"-11 63 OFFCURVE",
"73 -10 OFFCURVE"
);
},
{
closed = 1;
nodes = (
"263 227 CURVE SMOOTH",
"265 247 OFFCURVE",
"271 273 OFFCURVE",
"277 293 CURVE SMOOTH",
"288 329 OFFCURVE",
"302 351 OFFCURVE",
"339 351 CURVE SMOOTH",
"376 351 OFFCURVE",
"382 329 OFFCURVE",
"377 293 CURVE SMOOTH",
"372 263 OFFCURVE",
"369 249 OFFCURVE",
"361 219 CURVE SMOOTH",
"352 187 OFFCURVE",
"334 169 OFFCURVE",
"300 169 CURVE SMOOTH",
"263 169 OFFCURVE",
"259 191 OFFCURVE"
);
}
);
width = 661;
}
);
leftKerningGroup = d;
rightKerningGroup = u;
unicode = 0071;
},
{
glyphname = r;
lastChange = "2015-10-21 15:52:37 +0000";
layers = (
{
hints = (
{
horizontal = 1;
origin = "{0, 0}";
type = Tag;
name = hr00;
}
);
layerId = "E313AEA5-9794-4496-8824-D26DD01CDD19";
name = "Light Italic";
paths = (
{
closed = 1;
nodes = (
"175 451 CURVE",
"185 497 LINE SMOOTH",
"188 510 OFFCURVE",
"180 520 OFFCURVE",
"167 520 CURVE SMOOTH",
"151 520 LINE SMOOTH",
"138 520 OFFCURVE",
"127 510 OFFCURVE",
"124 497 CURVE SMOOTH",
"23 22 LINE SMOOTH",
"20 9 OFFCURVE",
"28 0 OFFCURVE",
"41 0 CURVE SMOOTH",
"57 0 LINE SMOOTH",
"70 0 OFFCURVE",
"81 9 OFFCURVE",
"84 22 CURVE SMOOTH",
"150 332 LINE SMOOTH",
"167 412 OFFCURVE",
"228 462 OFFCURVE",
"308 462 CURVE SMOOTH",
"351 462 LINE SMOOTH",
"364 462 OFFCURVE",
"375 471 OFFCURVE",
"377 484 CURVE SMOOTH",
"380 498 LINE SMOOTH",
"383 511 OFFCURVE",
"376 520 OFFCURVE",
"363 520 CURVE SMOOTH",
"326 520 LINE SMOOTH",
"259 520 OFFCURVE",
"206 497 OFFCURVE"
);
}
);
width = 350;
},
{
hints = (
{
horizontal = 1;
place = "{9223372036854775808.000000, 0.000000}";
type = Tag;
name = hr00;
}
);
layerId = "8D1576CD-C92F-4A10-BFAA-527F596A391A";
name = "Bold Italic";
paths = (
{
closed = 1;
nodes = (
"316 493 LINE SMOOTH",
"319 508 OFFCURVE",
"310 520 OFFCURVE",
"295 520 CURVE SMOOTH",
"120 520 LINE SMOOTH",
"105 520 OFFCURVE",
"90 508 OFFCURVE",
"87 493 CURVE SMOOTH",
"-12 27 LINE SMOOTH",
"-15 12 OFFCURVE",
"-5 0 OFFCURVE",
"10 0 CURVE SMOOTH",
"200 0 LINE SMOOTH",
"215 0 OFFCURVE",
"229 12 OFFCURVE",
"232 27 CURVE SMOOTH",
"280 250 LINE SMOOTH",
"288 290 OFFCURVE",
"312 310 OFFCURVE",
"352 310 CURVE SMOOTH",
"481 310 LINE SMOOTH",
"496 310 OFFCURVE",
"511 322 OFFCURVE",
"514 337 CURVE SMOOTH",
"547 493 LINE SMOOTH",
"550 508 OFFCURVE",
"541 520 OFFCURVE",
"526 520 CURVE SMOOTH",
"458 520 LINE SMOOTH",
"383 520 OFFCURVE",
"342 494 OFFCURVE",
"309 458 CURVE"
);
}
);
width = 519;
}
);
leftKerningGroup = n;
rightKerningGroup = r;
unicode = 0072;
},
